%TF.GenerationSoftware,Altium Limited,Altium Designer,25.1.2 (22)*%
G04 Layer_Color=0*
%FSLAX45Y45*%
%MOMM*%
%TF.SameCoordinates,40A9CBEC-A2F6-451D-B56F-574927FC8DEB*%
%TF.FilePolarity,Positive*%
%TF.FileFunction,Plated,1,2,PTH,Drill*%
%TF.Part,Single*%
G01*
G75*
%TA.AperFunction,ComponentDrill*%
%ADD45C,1.05000*%
%ADD46C,1.02000*%
%ADD47C,2.41000*%
%ADD48C,0.85000*%
%ADD49C,0.76200*%
%ADD50C,1.10000*%
%ADD51C,0.85000*%
%ADD52C,1.34000*%
%ADD53C,1.34000*%
%TA.AperFunction,OtherDrill,Pad Free-6 (3.5mm,3.5mm)*%
%ADD54C,3.00000*%
%TA.AperFunction,OtherDrill,Pad Free-5 (66.5mm,3.5mm)*%
%ADD55C,3.00000*%
%TA.AperFunction,OtherDrill,Pad Free-4 (66.5mm,56.5mm)*%
%ADD56C,3.00000*%
%TA.AperFunction,OtherDrill,Pad Free-3 (3.5mm,56.5mm)*%
%ADD57C,3.00000*%
%TA.AperFunction,ComponentDrill*%
%ADD58C,0.78000*%
D45*
X2690602Y5435600D02*
D03*
X1576598D02*
D03*
X916198Y5791200D02*
D03*
X2030202D02*
D03*
X2338598D02*
D03*
X3452602D02*
D03*
D46*
X6054600Y3914000D02*
D03*
Y4214000D02*
D03*
X6029200Y1282000D02*
D03*
Y1582000D02*
D03*
Y1882000D02*
D03*
Y2182000D02*
D03*
Y2482000D02*
D03*
Y2782000D02*
D03*
D47*
X6486600Y4429000D02*
D03*
Y3699000D02*
D03*
X6461200Y2997000D02*
D03*
Y1067000D02*
D03*
D48*
X4791801Y2311400D02*
D03*
X3691799D02*
D03*
X3089998D02*
D03*
X1990000D02*
D03*
X237399D02*
D03*
X1337401D02*
D03*
D49*
X2794000Y4826000D02*
D03*
Y4572000D02*
D03*
Y3556000D02*
D03*
X2032000D02*
D03*
Y4572000D02*
D03*
Y4826000D02*
D03*
X4343400D02*
D03*
Y4572000D02*
D03*
Y3556000D02*
D03*
X3581400D02*
D03*
Y4572000D02*
D03*
Y4826000D02*
D03*
X1244600D02*
D03*
Y4572000D02*
D03*
Y3556000D02*
D03*
X482600D02*
D03*
Y4572000D02*
D03*
Y4826000D02*
D03*
D50*
X4622800Y1752600D02*
D03*
X4368800D02*
D03*
X914400Y1778000D02*
D03*
X1168400D02*
D03*
X2692399Y1752600D02*
D03*
X2946399D02*
D03*
D51*
X3251200Y1389800D02*
D03*
Y489800D02*
D03*
X4953000Y413600D02*
D03*
Y1313600D02*
D03*
D52*
X4114800Y914400D02*
D03*
Y660400D02*
D03*
Y406400D02*
D03*
D53*
X3733800Y3048000D02*
D03*
X3987800D02*
D03*
X4241800D02*
D03*
X635000D02*
D03*
X889000D02*
D03*
X1143000D02*
D03*
X2184400D02*
D03*
X2438400D02*
D03*
X2692400D02*
D03*
D54*
X350002Y350002D02*
D03*
D55*
X6649999D02*
D03*
D56*
Y5650001D02*
D03*
D57*
X350002D02*
D03*
D58*
X914400Y1041400D02*
D03*
X1168400D02*
D03*
X1422400D02*
D03*
X1676400D02*
D03*
X1930400D02*
D03*
X2184400D02*
D03*
X2438400D02*
D03*
X2692400D02*
D03*
Y247401D02*
D03*
X2438400D02*
D03*
X2184400D02*
D03*
X1930400D02*
D03*
X1676400D02*
D03*
X1422400D02*
D03*
X1168400D02*
D03*
X914400D02*
D03*
%TF.MD5,37bf15927fd138fc8edf3c922a3ced62*%
M02*
