%TF.GenerationSoftware,Altium Limited,Altium Designer,25.1.2 (22)*%
G04 Layer_Color=32896*
%FSLAX45Y45*%
%MOMM*%
%TF.SameCoordinates,40A9CBEC-A2F6-451D-B56F-574927FC8DEB*%
%TF.FilePolarity,Positive*%
%TF.FileFunction,Legend,Bot*%
%TF.Part,Single*%
G01*
G75*
%TA.AperFunction,NonConductor*%
%ADD33C,0.20320*%
D33*
X6084169Y5108759D02*
X6101097Y5125687D01*
X6134952D01*
X6151880Y5108759D01*
Y5041048D01*
X6134952Y5024120D01*
X6101097D01*
X6084169Y5041048D01*
X6033385Y5024120D02*
X5999529D01*
X5982601Y5041048D01*
Y5074903D01*
X5999529Y5091831D01*
X6033385D01*
X6050313Y5074903D01*
Y5041048D01*
X6033385Y5024120D01*
X5948746D02*
Y5091831D01*
X5897962D01*
X5881034Y5074903D01*
Y5024120D01*
X5847178D02*
Y5091831D01*
X5796395D01*
X5779467Y5074903D01*
Y5024120D01*
X5728683D02*
X5694828D01*
X5677900Y5041048D01*
Y5074903D01*
X5694828Y5091831D01*
X5728683D01*
X5745611Y5074903D01*
Y5041048D01*
X5728683Y5024120D01*
X5644044Y5091831D02*
Y5024120D01*
Y5057976D01*
X5627116Y5074903D01*
X5610188Y5091831D01*
X5593260D01*
X5440909D02*
Y5041048D01*
X5423982Y5024120D01*
X5407054Y5041048D01*
X5390126Y5024120D01*
X5373198Y5041048D01*
Y5091831D01*
X5322414D02*
X5288559D01*
X5271631Y5074903D01*
Y5024120D01*
X5322414D01*
X5339342Y5041048D01*
X5322414Y5057976D01*
X5271631D01*
X5237775Y5024120D02*
X5186991D01*
X5170064Y5041048D01*
X5186991Y5057976D01*
X5220847D01*
X5237775Y5074903D01*
X5220847Y5091831D01*
X5170064D01*
X5034640Y5125687D02*
Y5024120D01*
Y5074903D01*
X5017713Y5091831D01*
X4983857D01*
X4966929Y5074903D01*
Y5024120D01*
X4882290D02*
X4916145D01*
X4933073Y5041048D01*
Y5074903D01*
X4916145Y5091831D01*
X4882290D01*
X4865362Y5074903D01*
Y5057976D01*
X4933073D01*
X4831506Y5091831D02*
Y5024120D01*
Y5057976D01*
X4814578Y5074903D01*
X4797650Y5091831D01*
X4780722D01*
X4679155Y5024120D02*
X4713011D01*
X4729939Y5041048D01*
Y5074903D01*
X4713011Y5091831D01*
X4679155D01*
X4662227Y5074903D01*
Y5057976D01*
X4729939D01*
%TF.MD5,e56e4990261e91c6d84fcf5dcb155a0e*%
M02*
