%TF.GenerationSoftware,Altium Limited,Altium Designer,25.1.2 (22)*%
G04 Layer_Physical_Order=2*
G04 Layer_Color=16711680*
%FSLAX45Y45*%
%MOMM*%
%TF.SameCoordinates,40A9CBEC-A2F6-451D-B56F-574927FC8DEB*%
%TF.FilePolarity,Positive*%
%TF.FileFunction,Copper,L2,Bot,Signal*%
%TF.Part,Single*%
G01*
G75*
%TA.AperFunction,Conductor*%
%ADD10C,0.25400*%
%TA.AperFunction,ComponentPad*%
%ADD12C,1.60000*%
%ADD13R,1.60000X1.60000*%
%ADD14C,1.57000*%
%ADD15R,1.57000X1.57000*%
%ADD16C,3.66000*%
%ADD17R,1.35000X1.35000*%
%ADD18C,1.35000*%
%ADD19C,1.52400*%
%ADD20R,1.70000X1.70000*%
%ADD21C,1.70000*%
%ADD22R,1.35000X1.35000*%
%ADD23C,2.01000*%
%ADD24R,2.01000X2.01000*%
%ADD25R,2.01000X2.01000*%
%ADD26C,1.13000*%
%ADD27R,1.13000X1.13000*%
G36*
X7000240Y0D02*
X0D01*
Y6002020D01*
X7000240D01*
Y0D01*
D02*
G37*
%LPC*%
G36*
X3465767Y5891200D02*
X3439436D01*
X3414003Y5884385D01*
X3391200Y5871220D01*
X3372582Y5852601D01*
X3359417Y5829798D01*
X3352602Y5804365D01*
Y5778035D01*
X3359417Y5752602D01*
X3372582Y5729799D01*
X3391200Y5711180D01*
X3414003Y5698015D01*
X3439436Y5691200D01*
X3465767D01*
X3491200Y5698015D01*
X3514003Y5711180D01*
X3532621Y5729799D01*
X3545787Y5752602D01*
X3552601Y5778035D01*
Y5804365D01*
X3545787Y5829798D01*
X3532621Y5852601D01*
X3514003Y5871220D01*
X3491200Y5884385D01*
X3465767Y5891200D01*
D02*
G37*
G36*
X2043367D02*
X2017036D01*
X1991603Y5884385D01*
X1968800Y5871220D01*
X1950182Y5852601D01*
X1937017Y5829798D01*
X1930202Y5804365D01*
Y5778035D01*
X1937017Y5752602D01*
X1950182Y5729799D01*
X1968800Y5711180D01*
X1991603Y5698015D01*
X2017036Y5691200D01*
X2043367D01*
X2068800Y5698015D01*
X2091603Y5711180D01*
X2110221Y5729799D01*
X2123387Y5752602D01*
X2130201Y5778035D01*
Y5804365D01*
X2123387Y5829798D01*
X2110221Y5852601D01*
X2091603Y5871220D01*
X2068800Y5884385D01*
X2043367Y5891200D01*
D02*
G37*
G36*
X6666743Y5820001D02*
X6633256D01*
X6600412Y5813468D01*
X6569474Y5800653D01*
X6541631Y5782049D01*
X6517952Y5758370D01*
X6499347Y5730527D01*
X6486533Y5699589D01*
X6479999Y5666745D01*
Y5633258D01*
X6486533Y5600414D01*
X6499347Y5569476D01*
X6517952Y5541633D01*
X6541631Y5517954D01*
X6569474Y5499349D01*
X6600412Y5486535D01*
X6633256Y5480001D01*
X6666743D01*
X6699587Y5486535D01*
X6730525Y5499349D01*
X6758368Y5517954D01*
X6782047Y5541633D01*
X6800651Y5569476D01*
X6813466Y5600414D01*
X6819999Y5633258D01*
Y5666745D01*
X6813466Y5699589D01*
X6800651Y5730527D01*
X6782047Y5758370D01*
X6758368Y5782049D01*
X6730525Y5800653D01*
X6699587Y5813468D01*
X6666743Y5820001D01*
D02*
G37*
G36*
X366745D02*
X333258D01*
X300415Y5813468D01*
X269477Y5800653D01*
X241633Y5782049D01*
X217954Y5758370D01*
X199350Y5730527D01*
X186535Y5699589D01*
X180002Y5666745D01*
Y5633258D01*
X186535Y5600414D01*
X199350Y5569476D01*
X217954Y5541633D01*
X241633Y5517954D01*
X269477Y5499349D01*
X300415Y5486535D01*
X333258Y5480001D01*
X366745D01*
X399589Y5486535D01*
X430527Y5499349D01*
X458370Y5517954D01*
X482049Y5541633D01*
X500654Y5569476D01*
X513469Y5600414D01*
X520002Y5633258D01*
Y5666745D01*
X513469Y5699589D01*
X500654Y5730527D01*
X482049Y5758370D01*
X458370Y5782049D01*
X430527Y5800653D01*
X399589Y5813468D01*
X366745Y5820001D01*
D02*
G37*
G36*
X2703767Y5535600D02*
X2677436D01*
X2652003Y5528785D01*
X2629200Y5515620D01*
X2610582Y5497001D01*
X2597417Y5474198D01*
X2590602Y5448765D01*
Y5422435D01*
X2597417Y5397002D01*
X2610582Y5374199D01*
X2629200Y5355580D01*
X2652003Y5342415D01*
X2677436Y5335600D01*
X2703767D01*
X2729200Y5342415D01*
X2752003Y5355580D01*
X2770621Y5374199D01*
X2783787Y5397002D01*
X2790601Y5422435D01*
Y5448765D01*
X2783787Y5474198D01*
X2770621Y5497001D01*
X2752003Y5515620D01*
X2729200Y5528785D01*
X2703767Y5535600D01*
D02*
G37*
G36*
X4356065Y4922200D02*
X4330735D01*
X4306268Y4915644D01*
X4284332Y4902979D01*
X4266421Y4885068D01*
X4253756Y4863132D01*
X4247200Y4838665D01*
Y4813335D01*
X4253756Y4788868D01*
X4266421Y4766932D01*
X4284332Y4749021D01*
X4306268Y4736356D01*
X4330735Y4729800D01*
X4356065D01*
X4380532Y4736356D01*
X4402468Y4749021D01*
X4420379Y4766932D01*
X4433044Y4788868D01*
X4439600Y4813335D01*
Y4838665D01*
X4433044Y4863132D01*
X4420379Y4885068D01*
X4402468Y4902979D01*
X4380532Y4915644D01*
X4356065Y4922200D01*
D02*
G37*
G36*
X3594065D02*
X3568735D01*
X3544268Y4915644D01*
X3522332Y4902979D01*
X3504421Y4885068D01*
X3491756Y4863132D01*
X3485200Y4838665D01*
Y4813335D01*
X3491756Y4788868D01*
X3504421Y4766932D01*
X3522332Y4749021D01*
X3544268Y4736356D01*
X3568735Y4729800D01*
X3594065D01*
X3618532Y4736356D01*
X3640468Y4749021D01*
X3658379Y4766932D01*
X3671044Y4788868D01*
X3677600Y4813335D01*
Y4838665D01*
X3671044Y4863132D01*
X3658379Y4885068D01*
X3640468Y4902979D01*
X3618532Y4915644D01*
X3594065Y4922200D01*
D02*
G37*
G36*
X2806665D02*
X2781335D01*
X2756868Y4915644D01*
X2734932Y4902979D01*
X2717021Y4885068D01*
X2704356Y4863132D01*
X2697800Y4838665D01*
Y4813335D01*
X2704356Y4788868D01*
X2717021Y4766932D01*
X2734932Y4749021D01*
X2756868Y4736356D01*
X2781335Y4729800D01*
X2806665D01*
X2831132Y4736356D01*
X2853068Y4749021D01*
X2870979Y4766932D01*
X2883644Y4788868D01*
X2890200Y4813335D01*
Y4838665D01*
X2883644Y4863132D01*
X2870979Y4885068D01*
X2853068Y4902979D01*
X2831132Y4915644D01*
X2806665Y4922200D01*
D02*
G37*
G36*
X2044665D02*
X2019335D01*
X1994868Y4915644D01*
X1972932Y4902979D01*
X1955021Y4885068D01*
X1942356Y4863132D01*
X1935800Y4838665D01*
Y4813335D01*
X1942356Y4788868D01*
X1955021Y4766932D01*
X1972932Y4749021D01*
X1994868Y4736356D01*
X2019335Y4729800D01*
X2044665D01*
X2069132Y4736356D01*
X2091068Y4749021D01*
X2108979Y4766932D01*
X2121644Y4788868D01*
X2128200Y4813335D01*
Y4838665D01*
X2121644Y4863132D01*
X2108979Y4885068D01*
X2091068Y4902979D01*
X2069132Y4915644D01*
X2044665Y4922200D01*
D02*
G37*
G36*
X1257265D02*
X1231935D01*
X1207468Y4915644D01*
X1185532Y4902979D01*
X1167621Y4885068D01*
X1154956Y4863132D01*
X1148400Y4838665D01*
Y4813335D01*
X1154956Y4788868D01*
X1167621Y4766932D01*
X1185532Y4749021D01*
X1207468Y4736356D01*
X1231935Y4729800D01*
X1257265D01*
X1281732Y4736356D01*
X1303668Y4749021D01*
X1321579Y4766932D01*
X1334244Y4788868D01*
X1340800Y4813335D01*
Y4838665D01*
X1334244Y4863132D01*
X1321579Y4885068D01*
X1303668Y4902979D01*
X1281732Y4915644D01*
X1257265Y4922200D01*
D02*
G37*
G36*
X495265D02*
X469935D01*
X445468Y4915644D01*
X423532Y4902979D01*
X405621Y4885068D01*
X392956Y4863132D01*
X386400Y4838665D01*
Y4813335D01*
X392956Y4788868D01*
X405621Y4766932D01*
X423532Y4749021D01*
X445468Y4736356D01*
X469935Y4729800D01*
X495265D01*
X519732Y4736356D01*
X541668Y4749021D01*
X559579Y4766932D01*
X572244Y4788868D01*
X578800Y4813335D01*
Y4838665D01*
X572244Y4863132D01*
X559579Y4885068D01*
X541668Y4902979D01*
X519732Y4915644D01*
X495265Y4922200D01*
D02*
G37*
G36*
X1016198Y5891200D02*
X816199D01*
Y5691200D01*
X882858D01*
Y5019408D01*
X523131Y4659682D01*
X519732Y4661644D01*
X495265Y4668200D01*
X469935D01*
X445468Y4661644D01*
X423532Y4648979D01*
X405621Y4631068D01*
X392956Y4609132D01*
X386400Y4584665D01*
Y4559335D01*
X392956Y4534868D01*
X405621Y4512932D01*
X423532Y4495021D01*
X445468Y4482356D01*
X469935Y4475800D01*
X495265D01*
X519732Y4482356D01*
X523131Y4484318D01*
X855659Y4151790D01*
Y3163817D01*
X842489Y3160288D01*
X815011Y3144424D01*
X792576Y3121989D01*
X778394Y3097425D01*
X764710Y3095634D01*
X751401Y3098188D01*
X735745Y3125304D01*
X712304Y3148745D01*
X683596Y3165320D01*
X651575Y3173900D01*
X647700D01*
Y3048000D01*
Y2922100D01*
X651575D01*
X683596Y2930680D01*
X712304Y2947255D01*
X735745Y2970696D01*
X751401Y2997812D01*
X764710Y3000366D01*
X778394Y2998575D01*
X792576Y2974011D01*
X815011Y2951576D01*
X842489Y2935712D01*
X873136Y2927500D01*
X904864D01*
X935511Y2935712D01*
X962989Y2951576D01*
X983400Y2971987D01*
X993864Y2971819D01*
X1010929Y2967386D01*
X1011839Y2963990D01*
X890825Y2842975D01*
X883597Y2832159D01*
X881059Y2819400D01*
Y1877770D01*
X873872Y1875844D01*
X849929Y1862021D01*
X830379Y1842471D01*
X816556Y1818528D01*
X809400Y1791823D01*
Y1764177D01*
X816556Y1737472D01*
X820276Y1731027D01*
X713025Y1623775D01*
X705797Y1612959D01*
X703259Y1600200D01*
Y679201D01*
X705797Y666442D01*
X713025Y655626D01*
X1095974Y272677D01*
X1091900Y257472D01*
Y237330D01*
X1097113Y217873D01*
X1107185Y200429D01*
X1121428Y186186D01*
X1138872Y176114D01*
X1158329Y170901D01*
X1178471D01*
X1197928Y176114D01*
X1215372Y186186D01*
X1229615Y200429D01*
X1239687Y217873D01*
X1244900Y237330D01*
Y257472D01*
X1239687Y276929D01*
X1229615Y294373D01*
X1215372Y308616D01*
X1197928Y318688D01*
X1178471Y323901D01*
X1158329D01*
X1143124Y319827D01*
X769941Y693011D01*
Y1586390D01*
X867427Y1683876D01*
X873872Y1680156D01*
X900577Y1673000D01*
X928223D01*
X954928Y1680156D01*
X978871Y1693979D01*
X998421Y1713529D01*
X1012244Y1737472D01*
X1019400Y1764177D01*
Y1791823D01*
X1012244Y1818528D01*
X998421Y1842471D01*
X978871Y1862021D01*
X954928Y1875844D01*
X947741Y1877770D01*
Y2805590D01*
X1069651Y2927500D01*
X1263500D01*
Y3168500D01*
X1022500D01*
Y3108571D01*
X997100Y3101765D01*
X985424Y3121989D01*
X962989Y3144424D01*
X935511Y3160288D01*
X922341Y3163817D01*
Y4165600D01*
X919803Y4178359D01*
X912575Y4189175D01*
X570282Y4531469D01*
X572244Y4534868D01*
X578800Y4559335D01*
Y4584665D01*
X572244Y4609132D01*
X570282Y4612531D01*
X939774Y4982023D01*
X947001Y4992839D01*
X949539Y5005598D01*
Y5691200D01*
X1016198D01*
Y5891200D01*
D02*
G37*
G36*
X4356065Y4668200D02*
X4330735D01*
X4306268Y4661644D01*
X4284332Y4648979D01*
X4266421Y4631068D01*
X4253756Y4609132D01*
X4247200Y4584665D01*
Y4559335D01*
X4253756Y4534868D01*
X4266421Y4512932D01*
X4284332Y4495021D01*
X4306268Y4482356D01*
X4330735Y4475800D01*
X4356065D01*
X4380532Y4482356D01*
X4402468Y4495021D01*
X4420379Y4512932D01*
X4433044Y4534868D01*
X4439600Y4559335D01*
Y4584665D01*
X4433044Y4609132D01*
X4420379Y4631068D01*
X4402468Y4648979D01*
X4380532Y4661644D01*
X4356065Y4668200D01*
D02*
G37*
G36*
X2806665D02*
X2781335D01*
X2756868Y4661644D01*
X2734932Y4648979D01*
X2717021Y4631068D01*
X2704356Y4609132D01*
X2697800Y4584665D01*
Y4559335D01*
X2704356Y4534868D01*
X2717021Y4512932D01*
X2734932Y4495021D01*
X2756868Y4482356D01*
X2781335Y4475800D01*
X2806665D01*
X2831132Y4482356D01*
X2853068Y4495021D01*
X2870979Y4512932D01*
X2883644Y4534868D01*
X2890200Y4559335D01*
Y4584665D01*
X2883644Y4609132D01*
X2870979Y4631068D01*
X2853068Y4648979D01*
X2831132Y4661644D01*
X2806665Y4668200D01*
D02*
G37*
G36*
X1257265D02*
X1231935D01*
X1207468Y4661644D01*
X1185532Y4648979D01*
X1167621Y4631068D01*
X1154956Y4609132D01*
X1148400Y4584665D01*
Y4559335D01*
X1154956Y4534868D01*
X1167621Y4512932D01*
X1185532Y4495021D01*
X1207468Y4482356D01*
X1231935Y4475800D01*
X1257265D01*
X1281732Y4482356D01*
X1303668Y4495021D01*
X1321579Y4512932D01*
X1334244Y4534868D01*
X1340800Y4559335D01*
Y4584665D01*
X1334244Y4609132D01*
X1321579Y4631068D01*
X1303668Y4648979D01*
X1281732Y4661644D01*
X1257265Y4668200D01*
D02*
G37*
G36*
X6281600Y4641892D02*
X6121600D01*
X6113797Y4640340D01*
X6107181Y4635920D01*
X6102760Y4629304D01*
X6101208Y4621500D01*
Y4376500D01*
X6102760Y4368697D01*
X6107181Y4362081D01*
X6113797Y4357661D01*
X6121600Y4356108D01*
X6281600D01*
X6289404Y4357661D01*
X6297433Y4355225D01*
X6306704Y4332844D01*
X6328920Y4299595D01*
X6357195Y4271320D01*
X6390443Y4249104D01*
X6427387Y4233801D01*
X6466606Y4226000D01*
X6506594D01*
X6545813Y4233801D01*
X6582756Y4249104D01*
X6616005Y4271320D01*
X6644280Y4299595D01*
X6666496Y4332844D01*
X6681799Y4369787D01*
X6689600Y4409006D01*
Y4448994D01*
X6681799Y4488213D01*
X6666496Y4525157D01*
X6644280Y4558405D01*
X6616005Y4586680D01*
X6582756Y4608896D01*
X6545813Y4624199D01*
X6506594Y4632000D01*
X6466606D01*
X6427387Y4624199D01*
X6390443Y4608896D01*
X6357195Y4586680D01*
X6328920Y4558405D01*
X6327392Y4556119D01*
X6301992Y4563824D01*
Y4621500D01*
X6300440Y4629304D01*
X6296020Y4635920D01*
X6289404Y4640340D01*
X6281600Y4641892D01*
D02*
G37*
G36*
X6153100Y4312500D02*
X5956100D01*
Y4115500D01*
X6153100D01*
Y4312500D01*
D02*
G37*
G36*
X6067568Y4012500D02*
X6041632D01*
X6016581Y4005787D01*
X5994120Y3992820D01*
X5975781Y3974480D01*
X5962813Y3952020D01*
X5956100Y3926968D01*
Y3901032D01*
X5962813Y3875981D01*
X5975781Y3853520D01*
X5994120Y3835181D01*
X6016581Y3822213D01*
X6041632Y3815500D01*
X6067568D01*
X6092620Y3822213D01*
X6115080Y3835181D01*
X6133420Y3853520D01*
X6146387Y3875981D01*
X6153100Y3901032D01*
Y3926968D01*
X6146387Y3952020D01*
X6133420Y3974480D01*
X6115080Y3992820D01*
X6092620Y4005787D01*
X6067568Y4012500D01*
D02*
G37*
G36*
X6506594Y3902000D02*
X6466606D01*
X6427387Y3894199D01*
X6390443Y3878896D01*
X6357195Y3856680D01*
X6328920Y3828405D01*
X6306704Y3795156D01*
X6297433Y3772776D01*
X6289404Y3770340D01*
X6281600Y3771892D01*
X6121600D01*
X6113797Y3770340D01*
X6107181Y3765920D01*
X6102760Y3759304D01*
X6101208Y3751500D01*
Y3506500D01*
X6102760Y3498697D01*
X6107181Y3492081D01*
X6113797Y3487661D01*
X6121600Y3486108D01*
X6281600D01*
X6289404Y3487661D01*
X6296020Y3492081D01*
X6300440Y3498697D01*
X6301992Y3506500D01*
Y3564176D01*
X6327392Y3571881D01*
X6328920Y3569595D01*
X6357195Y3541320D01*
X6390443Y3519104D01*
X6427387Y3503801D01*
X6466606Y3496000D01*
X6506594D01*
X6545813Y3503801D01*
X6582756Y3519104D01*
X6616005Y3541320D01*
X6644280Y3569595D01*
X6666496Y3602843D01*
X6681799Y3639787D01*
X6689600Y3679006D01*
Y3718994D01*
X6681799Y3758213D01*
X6666496Y3795156D01*
X6644280Y3828405D01*
X6616005Y3856680D01*
X6582756Y3878896D01*
X6545813Y3894199D01*
X6506594Y3902000D01*
D02*
G37*
G36*
X4356065Y3652200D02*
X4330735D01*
X4306268Y3645644D01*
X4284332Y3632979D01*
X4266421Y3615068D01*
X4253756Y3593132D01*
X4247200Y3568665D01*
Y3543335D01*
X4253756Y3518868D01*
X4266421Y3496932D01*
X4284332Y3479021D01*
X4306268Y3466356D01*
X4330735Y3459800D01*
X4356065D01*
X4380532Y3466356D01*
X4402468Y3479021D01*
X4420379Y3496932D01*
X4433044Y3518868D01*
X4439600Y3543335D01*
Y3568665D01*
X4433044Y3593132D01*
X4420379Y3615068D01*
X4402468Y3632979D01*
X4380532Y3645644D01*
X4356065Y3652200D01*
D02*
G37*
G36*
X3594065D02*
X3568735D01*
X3544268Y3645644D01*
X3522332Y3632979D01*
X3504421Y3615068D01*
X3491756Y3593132D01*
X3485200Y3568665D01*
Y3543335D01*
X3491756Y3518868D01*
X3504421Y3496932D01*
X3522332Y3479021D01*
X3544268Y3466356D01*
X3568735Y3459800D01*
X3594065D01*
X3618532Y3466356D01*
X3640468Y3479021D01*
X3658379Y3496932D01*
X3671044Y3518868D01*
X3677600Y3543335D01*
Y3568665D01*
X3671044Y3593132D01*
X3658379Y3615068D01*
X3640468Y3632979D01*
X3618532Y3645644D01*
X3594065Y3652200D01*
D02*
G37*
G36*
X2806665D02*
X2781335D01*
X2756868Y3645644D01*
X2734932Y3632979D01*
X2717021Y3615068D01*
X2704356Y3593132D01*
X2697800Y3568665D01*
Y3543335D01*
X2704356Y3518868D01*
X2717021Y3496932D01*
X2734932Y3479021D01*
X2756868Y3466356D01*
X2781335Y3459800D01*
X2806665D01*
X2831132Y3466356D01*
X2853068Y3479021D01*
X2870979Y3496932D01*
X2883644Y3518868D01*
X2890200Y3543335D01*
Y3568665D01*
X2883644Y3593132D01*
X2870979Y3615068D01*
X2853068Y3632979D01*
X2831132Y3645644D01*
X2806665Y3652200D01*
D02*
G37*
G36*
X2044665D02*
X2019335D01*
X1994868Y3645644D01*
X1972932Y3632979D01*
X1955021Y3615068D01*
X1942356Y3593132D01*
X1935800Y3568665D01*
Y3543335D01*
X1942356Y3518868D01*
X1955021Y3496932D01*
X1972932Y3479021D01*
X1994868Y3466356D01*
X2019335Y3459800D01*
X2044665D01*
X2069132Y3466356D01*
X2091068Y3479021D01*
X2108979Y3496932D01*
X2121644Y3518868D01*
X2128200Y3543335D01*
Y3568665D01*
X2121644Y3593132D01*
X2108979Y3615068D01*
X2091068Y3632979D01*
X2069132Y3645644D01*
X2044665Y3652200D01*
D02*
G37*
G36*
X1257265D02*
X1231935D01*
X1207468Y3645644D01*
X1185532Y3632979D01*
X1167621Y3615068D01*
X1154956Y3593132D01*
X1148400Y3568665D01*
Y3543335D01*
X1154956Y3518868D01*
X1167621Y3496932D01*
X1185532Y3479021D01*
X1207468Y3466356D01*
X1231935Y3459800D01*
X1257265D01*
X1281732Y3466356D01*
X1303668Y3479021D01*
X1321579Y3496932D01*
X1334244Y3518868D01*
X1340800Y3543335D01*
Y3568665D01*
X1334244Y3593132D01*
X1321579Y3615068D01*
X1303668Y3632979D01*
X1281732Y3645644D01*
X1257265Y3652200D01*
D02*
G37*
G36*
X495265D02*
X469935D01*
X445468Y3645644D01*
X423532Y3632979D01*
X405621Y3615068D01*
X392956Y3593132D01*
X386400Y3568665D01*
Y3543335D01*
X392956Y3518868D01*
X405621Y3496932D01*
X423532Y3479021D01*
X445468Y3466356D01*
X469935Y3459800D01*
X495265D01*
X519732Y3466356D01*
X541668Y3479021D01*
X559579Y3496932D01*
X572244Y3518868D01*
X578800Y3543335D01*
Y3568665D01*
X572244Y3593132D01*
X559579Y3615068D01*
X541668Y3632979D01*
X519732Y3645644D01*
X495265Y3652200D01*
D02*
G37*
G36*
X2438598Y5891200D02*
X2238599D01*
Y5691200D01*
X2438598D01*
Y5757859D01*
X2729390D01*
X2963859Y5523390D01*
Y5156200D01*
X2966397Y5143441D01*
X2973625Y5132625D01*
X3493718Y4612531D01*
X3491756Y4609132D01*
X3485200Y4584665D01*
Y4559335D01*
X3491756Y4534868D01*
X3504421Y4512932D01*
X3522332Y4495021D01*
X3544268Y4482356D01*
X3568735Y4475800D01*
X3594065D01*
X3618532Y4482356D01*
X3621931Y4484318D01*
X3954459Y4151790D01*
Y3163817D01*
X3941289Y3160288D01*
X3913811Y3144424D01*
X3891376Y3121989D01*
X3877194Y3097425D01*
X3863510Y3095634D01*
X3850201Y3098188D01*
X3834545Y3125304D01*
X3811104Y3148745D01*
X3782396Y3165320D01*
X3750375Y3173900D01*
X3746500D01*
Y3048000D01*
Y2922100D01*
X3750375D01*
X3782396Y2930680D01*
X3811104Y2947255D01*
X3834545Y2970696D01*
X3850201Y2997812D01*
X3863510Y3000366D01*
X3877194Y2998575D01*
X3891376Y2974011D01*
X3913811Y2951576D01*
X3941289Y2935712D01*
X3971936Y2927500D01*
X4003664D01*
X4034311Y2935712D01*
X4061789Y2951576D01*
X4084224Y2974011D01*
X4095900Y2994235D01*
X4121300Y2987429D01*
Y2927500D01*
X4315149D01*
X4335459Y2907190D01*
Y1852370D01*
X4328272Y1850444D01*
X4304329Y1836621D01*
X4284779Y1817071D01*
X4270956Y1793128D01*
X4263800Y1766423D01*
Y1738777D01*
X4270956Y1712072D01*
X4284779Y1688129D01*
X4304329Y1668579D01*
X4328272Y1654756D01*
X4354977Y1647600D01*
X4382623D01*
X4409328Y1654756D01*
X4433271Y1668579D01*
X4452821Y1688129D01*
X4466644Y1712072D01*
X4473800Y1738777D01*
Y1766423D01*
X4466644Y1793128D01*
X4452821Y1817071D01*
X4433271Y1836621D01*
X4409328Y1850444D01*
X4402141Y1852370D01*
Y2921000D01*
X4399603Y2933759D01*
X4392375Y2944575D01*
X4362300Y2974651D01*
Y3168500D01*
X4121300D01*
Y3108571D01*
X4095900Y3101765D01*
X4084224Y3121989D01*
X4061789Y3144424D01*
X4034311Y3160288D01*
X4021141Y3163817D01*
Y4165600D01*
X4018603Y4178359D01*
X4011375Y4189175D01*
X3669082Y4531469D01*
X3671044Y4534868D01*
X3677600Y4559335D01*
Y4584665D01*
X3671044Y4609132D01*
X3658379Y4631068D01*
X3640468Y4648979D01*
X3618532Y4661644D01*
X3594065Y4668200D01*
X3568735D01*
X3544268Y4661644D01*
X3540869Y4659682D01*
X3030541Y5170010D01*
Y5537200D01*
X3028003Y5549959D01*
X3020776Y5560775D01*
X2766775Y5814775D01*
X2755959Y5822003D01*
X2743200Y5824541D01*
X2438598D01*
Y5891200D01*
D02*
G37*
G36*
X1676598Y5535600D02*
X1476599D01*
Y5335600D01*
X1543258D01*
Y5027402D01*
X1545796Y5014643D01*
X1553023Y5003826D01*
X1944318Y4612531D01*
X1942356Y4609132D01*
X1935800Y4584665D01*
Y4559335D01*
X1942356Y4534868D01*
X1955021Y4512932D01*
X1972932Y4495021D01*
X1994868Y4482356D01*
X2019335Y4475800D01*
X2044665D01*
X2069132Y4482356D01*
X2072531Y4484318D01*
X2405059Y4151790D01*
Y3163817D01*
X2391889Y3160288D01*
X2364411Y3144424D01*
X2341976Y3121989D01*
X2327794Y3097425D01*
X2314110Y3095634D01*
X2300801Y3098188D01*
X2285145Y3125304D01*
X2261704Y3148745D01*
X2232996Y3165320D01*
X2200975Y3173900D01*
X2197100D01*
Y3048000D01*
Y2922100D01*
X2200975D01*
X2232996Y2930680D01*
X2261704Y2947255D01*
X2285145Y2970696D01*
X2300801Y2997812D01*
X2314110Y3000366D01*
X2327794Y2998575D01*
X2341976Y2974011D01*
X2364411Y2951576D01*
X2391889Y2935712D01*
X2422536Y2927500D01*
X2454264D01*
X2484911Y2935712D01*
X2512389Y2951576D01*
X2534824Y2974011D01*
X2546500Y2994235D01*
X2571900Y2987429D01*
Y2927500D01*
X2659058D01*
Y1852370D01*
X2651870Y1850444D01*
X2627928Y1836621D01*
X2608378Y1817071D01*
X2594555Y1793128D01*
X2587399Y1766423D01*
Y1738777D01*
X2594555Y1712072D01*
X2608378Y1688129D01*
X2627928Y1668579D01*
X2651870Y1654756D01*
X2659059Y1652830D01*
Y1110485D01*
X2645428Y1102615D01*
X2631185Y1088372D01*
X2621113Y1070928D01*
X2615900Y1051471D01*
Y1031329D01*
X2621113Y1011872D01*
X2631185Y994428D01*
X2645428Y980185D01*
X2662872Y970113D01*
X2682329Y964900D01*
X2702471D01*
X2721928Y970113D01*
X2739372Y980185D01*
X2753615Y994428D01*
X2763687Y1011872D01*
X2768900Y1031329D01*
Y1051471D01*
X2763687Y1070928D01*
X2753615Y1088372D01*
X2739372Y1102615D01*
X2725740Y1110486D01*
Y1652830D01*
X2732927Y1654756D01*
X2756870Y1668579D01*
X2776420Y1688129D01*
X2790243Y1712072D01*
X2797399Y1738777D01*
Y1766423D01*
X2790243Y1793128D01*
X2776420Y1817071D01*
X2756870Y1836621D01*
X2732927Y1850444D01*
X2725740Y1852370D01*
Y2927500D01*
X2812900D01*
Y3168500D01*
X2571900D01*
Y3108571D01*
X2546500Y3101765D01*
X2534824Y3121989D01*
X2512389Y3144424D01*
X2484911Y3160288D01*
X2471741Y3163817D01*
Y4165600D01*
X2469203Y4178359D01*
X2461975Y4189175D01*
X2119682Y4531469D01*
X2121644Y4534868D01*
X2128200Y4559335D01*
Y4584665D01*
X2121644Y4609132D01*
X2108979Y4631068D01*
X2091068Y4648979D01*
X2069132Y4661644D01*
X2044665Y4668200D01*
X2019335D01*
X1994868Y4661644D01*
X1991469Y4659682D01*
X1609939Y5041212D01*
Y5335600D01*
X1676598D01*
Y5535600D01*
D02*
G37*
G36*
X2171700Y3173900D02*
X2167825D01*
X2135804Y3165320D01*
X2107096Y3148745D01*
X2083655Y3125304D01*
X2067080Y3096596D01*
X2058500Y3064575D01*
Y3060700D01*
X2171700D01*
Y3173900D01*
D02*
G37*
G36*
X3721100D02*
X3717225D01*
X3685204Y3165320D01*
X3656496Y3148745D01*
X3633055Y3125304D01*
X3616480Y3096596D01*
X3607900Y3064575D01*
Y3060700D01*
X3721100D01*
Y3173900D01*
D02*
G37*
G36*
X622300D02*
X618425D01*
X586404Y3165320D01*
X557696Y3148745D01*
X534255Y3125304D01*
X517680Y3096596D01*
X509100Y3064575D01*
Y3060700D01*
X622300D01*
Y3173900D01*
D02*
G37*
G36*
X3721100Y3035300D02*
X3607900D01*
Y3031425D01*
X3616480Y2999404D01*
X3633055Y2970696D01*
X3656496Y2947255D01*
X3685204Y2930680D01*
X3717225Y2922100D01*
X3721100D01*
Y3035300D01*
D02*
G37*
G36*
X2171700D02*
X2058500D01*
Y3031425D01*
X2067080Y2999404D01*
X2083655Y2970696D01*
X2107096Y2947255D01*
X2135804Y2930680D01*
X2167825Y2922100D01*
X2171700D01*
Y3035300D01*
D02*
G37*
G36*
X622300D02*
X509100D01*
Y3031425D01*
X517680Y2999404D01*
X534255Y2970696D01*
X557696Y2947255D01*
X586404Y2930680D01*
X618425Y2922100D01*
X622300D01*
Y3035300D01*
D02*
G37*
G36*
X6133100Y2885900D02*
X6041900D01*
Y2794700D01*
X6133100D01*
Y2885900D01*
D02*
G37*
G36*
X6016500D02*
X5925300D01*
Y2794700D01*
X6016500D01*
Y2885900D01*
D02*
G37*
G36*
X6256200Y3209392D02*
X6096200D01*
X6088396Y3207839D01*
X6081780Y3203419D01*
X6077360Y3196803D01*
X6075808Y3189000D01*
Y2944000D01*
X6077360Y2936196D01*
X6081780Y2929580D01*
X6088396Y2925160D01*
X6096200Y2923608D01*
X6256200D01*
X6264003Y2925160D01*
X6272270Y2922652D01*
X6281304Y2900844D01*
X6303520Y2867595D01*
X6331795Y2839320D01*
X6365043Y2817104D01*
X6401987Y2801801D01*
X6441206Y2794000D01*
X6481194D01*
X6520413Y2801801D01*
X6557356Y2817104D01*
X6590605Y2839320D01*
X6618880Y2867595D01*
X6641096Y2900844D01*
X6656399Y2937787D01*
X6664200Y2977006D01*
Y3016994D01*
X6656399Y3056213D01*
X6641096Y3093157D01*
X6618880Y3126405D01*
X6590605Y3154680D01*
X6557356Y3176896D01*
X6520413Y3192199D01*
X6481194Y3200000D01*
X6441206D01*
X6401987Y3192199D01*
X6365043Y3176896D01*
X6331795Y3154680D01*
X6303520Y3126405D01*
X6301992Y3124118D01*
X6276592Y3131823D01*
Y3189000D01*
X6275040Y3196803D01*
X6270619Y3203419D01*
X6264003Y3207839D01*
X6256200Y3209392D01*
D02*
G37*
G36*
X6133100Y2769300D02*
X6041900D01*
Y2678100D01*
X6133100D01*
Y2769300D01*
D02*
G37*
G36*
X6016500D02*
X5925300D01*
Y2678100D01*
X6016500D01*
Y2769300D01*
D02*
G37*
G36*
X6042168Y2580500D02*
X6016232D01*
X5991181Y2573787D01*
X5968720Y2560820D01*
X5950381Y2542481D01*
X5937413Y2520020D01*
X5930700Y2494968D01*
Y2469032D01*
X5937413Y2443981D01*
X5950381Y2421520D01*
X5968720Y2403181D01*
X5991181Y2390213D01*
X6016232Y2383500D01*
X6042168D01*
X6067220Y2390213D01*
X6089680Y2403181D01*
X6108020Y2421520D01*
X6120987Y2443981D01*
X6127700Y2469032D01*
Y2494968D01*
X6120987Y2520020D01*
X6108020Y2542481D01*
X6089680Y2560820D01*
X6067220Y2573787D01*
X6042168Y2580500D01*
D02*
G37*
G36*
X3703318Y2398900D02*
X3680279D01*
X3658025Y2392937D01*
X3638072Y2381417D01*
X3621781Y2365126D01*
X3610262Y2345174D01*
X3604299Y2322920D01*
Y2299880D01*
X3610262Y2277626D01*
X3621781Y2257674D01*
X3638072Y2241383D01*
X3658025Y2229863D01*
X3680279Y2223900D01*
X3703318D01*
X3725572Y2229863D01*
X3745525Y2241383D01*
X3761816Y2257674D01*
X3773336Y2277626D01*
X3779299Y2299880D01*
Y2322920D01*
X3773336Y2345174D01*
X3761816Y2365126D01*
X3745525Y2381417D01*
X3725572Y2392937D01*
X3703318Y2398900D01*
D02*
G37*
G36*
X2001520D02*
X1978480D01*
X1956226Y2392937D01*
X1936274Y2381417D01*
X1919983Y2365126D01*
X1908463Y2345174D01*
X1902500Y2322920D01*
Y2299880D01*
X1908463Y2277626D01*
X1919983Y2257674D01*
X1936274Y2241383D01*
X1956226Y2229863D01*
X1978480Y2223900D01*
X2001520D01*
X2023774Y2229863D01*
X2043726Y2241383D01*
X2060017Y2257674D01*
X2071537Y2277626D01*
X2077500Y2299880D01*
Y2322920D01*
X2071537Y2345174D01*
X2060017Y2365126D01*
X2043726Y2381417D01*
X2023774Y2392937D01*
X2001520Y2398900D01*
D02*
G37*
G36*
X248918D02*
X225879D01*
X203625Y2392937D01*
X183672Y2381417D01*
X167381Y2365126D01*
X155862Y2345174D01*
X149899Y2322920D01*
Y2299880D01*
X155862Y2277626D01*
X167381Y2257674D01*
X183672Y2241383D01*
X203625Y2229863D01*
X225879Y2223900D01*
X248918D01*
X271172Y2229863D01*
X291125Y2241383D01*
X307416Y2257674D01*
X318936Y2277626D01*
X324899Y2299880D01*
Y2322920D01*
X318936Y2345174D01*
X307416Y2365126D01*
X291125Y2381417D01*
X271172Y2392937D01*
X248918Y2398900D01*
D02*
G37*
G36*
X6042168Y2280500D02*
X6016232D01*
X5991181Y2273787D01*
X5968720Y2260819D01*
X5950381Y2242480D01*
X5937413Y2220019D01*
X5930700Y2194968D01*
Y2169032D01*
X5937413Y2143980D01*
X5950381Y2121520D01*
X5968720Y2103180D01*
X5991181Y2090213D01*
X6016232Y2083500D01*
X6042168D01*
X6067220Y2090213D01*
X6089680Y2103180D01*
X6108020Y2121520D01*
X6120987Y2143980D01*
X6127700Y2169032D01*
Y2194968D01*
X6120987Y2220019D01*
X6108020Y2242480D01*
X6089680Y2260819D01*
X6067220Y2273787D01*
X6042168Y2280500D01*
D02*
G37*
G36*
Y1980500D02*
X6016232D01*
X5991181Y1973787D01*
X5968720Y1960820D01*
X5950381Y1942480D01*
X5937413Y1920020D01*
X5930700Y1894968D01*
Y1869032D01*
X5937413Y1843981D01*
X5950381Y1821520D01*
X5968720Y1803181D01*
X5991181Y1790213D01*
X6016232Y1783500D01*
X6042168D01*
X6067220Y1790213D01*
X6089680Y1803181D01*
X6108020Y1821520D01*
X6120987Y1843981D01*
X6127700Y1869032D01*
Y1894968D01*
X6120987Y1920020D01*
X6108020Y1942480D01*
X6089680Y1960820D01*
X6067220Y1973787D01*
X6042168Y1980500D01*
D02*
G37*
G36*
X1424901Y2398900D02*
X1249901D01*
Y2271051D01*
X1144825Y2165974D01*
X1137597Y2155157D01*
X1135059Y2142399D01*
Y1883000D01*
X1063400D01*
Y1673000D01*
X1273400D01*
Y1883000D01*
X1201741D01*
Y2128589D01*
X1297052Y2223900D01*
X1424901D01*
Y2398900D01*
D02*
G37*
G36*
X4879301D02*
X4704301D01*
Y2271051D01*
X4599225Y2165974D01*
X4591997Y2155157D01*
X4589459Y2142399D01*
Y1857600D01*
X4517800D01*
Y1647600D01*
X4727800D01*
Y1857600D01*
X4656141D01*
Y2128589D01*
X4751452Y2223900D01*
X4879301D01*
Y2398900D01*
D02*
G37*
G36*
X3177498D02*
X3002498D01*
Y2271051D01*
X2922824Y2191376D01*
X2915596Y2180560D01*
X2913058Y2167801D01*
Y1857600D01*
X2841399D01*
Y1647600D01*
X3051399D01*
Y1857600D01*
X2979740D01*
Y2153991D01*
X3049649Y2223900D01*
X3177498D01*
Y2398900D01*
D02*
G37*
G36*
X6042168Y1680500D02*
X6016232D01*
X5991181Y1673787D01*
X5968720Y1660819D01*
X5950381Y1642480D01*
X5937413Y1620019D01*
X5930700Y1594968D01*
Y1569032D01*
X5937413Y1543980D01*
X5950381Y1521519D01*
X5968720Y1503180D01*
X5991181Y1490213D01*
X6016232Y1483500D01*
X6042168D01*
X6067220Y1490213D01*
X6089680Y1503180D01*
X6108020Y1521519D01*
X6120987Y1543980D01*
X6127700Y1569032D01*
Y1594968D01*
X6120987Y1620019D01*
X6108020Y1642480D01*
X6089680Y1660819D01*
X6067220Y1673787D01*
X6042168Y1680500D01*
D02*
G37*
G36*
X4965700Y1406374D02*
Y1326300D01*
X5045774D01*
X5039569Y1349458D01*
X5027338Y1370642D01*
X5010042Y1387939D01*
X4988858Y1400169D01*
X4965700Y1406374D01*
D02*
G37*
G36*
X4940300D02*
X4917142Y1400169D01*
X4895958Y1387939D01*
X4878662Y1370642D01*
X4866431Y1349458D01*
X4860226Y1326300D01*
X4940300D01*
Y1406374D01*
D02*
G37*
G36*
X3338700Y1477300D02*
X3163700D01*
Y1302300D01*
X3338700D01*
Y1477300D01*
D02*
G37*
G36*
X5045774Y1300900D02*
X4965700D01*
Y1220826D01*
X4988858Y1227031D01*
X5010042Y1239262D01*
X5027338Y1256558D01*
X5039569Y1277742D01*
X5045774Y1300900D01*
D02*
G37*
G36*
X4940300D02*
X4860226D01*
X4866431Y1277742D01*
X4878662Y1256558D01*
X4895958Y1239262D01*
X4917142Y1227031D01*
X4940300Y1220826D01*
Y1300900D01*
D02*
G37*
G36*
X6042168Y1380500D02*
X6016232D01*
X5991181Y1373787D01*
X5968720Y1360819D01*
X5950381Y1342480D01*
X5937413Y1320019D01*
X5930700Y1294968D01*
Y1269032D01*
X5937413Y1243980D01*
X5939835Y1239785D01*
X5146990Y446940D01*
X5040500D01*
Y501100D01*
X4865500D01*
Y446940D01*
X4235300D01*
Y526900D01*
X4175371D01*
X4168565Y552300D01*
X4188789Y563976D01*
X4211224Y586411D01*
X4227088Y613889D01*
X4235300Y644536D01*
Y676264D01*
X4227088Y706911D01*
X4211224Y734389D01*
X4188789Y756824D01*
X4164225Y771006D01*
X4162434Y784690D01*
X4164988Y797999D01*
X4192104Y813655D01*
X4215545Y837096D01*
X4232120Y865804D01*
X4240700Y897825D01*
Y901700D01*
X4114800D01*
X3988900D01*
Y897825D01*
X3997480Y865804D01*
X4014055Y837096D01*
X4037496Y813655D01*
X4064612Y797999D01*
X4067166Y784690D01*
X4065375Y771006D01*
X4040811Y756824D01*
X4018376Y734389D01*
X4002512Y706911D01*
X3998983Y693741D01*
X3683000D01*
X3670241Y691203D01*
X3659425Y683975D01*
X3498590Y523140D01*
X3332853D01*
X3332737Y523574D01*
X3321217Y543526D01*
X3304926Y559817D01*
X3284974Y571337D01*
X3262720Y577300D01*
X3239680D01*
X3217426Y571337D01*
X3197474Y559817D01*
X3181183Y543526D01*
X3169663Y523574D01*
X3169547Y523140D01*
X1987810D01*
X1494826Y1016124D01*
X1498900Y1031329D01*
Y1051471D01*
X1493687Y1070928D01*
X1483615Y1088372D01*
X1469372Y1102615D01*
X1451928Y1112687D01*
X1432471Y1117900D01*
X1412329D01*
X1392872Y1112687D01*
X1375428Y1102615D01*
X1361185Y1088372D01*
X1351113Y1070928D01*
X1345900Y1051471D01*
Y1031329D01*
X1351113Y1011872D01*
X1361185Y994428D01*
X1375428Y980185D01*
X1392872Y970113D01*
X1412329Y964900D01*
X1432471D01*
X1447676Y968974D01*
X1950425Y466224D01*
X1961241Y458997D01*
X1974000Y456459D01*
X3169547D01*
X3169663Y456026D01*
X3181183Y436074D01*
X3197474Y419782D01*
X3217426Y408263D01*
X3239680Y402300D01*
X3262720D01*
X3284974Y408263D01*
X3304926Y419782D01*
X3321217Y436074D01*
X3332737Y456026D01*
X3332853Y456459D01*
X3512400D01*
X3525159Y458997D01*
X3535975Y466225D01*
X3696810Y627059D01*
X3998983D01*
X4002512Y613889D01*
X4018376Y586411D01*
X4040811Y563976D01*
X4061035Y552300D01*
X4054229Y526900D01*
X3994300D01*
Y285900D01*
X4235300D01*
Y380259D01*
X4865500D01*
Y326100D01*
X5040500D01*
Y380259D01*
X5160800D01*
X5173559Y382797D01*
X5184375Y390025D01*
X5986985Y1192635D01*
X5991181Y1190213D01*
X6016232Y1183500D01*
X6042168D01*
X6067220Y1190213D01*
X6089680Y1203180D01*
X6108020Y1221520D01*
X6120987Y1243980D01*
X6127700Y1269032D01*
Y1294968D01*
X6120987Y1320019D01*
X6108020Y1342480D01*
X6089680Y1360819D01*
X6067220Y1373787D01*
X6042168Y1380500D01*
D02*
G37*
G36*
X6481194Y1270000D02*
X6441206D01*
X6401987Y1262199D01*
X6365043Y1246896D01*
X6331795Y1224680D01*
X6303520Y1196405D01*
X6281304Y1163156D01*
X6272270Y1141348D01*
X6264004Y1138840D01*
X6256201Y1140393D01*
X6096201D01*
X6088397Y1138840D01*
X6081781Y1134420D01*
X6077361Y1127804D01*
X6075809Y1120001D01*
Y875001D01*
X6077361Y867197D01*
X6081781Y860581D01*
X6088397Y856161D01*
X6096201Y854609D01*
X6256201D01*
X6264004Y856161D01*
X6270620Y860581D01*
X6275041Y867197D01*
X6276593Y875001D01*
Y932175D01*
X6301993Y939880D01*
X6303520Y937595D01*
X6331795Y909320D01*
X6365043Y887104D01*
X6401987Y871801D01*
X6441206Y864000D01*
X6481194D01*
X6520413Y871801D01*
X6557356Y887104D01*
X6590605Y909320D01*
X6618880Y937595D01*
X6641096Y970843D01*
X6656399Y1007787D01*
X6664200Y1047006D01*
Y1086994D01*
X6656399Y1126213D01*
X6641096Y1163156D01*
X6618880Y1196405D01*
X6590605Y1224680D01*
X6557356Y1246896D01*
X6520413Y1262199D01*
X6481194Y1270000D01*
D02*
G37*
G36*
X927100Y1122786D02*
Y1054100D01*
X995786D01*
X990719Y1073012D01*
X979936Y1091688D01*
X964688Y1106936D01*
X946012Y1117719D01*
X927100Y1122786D01*
D02*
G37*
G36*
X901700D02*
X882788Y1117719D01*
X864112Y1106936D01*
X848864Y1091688D01*
X838081Y1073012D01*
X833014Y1054100D01*
X901700D01*
Y1122786D01*
D02*
G37*
G36*
X2448471Y1117900D02*
X2428329D01*
X2408872Y1112687D01*
X2391428Y1102615D01*
X2377185Y1088372D01*
X2367113Y1070928D01*
X2361900Y1051471D01*
Y1031329D01*
X2367113Y1011872D01*
X2377185Y994428D01*
X2391428Y980185D01*
X2408872Y970113D01*
X2428329Y964900D01*
X2448471D01*
X2467928Y970113D01*
X2485372Y980185D01*
X2499615Y994428D01*
X2509687Y1011872D01*
X2514900Y1031329D01*
Y1051471D01*
X2509687Y1070928D01*
X2499615Y1088372D01*
X2485372Y1102615D01*
X2467928Y1112687D01*
X2448471Y1117900D01*
D02*
G37*
G36*
X2194471D02*
X2174329D01*
X2154872Y1112687D01*
X2137428Y1102615D01*
X2123185Y1088372D01*
X2113113Y1070928D01*
X2107900Y1051471D01*
Y1031329D01*
X2113113Y1011872D01*
X2123185Y994428D01*
X2137428Y980185D01*
X2154872Y970113D01*
X2174329Y964900D01*
X2194471D01*
X2213928Y970113D01*
X2231372Y980185D01*
X2245615Y994428D01*
X2255687Y1011872D01*
X2260900Y1031329D01*
Y1051471D01*
X2255687Y1070928D01*
X2245615Y1088372D01*
X2231372Y1102615D01*
X2213928Y1112687D01*
X2194471Y1117900D01*
D02*
G37*
G36*
X1940471D02*
X1920329D01*
X1900872Y1112687D01*
X1883428Y1102615D01*
X1869185Y1088372D01*
X1859113Y1070928D01*
X1853900Y1051471D01*
Y1031329D01*
X1859113Y1011872D01*
X1869185Y994428D01*
X1883428Y980185D01*
X1900872Y970113D01*
X1920329Y964900D01*
X1940471D01*
X1959928Y970113D01*
X1977372Y980185D01*
X1991615Y994428D01*
X2001687Y1011872D01*
X2006900Y1031329D01*
Y1051471D01*
X2001687Y1070928D01*
X1991615Y1088372D01*
X1977372Y1102615D01*
X1959928Y1112687D01*
X1940471Y1117900D01*
D02*
G37*
G36*
X1686471D02*
X1666329D01*
X1646872Y1112687D01*
X1629428Y1102615D01*
X1615185Y1088372D01*
X1605113Y1070928D01*
X1599900Y1051471D01*
Y1031329D01*
X1605113Y1011872D01*
X1615185Y994428D01*
X1629428Y980185D01*
X1646872Y970113D01*
X1666329Y964900D01*
X1686471D01*
X1705928Y970113D01*
X1723372Y980185D01*
X1737615Y994428D01*
X1747687Y1011872D01*
X1752900Y1031329D01*
Y1051471D01*
X1747687Y1070928D01*
X1737615Y1088372D01*
X1723372Y1102615D01*
X1705928Y1112687D01*
X1686471Y1117900D01*
D02*
G37*
G36*
X995786Y1028700D02*
X927100D01*
Y960014D01*
X946012Y965081D01*
X964688Y975864D01*
X979936Y991112D01*
X990719Y1009788D01*
X995786Y1028700D01*
D02*
G37*
G36*
X901700D02*
X833014D01*
X838081Y1009788D01*
X848864Y991112D01*
X864112Y975864D01*
X882788Y965081D01*
X901700Y960014D01*
Y1028700D01*
D02*
G37*
G36*
X4131375Y1040300D02*
X4127500D01*
Y927100D01*
X4240700D01*
Y930975D01*
X4232120Y962996D01*
X4215545Y991704D01*
X4192104Y1015145D01*
X4163396Y1031720D01*
X4131375Y1040300D01*
D02*
G37*
G36*
X4102100D02*
X4098225D01*
X4066204Y1031720D01*
X4037496Y1015145D01*
X4014055Y991704D01*
X3997480Y962996D01*
X3988900Y930975D01*
Y927100D01*
X4102100D01*
Y1040300D01*
D02*
G37*
G36*
X1943100Y328787D02*
Y260101D01*
X2011786D01*
X2006719Y279013D01*
X1995936Y297689D01*
X1980688Y312937D01*
X1962012Y323720D01*
X1943100Y328787D01*
D02*
G37*
G36*
X1917700D02*
X1898788Y323720D01*
X1880112Y312937D01*
X1864864Y297689D01*
X1854081Y279013D01*
X1849014Y260101D01*
X1917700D01*
Y328787D01*
D02*
G37*
G36*
X6666743Y520002D02*
X6633256D01*
X6600412Y513469D01*
X6569474Y500654D01*
X6541631Y482049D01*
X6517952Y458370D01*
X6499347Y430527D01*
X6486533Y399589D01*
X6479999Y366745D01*
Y333258D01*
X6486533Y300415D01*
X6499347Y269477D01*
X6517952Y241633D01*
X6541631Y217954D01*
X6569474Y199350D01*
X6600412Y186535D01*
X6633256Y180002D01*
X6666743D01*
X6699587Y186535D01*
X6730525Y199350D01*
X6758368Y217954D01*
X6782047Y241633D01*
X6800651Y269477D01*
X6813466Y300415D01*
X6819999Y333258D01*
Y366745D01*
X6813466Y399589D01*
X6800651Y430527D01*
X6782047Y458370D01*
X6758368Y482049D01*
X6730525Y500654D01*
X6699587Y513469D01*
X6666743Y520002D01*
D02*
G37*
G36*
X366745D02*
X333258D01*
X300415Y513469D01*
X269477Y500654D01*
X241633Y482049D01*
X217954Y458370D01*
X199350Y430527D01*
X186535Y399589D01*
X180002Y366745D01*
Y333258D01*
X186535Y300415D01*
X199350Y269477D01*
X217954Y241633D01*
X241633Y217954D01*
X269477Y199350D01*
X300415Y186535D01*
X333258Y180002D01*
X366745D01*
X399589Y186535D01*
X430527Y199350D01*
X458370Y217954D01*
X482049Y241633D01*
X500654Y269477D01*
X513469Y300415D01*
X520002Y333258D01*
Y366745D01*
X513469Y399589D01*
X500654Y430527D01*
X482049Y458370D01*
X458370Y482049D01*
X430527Y500654D01*
X399589Y513469D01*
X366745Y520002D01*
D02*
G37*
G36*
X2702471Y323901D02*
X2682329D01*
X2662872Y318688D01*
X2645428Y308616D01*
X2631185Y294373D01*
X2621113Y276929D01*
X2615900Y257472D01*
Y237330D01*
X2621113Y217873D01*
X2631185Y200429D01*
X2645428Y186186D01*
X2662872Y176114D01*
X2682329Y170901D01*
X2702471D01*
X2721928Y176114D01*
X2739372Y186186D01*
X2753615Y200429D01*
X2763687Y217873D01*
X2768900Y237330D01*
Y257472D01*
X2763687Y276929D01*
X2753615Y294373D01*
X2739372Y308616D01*
X2721928Y318688D01*
X2702471Y323901D01*
D02*
G37*
G36*
X1178471Y1117900D02*
X1158329D01*
X1138872Y1112687D01*
X1121428Y1102615D01*
X1107185Y1088372D01*
X1097113Y1070928D01*
X1091900Y1051471D01*
Y1031329D01*
X1097113Y1011872D01*
X1107185Y994428D01*
X1121428Y980185D01*
X1135059Y972315D01*
Y501401D01*
X1137597Y488642D01*
X1144825Y477826D01*
X1349974Y272676D01*
X1345900Y257472D01*
Y237330D01*
X1351113Y217873D01*
X1361185Y200429D01*
X1375428Y186186D01*
X1392872Y176114D01*
X1412329Y170901D01*
X1432471D01*
X1447676Y174975D01*
X1519226Y103424D01*
X1530042Y96197D01*
X1542801Y93659D01*
X2317999D01*
X2330758Y96197D01*
X2341574Y103425D01*
X2413124Y174975D01*
X2428329Y170901D01*
X2448471D01*
X2467928Y176114D01*
X2485372Y186186D01*
X2499615Y200429D01*
X2509687Y217873D01*
X2514900Y237330D01*
Y257472D01*
X2509687Y276929D01*
X2499615Y294373D01*
X2485372Y308616D01*
X2467928Y318688D01*
X2448471Y323901D01*
X2428329D01*
X2408872Y318688D01*
X2391428Y308616D01*
X2377185Y294373D01*
X2367113Y276929D01*
X2361900Y257472D01*
Y237330D01*
X2365974Y222126D01*
X2304189Y160341D01*
X2237407D01*
X2230601Y185741D01*
X2231372Y186186D01*
X2245615Y200429D01*
X2255687Y217873D01*
X2260900Y237330D01*
Y257472D01*
X2255687Y276929D01*
X2245615Y294373D01*
X2231372Y308616D01*
X2213928Y318688D01*
X2194471Y323901D01*
X2174329D01*
X2154872Y318688D01*
X2137428Y308616D01*
X2123185Y294373D01*
X2113113Y276929D01*
X2107900Y257472D01*
Y237330D01*
X2113113Y217873D01*
X2123185Y200429D01*
X2137428Y186186D01*
X2138199Y185741D01*
X2131393Y160341D01*
X1993751D01*
X1988000Y169816D01*
X1984563Y185741D01*
X1995936Y197113D01*
X2006719Y215789D01*
X2011786Y234701D01*
X1930400D01*
X1849014D01*
X1854081Y215789D01*
X1864864Y197113D01*
X1876237Y185741D01*
X1872800Y169816D01*
X1867049Y160341D01*
X1729407D01*
X1722601Y185741D01*
X1723372Y186186D01*
X1737615Y200429D01*
X1747687Y217873D01*
X1752900Y237330D01*
Y257472D01*
X1747687Y276929D01*
X1737615Y294373D01*
X1723372Y308616D01*
X1705928Y318688D01*
X1686471Y323901D01*
X1666329D01*
X1646872Y318688D01*
X1629428Y308616D01*
X1615185Y294373D01*
X1605113Y276929D01*
X1599900Y257472D01*
Y237330D01*
X1605113Y217873D01*
X1615185Y200429D01*
X1629428Y186186D01*
X1630199Y185741D01*
X1623393Y160341D01*
X1556611D01*
X1494826Y222126D01*
X1498900Y237330D01*
Y257472D01*
X1493687Y276929D01*
X1483615Y294373D01*
X1469372Y308616D01*
X1451928Y318688D01*
X1432471Y323901D01*
X1412329D01*
X1397125Y319827D01*
X1201741Y515211D01*
Y972315D01*
X1215372Y980185D01*
X1229615Y994428D01*
X1239687Y1011872D01*
X1244900Y1031329D01*
Y1051471D01*
X1239687Y1070928D01*
X1229615Y1088372D01*
X1215372Y1102615D01*
X1197928Y1112687D01*
X1178471Y1117900D01*
D02*
G37*
G36*
X990900Y323901D02*
X837900D01*
Y170901D01*
X990900D01*
Y323901D01*
D02*
G37*
%LPD*%
D10*
X2338598Y5791200D02*
X2743200D01*
X2997200Y5537200D01*
Y5156200D02*
Y5537200D01*
Y5156200D02*
X3581400Y4572000D01*
X916198Y5005598D02*
Y5791200D01*
X1576598Y5027402D02*
X2032000Y4572000D01*
X1576598Y5027402D02*
Y5435600D01*
X3251200Y489800D02*
X3512400D01*
X3683000Y660400D02*
X4114800D01*
X3512400Y489800D02*
X3683000Y660400D01*
X1974000Y489800D02*
X3251200D01*
X1422400Y1041400D02*
X1974000Y489800D01*
X4114800Y406400D02*
X4122000Y413600D01*
X4953000D01*
X5160800D02*
X6029200Y1282000D01*
X4953000Y413600D02*
X5160800D01*
X2317999Y127000D02*
X2438400Y247401D01*
X1542801Y127000D02*
X2317999D01*
X1422400Y247401D02*
X1542801Y127000D01*
X2692399Y1041401D02*
X2692400Y1041400D01*
X2692399Y1041401D02*
Y1752599D01*
X2692399Y1752600D02*
X2692399Y1752599D01*
X736600Y1600200D02*
X914400Y1778000D01*
X736600Y679201D02*
Y1600200D01*
Y679201D02*
X1168400Y247401D01*
Y501401D02*
X1422400Y247401D01*
X1168400Y501401D02*
Y1041400D01*
X4241800Y3048000D02*
X4368800Y2921000D01*
Y1752600D02*
Y2921000D01*
X2946399Y2167801D02*
X3089998Y2311400D01*
X2946399Y1752600D02*
Y2167801D01*
X2692399Y1752600D02*
Y3047999D01*
X2692400Y3048000D01*
X914400Y2819400D02*
X1143000Y3048000D01*
X914400Y1778000D02*
Y2819400D01*
X1168400Y1778000D02*
Y2142399D01*
X1337401Y2311400D01*
X4622800Y1752600D02*
Y2142399D01*
X4791801Y2311400D01*
X3581400Y4572000D02*
X3987800Y4165600D01*
Y3048000D02*
Y4165600D01*
X2438400Y3048000D02*
Y4165600D01*
X2032000Y4572000D02*
X2438400Y4165600D01*
X482600Y4572000D02*
X916198Y5005598D01*
X482600Y4572000D02*
X889000Y4165600D01*
Y3048000D02*
Y4165600D01*
D12*
X2690602Y5435600D02*
D03*
X2030202Y5791200D02*
D03*
X3452602D02*
D03*
D13*
X1576598Y5435600D02*
D03*
X916198Y5791200D02*
D03*
X2338598D02*
D03*
D14*
X6054600Y3914000D02*
D03*
X6029200Y1282000D02*
D03*
Y1582000D02*
D03*
Y1882000D02*
D03*
Y2182000D02*
D03*
Y2482000D02*
D03*
D15*
X6054600Y4214000D02*
D03*
X6029200Y2782000D02*
D03*
D16*
X6486600Y4429000D02*
D03*
Y3699000D02*
D03*
X6461200Y2997000D02*
D03*
Y1067000D02*
D03*
D17*
X4791801Y2311400D02*
D03*
X3089998D02*
D03*
X1337401D02*
D03*
D18*
X3691799D02*
D03*
X1990000D02*
D03*
X237399D02*
D03*
X3251200Y489800D02*
D03*
X4953000Y1313600D02*
D03*
D19*
X2794000Y4826000D02*
D03*
Y4572000D02*
D03*
Y3556000D02*
D03*
X2032000D02*
D03*
Y4572000D02*
D03*
Y4826000D02*
D03*
X4343400D02*
D03*
Y4572000D02*
D03*
Y3556000D02*
D03*
X3581400D02*
D03*
Y4572000D02*
D03*
Y4826000D02*
D03*
X1244600D02*
D03*
Y4572000D02*
D03*
Y3556000D02*
D03*
X482600D02*
D03*
Y4572000D02*
D03*
Y4826000D02*
D03*
D20*
X4622800Y1752600D02*
D03*
X1168400Y1778000D02*
D03*
X2946399Y1752600D02*
D03*
D21*
X4368800D02*
D03*
X914400Y1778000D02*
D03*
X2692399Y1752600D02*
D03*
D22*
X3251200Y1389800D02*
D03*
X4953000Y413600D02*
D03*
D23*
X4114800Y914400D02*
D03*
Y660400D02*
D03*
X3733800Y3048000D02*
D03*
X3987800D02*
D03*
X635000D02*
D03*
X889000D02*
D03*
X2184400D02*
D03*
X2438400D02*
D03*
D24*
X4114800Y406400D02*
D03*
D25*
X4241800Y3048000D02*
D03*
X1143000D02*
D03*
X2692400D02*
D03*
D26*
X914400Y1041400D02*
D03*
X1168400D02*
D03*
X1422400D02*
D03*
X1676400D02*
D03*
X1930400D02*
D03*
X2184400D02*
D03*
X2438400D02*
D03*
X2692400D02*
D03*
Y247401D02*
D03*
X2438400D02*
D03*
X2184400D02*
D03*
X1930400D02*
D03*
X1676400D02*
D03*
X1422400D02*
D03*
X1168400D02*
D03*
D27*
X914400D02*
D03*
%TF.MD5,537f799c9cb41e7d03e6a19059cdab50*%
M02*
