%TF.GenerationSoftware,Altium Limited,Altium Designer,25.1.2 (22)*%
G04 Layer_Color=8388736*
%FSLAX45Y45*%
%MOMM*%
%TF.SameCoordinates,40A9CBEC-A2F6-451D-B56F-574927FC8DEB*%
%TF.FilePolarity,Negative*%
%TF.FileFunction,Soldermask,Top*%
%TF.Part,Single*%
G01*
G75*
%TA.AperFunction,ComponentPad*%
%ADD12C,1.60000*%
%ADD13R,1.60000X1.60000*%
%ADD14C,1.57000*%
%ADD15R,1.57000X1.57000*%
%ADD16C,3.66000*%
%ADD17R,1.35000X1.35000*%
%ADD18C,1.35000*%
%ADD20R,1.70000X1.70000*%
%ADD21C,1.70000*%
%ADD34C,1.72720*%
%ADD35R,1.55320X1.55320*%
%ADD36C,1.55320*%
%ADD37C,2.21320*%
%ADD38R,2.21320X2.21320*%
%ADD39R,2.21320X2.21320*%
%TA.AperFunction,ViaPad*%
%ADD40C,0.20320*%
%TA.AperFunction,ComponentPad*%
%ADD41C,1.33320*%
%ADD42R,1.33320X1.33320*%
D12*
X2690602Y5435600D02*
D03*
X2030202Y5791200D02*
D03*
X3452602D02*
D03*
D13*
X1576598Y5435600D02*
D03*
X916198Y5791200D02*
D03*
X2338598D02*
D03*
D14*
X6054600Y3914000D02*
D03*
X6029200Y1282000D02*
D03*
Y1582000D02*
D03*
Y1882000D02*
D03*
Y2182000D02*
D03*
Y2482000D02*
D03*
D15*
X6054600Y4214000D02*
D03*
X6029200Y2782000D02*
D03*
D16*
X6486600Y4429000D02*
D03*
Y3699000D02*
D03*
X6461200Y2997000D02*
D03*
Y1067000D02*
D03*
D17*
X4791801Y2311400D02*
D03*
X3089998D02*
D03*
X1337401D02*
D03*
D18*
X3691799D02*
D03*
X1990000D02*
D03*
X237399D02*
D03*
D20*
X4622800Y1752600D02*
D03*
X1168400Y1778000D02*
D03*
X2946399Y1752600D02*
D03*
D21*
X4368800D02*
D03*
X914400Y1778000D02*
D03*
X2692399Y1752600D02*
D03*
D34*
X2794000Y4826000D02*
D03*
Y4572000D02*
D03*
Y3556000D02*
D03*
X2032000D02*
D03*
Y4572000D02*
D03*
Y4826000D02*
D03*
X4343400D02*
D03*
Y4572000D02*
D03*
Y3556000D02*
D03*
X3581400D02*
D03*
Y4572000D02*
D03*
Y4826000D02*
D03*
X1244600D02*
D03*
Y4572000D02*
D03*
Y3556000D02*
D03*
X482600D02*
D03*
Y4572000D02*
D03*
Y4826000D02*
D03*
D35*
X3251200Y1389800D02*
D03*
X4953000Y413600D02*
D03*
D36*
X3251200Y489800D02*
D03*
X4953000Y1313600D02*
D03*
D37*
X4114800Y914400D02*
D03*
Y660400D02*
D03*
X3733800Y3048000D02*
D03*
X3987800D02*
D03*
X635000D02*
D03*
X889000D02*
D03*
X2184400D02*
D03*
X2438400D02*
D03*
D38*
X4114800Y406400D02*
D03*
D39*
X4241800Y3048000D02*
D03*
X1143000D02*
D03*
X2692400D02*
D03*
D40*
X350002Y350002D02*
D03*
X6649999D02*
D03*
Y5650001D02*
D03*
X350002D02*
D03*
D41*
X914400Y1041400D02*
D03*
X1168400D02*
D03*
X1422400D02*
D03*
X1676400D02*
D03*
X1930400D02*
D03*
X2184400D02*
D03*
X2438400D02*
D03*
X2692400D02*
D03*
Y247401D02*
D03*
X2438400D02*
D03*
X2184400D02*
D03*
X1930400D02*
D03*
X1676400D02*
D03*
X1422400D02*
D03*
X1168400D02*
D03*
D42*
X914400D02*
D03*
%TF.MD5,b94ae6900c30a9fe77afc8b270410fa2*%
M02*
