%TF.GenerationSoftware,Altium Limited,Altium Designer,25.1.2 (22)*%
G04 Layer_Color=65535*
%FSLAX45Y45*%
%MOMM*%
%TF.SameCoordinates,40A9CBEC-A2F6-451D-B56F-574927FC8DEB*%
%TF.FilePolarity,Positive*%
%TF.FileFunction,Legend,Top*%
%TF.Part,Single*%
G01*
G75*
%TA.AperFunction,NonConductor*%
%ADD28C,0.25000*%
%ADD29C,0.25400*%
%ADD30C,0.15000*%
%ADD31C,0.20000*%
%ADD32C,0.12700*%
G36*
X4711841Y5886168D02*
X4753822D01*
Y5884968D01*
X4770614D01*
Y5882569D01*
X4769414D01*
Y5877772D01*
X4768215D01*
Y5874173D01*
X4767016D01*
Y5871774D01*
X4765816D01*
Y5866977D01*
X4764617D01*
Y5864578D01*
X4763417D01*
Y5860979D01*
X4762218D01*
Y5856182D01*
X4761018D01*
Y5854982D01*
X4759819D01*
Y5850184D01*
X4758619D01*
Y5846586D01*
X4757420D01*
Y5844187D01*
X4756221D01*
Y5839389D01*
X4755021D01*
Y5838190D01*
X4753822D01*
Y5833392D01*
X4752622D01*
Y5829794D01*
X4751423D01*
Y5827395D01*
X4750223D01*
Y5822597D01*
X4749024D01*
Y5820198D01*
X4747824D01*
Y5817799D01*
X4746625D01*
Y5813002D01*
X4745426D01*
Y5810603D01*
X4744226D01*
Y5807004D01*
X4743027D01*
Y5802207D01*
X4741827D01*
Y5801007D01*
X4740628D01*
Y5796209D01*
X4739428D01*
Y5793811D01*
X4738229D01*
Y5790212D01*
X4737029D01*
Y5785414D01*
X4735830D01*
Y5784215D01*
X4734631D01*
Y5779417D01*
X4733431D01*
Y5775819D01*
X4732232D01*
Y5773420D01*
X4731032D01*
Y5769822D01*
X4729833D01*
Y5766223D01*
X4728633D01*
Y5763824D01*
X4727434D01*
Y5759027D01*
X4726234D01*
Y5756628D01*
X4725035D01*
Y5753029D01*
X4723836D01*
Y5748232D01*
X4722636D01*
Y5745833D01*
X4721437D01*
Y5741035D01*
X4720237D01*
Y5738636D01*
X4719038D01*
Y5735038D01*
X4717838D01*
Y5731439D01*
X4716639D01*
Y5729041D01*
X4715439D01*
Y5724243D01*
X4714240D01*
Y5720644D01*
X4713041D01*
Y5718246D01*
X4711841D01*
Y5709849D01*
X4759819D01*
Y5711049D01*
X4761018D01*
Y5712248D01*
X4762218D01*
Y5715847D01*
X4763417D01*
Y5719445D01*
X4764617D01*
Y5721844D01*
X4765816D01*
Y5725442D01*
X4767016D01*
Y5729041D01*
X4768215D01*
Y5731439D01*
X4769414D01*
Y5736237D01*
X4770614D01*
Y5737437D01*
X4771813D01*
Y5742234D01*
X4773013D01*
Y5745833D01*
X4774212D01*
Y5748232D01*
X4775412D01*
Y5751830D01*
X4776611D01*
Y5755428D01*
X4777811D01*
Y5757827D01*
X4779010D01*
Y5762625D01*
X4780209D01*
Y5763824D01*
X4781409D01*
Y5768622D01*
X4782608D01*
Y5772221D01*
X4783808D01*
Y5774619D01*
X4785007D01*
Y5778218D01*
X4786207D01*
Y5780617D01*
X4787406D01*
Y5784215D01*
X4788606D01*
Y5789013D01*
X4789805D01*
Y5790212D01*
X4791004D01*
Y5795010D01*
X4792204D01*
Y5798608D01*
X4793403D01*
Y5799808D01*
X4794603D01*
Y5804606D01*
X4795802D01*
Y5807004D01*
X4797002D01*
Y5810603D01*
X4798201D01*
Y5814201D01*
X4799401D01*
Y5816600D01*
X4800600D01*
Y5820198D01*
X4801799D01*
Y5824996D01*
X4802999D01*
Y5826196D01*
X4804198D01*
Y5830993D01*
X4805398D01*
Y5833392D01*
X4806597D01*
Y5836991D01*
X4807797D01*
Y5840589D01*
X4808996D01*
Y5842988D01*
X4810196D01*
Y5846586D01*
X4811395D01*
Y5850184D01*
X4812594D01*
Y5852583D01*
X4813794D01*
Y5857381D01*
X4814993D01*
Y5858581D01*
X4816193D01*
Y5862179D01*
X4817392D01*
Y5866977D01*
X4818592D01*
Y5868176D01*
X4819791D01*
Y5872974D01*
X4820991D01*
Y5876572D01*
X4822190D01*
Y5878971D01*
X4823389D01*
Y5883769D01*
X4824589D01*
Y5884968D01*
X4852176D01*
Y5886168D01*
X4967323D01*
Y5884968D01*
X4976918D01*
Y5882569D01*
X4975719D01*
Y5878971D01*
X4974519D01*
Y5876572D01*
X4973320D01*
Y5871774D01*
X4972121D01*
Y5869376D01*
X4970921D01*
Y5865777D01*
X4969722D01*
Y5862179D01*
X4968522D01*
Y5859780D01*
X4967323D01*
Y5856182D01*
X4966123D01*
Y5851384D01*
X4964924D01*
Y5850184D01*
X4963724D01*
Y5845387D01*
X4962525D01*
Y5842988D01*
X4961326D01*
Y5839389D01*
X4960126D01*
Y5834592D01*
X4958927D01*
Y5833392D01*
X4957727D01*
Y5828594D01*
X4956528D01*
Y5824996D01*
X4955328D01*
Y5822597D01*
X4954129D01*
Y5817799D01*
X4952929D01*
Y5816600D01*
X4951730D01*
Y5813002D01*
X4950531D01*
Y5808204D01*
X4949331D01*
Y5805805D01*
X4948132D01*
Y5802207D01*
X4946932D01*
Y5798608D01*
X4945733D01*
Y5796209D01*
X4944533D01*
Y5791412D01*
X4943334D01*
Y5790212D01*
X4942134D01*
Y5785414D01*
X4940935D01*
Y5781816D01*
X4939736D01*
Y5779417D01*
X4938536D01*
Y5775819D01*
X4937337D01*
Y5772221D01*
X4936137D01*
Y5769822D01*
X4934938D01*
Y5765024D01*
X4933738D01*
Y5763824D01*
X4932539D01*
Y5759027D01*
X4931339D01*
Y5756628D01*
Y5755428D01*
X4930140D01*
Y5754229D01*
X4928941D01*
Y5749431D01*
X4927741D01*
Y5745833D01*
X4926542D01*
Y5743434D01*
X4925342D01*
Y5738636D01*
X4924143D01*
Y5737437D01*
X4922943D01*
Y5732639D01*
X4921744D01*
Y5729041D01*
X4920544D01*
Y5726642D01*
X4919345D01*
Y5723043D01*
X4918146D01*
Y5719445D01*
X4916946D01*
Y5717046D01*
X4915747D01*
Y5712248D01*
X4914547D01*
Y5711049D01*
X4913348D01*
Y5706251D01*
X4912148D01*
Y5702653D01*
X4910949D01*
Y5701453D01*
X4909749D01*
Y5696656D01*
X4908550D01*
Y5693057D01*
X4907351D01*
Y5690658D01*
X4906151D01*
Y5687060D01*
X4904952D01*
Y5684661D01*
X4903752D01*
Y5681063D01*
X4902553D01*
Y5676265D01*
X4901353D01*
Y5675066D01*
X4900154D01*
Y5670268D01*
X4898954D01*
Y5667869D01*
X4897755D01*
Y5665470D01*
X4896556D01*
Y5660672D01*
X4895356D01*
Y5659473D01*
X4894157D01*
Y5655874D01*
X4892957D01*
Y5654675D01*
X4880963D01*
Y5653476D01*
X4832985D01*
Y5652276D01*
X4813794D01*
Y5653476D01*
X4612287D01*
Y5654675D01*
X4577503D01*
Y5655874D01*
X4576304D01*
Y5657074D01*
X4575104D01*
Y5658273D01*
X4572706D01*
Y5659473D01*
X4571506D01*
Y5660672D01*
X4569107D01*
Y5661872D01*
X4567908D01*
Y5663071D01*
X4566708D01*
Y5664271D01*
X4565509D01*
Y5666669D01*
X4564309D01*
Y5667869D01*
X4563110D01*
Y5669068D01*
X4561911D01*
Y5671467D01*
X4560711D01*
Y5672667D01*
X4559512D01*
Y5675066D01*
X4558312D01*
Y5678664D01*
X4557113D01*
Y5679863D01*
X4555913D01*
Y5684661D01*
X4554714D01*
Y5695456D01*
X4555913D01*
Y5701453D01*
X4557113D01*
Y5702653D01*
X4558312D01*
Y5708650D01*
X4559512D01*
Y5712248D01*
X4560711D01*
Y5714647D01*
X4561911D01*
Y5719445D01*
X4563110D01*
Y5721844D01*
X4564309D01*
Y5725442D01*
X4565509D01*
Y5730240D01*
X4566708D01*
Y5732639D01*
X4567908D01*
Y5737437D01*
X4569107D01*
Y5741035D01*
X4570307D01*
Y5743434D01*
X4571506D01*
Y5748232D01*
X4572706D01*
Y5749431D01*
X4573905D01*
Y5754229D01*
X4575104D01*
Y5757827D01*
X4576304D01*
Y5760226D01*
X4577503D01*
Y5765024D01*
X4578703D01*
Y5768622D01*
X4579902D01*
Y5769822D01*
X4581102D01*
Y5774619D01*
X4582301D01*
Y5777018D01*
X4583501D01*
Y5780617D01*
X4584700D01*
Y5785414D01*
X4585899D01*
Y5786614D01*
X4587099D01*
Y5791412D01*
X4588298D01*
Y5795010D01*
X4589498D01*
Y5797409D01*
X4590697D01*
Y5802207D01*
X4591897D01*
Y5803406D01*
X4593096D01*
Y5808204D01*
X4594296D01*
Y5811802D01*
X4595495D01*
Y5814201D01*
X4596694D01*
Y5817799D01*
X4597894D01*
Y5821398D01*
X4599093D01*
Y5823797D01*
X4600293D01*
Y5828594D01*
X4601492D01*
Y5830993D01*
X4602692D01*
Y5834592D01*
X4603891D01*
Y5839389D01*
X4605091D01*
Y5840589D01*
X4606290D01*
Y5845387D01*
X4607489D01*
Y5848985D01*
X4608689D01*
Y5851384D01*
X4609888D01*
Y5856182D01*
X4611088D01*
Y5858581D01*
X4612287D01*
Y5862179D01*
X4613487D01*
Y5866977D01*
X4614686D01*
Y5868176D01*
X4615886D01*
Y5872974D01*
X4617085D01*
Y5876572D01*
X4618284D01*
Y5878971D01*
X4619484D01*
Y5883769D01*
X4618284D01*
Y5882569D01*
X4615886D01*
Y5881370D01*
X4614686D01*
Y5880171D01*
X4613487D01*
Y5878971D01*
X4611088D01*
Y5877772D01*
X4608689D01*
Y5876572D01*
X4607489D01*
Y5875373D01*
X4606290D01*
Y5874173D01*
X4605091D01*
Y5872974D01*
X4602692D01*
Y5871774D01*
X4600293D01*
Y5869376D01*
X4597894D01*
Y5868176D01*
X4596694D01*
Y5866977D01*
X4594296D01*
Y5865777D01*
X4593096D01*
Y5864578D01*
X4591897D01*
Y5863378D01*
X4590697D01*
Y5862179D01*
X4588298D01*
Y5860979D01*
X4587099D01*
Y5859780D01*
X4584700D01*
Y5858581D01*
X4583501D01*
Y5857381D01*
X4582301D01*
Y5856182D01*
X4579902D01*
Y5854982D01*
X4578703D01*
Y5853783D01*
X4577503D01*
Y5852583D01*
X4575104D01*
Y5851384D01*
X4573905D01*
Y5850184D01*
X4572706D01*
Y5848985D01*
X4570307D01*
Y5847786D01*
X4569107D01*
Y5846586D01*
X4567908D01*
Y5845387D01*
X4566708D01*
Y5844187D01*
X4564309D01*
Y5842988D01*
X4561911D01*
Y5840589D01*
X4559512D01*
Y5839389D01*
X4558312D01*
Y5838190D01*
X4555913D01*
Y5836991D01*
X4554714D01*
Y5835791D01*
X4553514D01*
Y5834592D01*
X4552315D01*
Y5833392D01*
X4549916D01*
Y5832193D01*
X4548717D01*
Y5830993D01*
X4546318D01*
Y5829794D01*
X4545118D01*
Y5828594D01*
X4543919D01*
Y5827395D01*
X4541520D01*
Y5826196D01*
X4540321D01*
Y5824996D01*
X4539121D01*
Y5823797D01*
X4536722D01*
Y5821398D01*
X4534323D01*
Y5820198D01*
X4531924D01*
Y5818999D01*
X4530725D01*
Y5817799D01*
X4529526D01*
Y5816600D01*
X4528326D01*
Y5815401D01*
X4525927D01*
Y5814201D01*
X4524728D01*
Y5813002D01*
X4523528D01*
Y5811802D01*
X4521129D01*
Y5810603D01*
X4519930D01*
Y5809403D01*
X4518731D01*
Y5808204D01*
X4516332D01*
Y5807004D01*
X4515132D01*
Y5805805D01*
X4513933D01*
Y5804606D01*
X4512733D01*
Y5803406D01*
X4511534D01*
Y5802207D01*
X4509135D01*
Y5801007D01*
X4506736D01*
Y5799808D01*
X4505537D01*
Y5798608D01*
X4504337D01*
Y5797409D01*
X4503138D01*
Y5796209D01*
X4500739D01*
Y5795010D01*
X4499539D01*
Y5793811D01*
X4498340D01*
Y5792611D01*
X4495941D01*
Y5791412D01*
X4494742D01*
Y5790212D01*
X4493542D01*
Y5789013D01*
X4491143D01*
Y5787813D01*
X4489944D01*
Y5786614D01*
X4488744D01*
Y5785414D01*
X4487545D01*
Y5784215D01*
X4486346D01*
Y5783016D01*
X4483947D01*
Y5781816D01*
X4482747D01*
Y5780617D01*
X4481548D01*
Y5779417D01*
X4479149D01*
Y5778218D01*
X4477949D01*
Y5777018D01*
X4476750D01*
Y5775819D01*
X4474351D01*
Y5774619D01*
X4473152D01*
Y5773420D01*
X4471952D01*
Y5772221D01*
X4470753D01*
Y5771021D01*
X4469553D01*
Y5769822D01*
X4467154D01*
Y5768622D01*
X4465955D01*
Y5766223D01*
X4464756D01*
Y5765024D01*
X4463556D01*
Y5761426D01*
X4462357D01*
Y5757827D01*
X4461157D01*
Y5756628D01*
X4459958D01*
Y5751830D01*
X4458758D01*
Y5749431D01*
X4457559D01*
Y5747032D01*
X4456359D01*
Y5742234D01*
X4455160D01*
Y5741035D01*
X4453961D01*
Y5736237D01*
X4452761D01*
Y5732639D01*
X4451562D01*
Y5731439D01*
X4450362D01*
Y5726642D01*
X4449163D01*
Y5724243D01*
X4447963D01*
Y5720644D01*
X4446764D01*
Y5717046D01*
X4445564D01*
Y5714647D01*
X4444365D01*
Y5711049D01*
X4443166D01*
Y5706251D01*
X4441966D01*
Y5705052D01*
X4440767D01*
Y5700254D01*
X4439567D01*
Y5697855D01*
X4438368D01*
Y5694257D01*
X4437168D01*
Y5690658D01*
X4435969D01*
Y5688259D01*
X4434769D01*
Y5684661D01*
X4433570D01*
Y5679863D01*
X4432371D01*
Y5678664D01*
X4431171D01*
Y5673866D01*
X4429972D01*
Y5671467D01*
X4428772D01*
Y5667869D01*
X4427573D01*
Y5663071D01*
X4426373D01*
Y5661872D01*
X4425174D01*
Y5657074D01*
X4423974D01*
Y5654675D01*
X4422775D01*
Y5653476D01*
X4410781D01*
Y5652276D01*
X4304030D01*
Y5653476D01*
X4276443D01*
Y5654675D01*
X4270446D01*
Y5655874D01*
X4271645D01*
Y5660672D01*
X4272844D01*
Y5663071D01*
X4274044D01*
Y5666669D01*
X4275243D01*
Y5671467D01*
X4276443D01*
Y5672667D01*
X4277642D01*
Y5677464D01*
X4278842D01*
Y5681063D01*
X4280041D01*
Y5683462D01*
X4281241D01*
Y5687060D01*
X4282440D01*
Y5689459D01*
X4283639D01*
Y5693057D01*
X4284839D01*
Y5697855D01*
X4286038D01*
Y5699054D01*
X4287238D01*
Y5703852D01*
X4288437D01*
Y5707451D01*
X4289637D01*
Y5709849D01*
X4290836D01*
Y5713448D01*
X4292036D01*
Y5715847D01*
X4293235D01*
Y5719445D01*
X4294434D01*
Y5724243D01*
X4295634D01*
Y5725442D01*
X4296833D01*
Y5730240D01*
X4298033D01*
Y5733838D01*
X4299232D01*
Y5736237D01*
X4300432D01*
Y5741035D01*
X4301631D01*
Y5742234D01*
X4302831D01*
Y5747032D01*
X4304030D01*
Y5750631D01*
X4305229D01*
Y5753029D01*
X4306429D01*
Y5756628D01*
X4307628D01*
Y5761426D01*
X4308828D01*
Y5763824D01*
X4310027D01*
Y5769822D01*
X4311227D01*
Y5771021D01*
X4310027D01*
Y5775819D01*
X4308828D01*
Y5778218D01*
X4307628D01*
Y5780617D01*
X4306429D01*
Y5783016D01*
X4305229D01*
Y5784215D01*
X4304030D01*
Y5786614D01*
X4302831D01*
Y5789013D01*
X4301631D01*
Y5790212D01*
X4300432D01*
Y5792611D01*
X4299232D01*
Y5795010D01*
X4298033D01*
Y5796209D01*
X4296833D01*
Y5798608D01*
X4295634D01*
Y5801007D01*
X4294434D01*
Y5802207D01*
X4293235D01*
Y5805805D01*
X4292036D01*
Y5807004D01*
X4290836D01*
Y5809403D01*
X4289637D01*
Y5810603D01*
X4288437D01*
Y5813002D01*
X4287238D01*
Y5815401D01*
X4286038D01*
Y5816600D01*
X4284839D01*
Y5818999D01*
X4283639D01*
Y5821398D01*
X4282440D01*
Y5822597D01*
X4281241D01*
Y5824996D01*
X4280041D01*
Y5827395D01*
X4278842D01*
Y5829794D01*
X4277642D01*
Y5830993D01*
X4276443D01*
Y5833392D01*
X4275243D01*
Y5835791D01*
X4274044D01*
Y5838190D01*
X4272844D01*
Y5839389D01*
X4271645D01*
Y5841788D01*
X4270446D01*
Y5842988D01*
X4269246D01*
Y5845387D01*
X4268047D01*
Y5847786D01*
X4266847D01*
Y5848985D01*
X4265648D01*
Y5851384D01*
X4264448D01*
Y5853783D01*
X4263249D01*
Y5854982D01*
X4262049D01*
Y5857381D01*
X4260850D01*
Y5859780D01*
X4259651D01*
Y5862179D01*
X4258451D01*
Y5863378D01*
X4257252D01*
Y5865777D01*
X4256052D01*
Y5868176D01*
X4254853D01*
Y5870575D01*
X4253653D01*
Y5871774D01*
X4252454D01*
Y5874173D01*
X4251254D01*
Y5876572D01*
X4250055D01*
Y5877772D01*
X4248856D01*
Y5880171D01*
X4247656D01*
Y5882569D01*
X4246457D01*
Y5884968D01*
X4247656D01*
Y5886168D01*
X4371199D01*
Y5884968D01*
X4399986D01*
Y5882569D01*
X4401185D01*
Y5881370D01*
X4402384D01*
Y5878971D01*
X4403584D01*
Y5876572D01*
X4404783D01*
Y5875373D01*
X4405983D01*
Y5872974D01*
X4407182D01*
Y5871774D01*
X4408382D01*
Y5869376D01*
X4409581D01*
Y5866977D01*
X4410781D01*
Y5865777D01*
X4411980D01*
Y5863378D01*
X4413179D01*
Y5862179D01*
X4414379D01*
Y5859780D01*
X4415578D01*
Y5858581D01*
X4416778D01*
Y5857381D01*
X4417977D01*
Y5856182D01*
X4419177D01*
Y5857381D01*
X4420376D01*
Y5858581D01*
X4422775D01*
Y5859780D01*
X4425174D01*
Y5862179D01*
X4427573D01*
Y5863378D01*
X4428772D01*
Y5864578D01*
X4431171D01*
Y5865777D01*
X4432371D01*
Y5866977D01*
X4433570D01*
Y5868176D01*
X4435969D01*
Y5869376D01*
X4437168D01*
Y5870575D01*
X4438368D01*
Y5871774D01*
X4440767D01*
Y5872974D01*
X4441966D01*
Y5874173D01*
X4443166D01*
Y5875373D01*
X4445564D01*
Y5876572D01*
X4446764D01*
Y5877772D01*
X4447963D01*
Y5878971D01*
X4449163D01*
Y5880171D01*
X4450362D01*
Y5881370D01*
X4452761D01*
Y5882569D01*
X4453961D01*
Y5883769D01*
X4456359D01*
Y5884968D01*
X4457559D01*
Y5886168D01*
X4458758D01*
Y5887367D01*
X4711841D01*
Y5886168D01*
D02*
G37*
G36*
X5392796Y5869453D02*
X5409345D01*
Y5867614D01*
X5416700D01*
Y5865775D01*
X5422216D01*
Y5863936D01*
X5425893D01*
Y5862098D01*
X5431410D01*
Y5860259D01*
X5435087D01*
Y5858420D01*
X5438764D01*
Y5856582D01*
X5440603D01*
Y5854743D01*
X5444280D01*
Y5852904D01*
X5446119D01*
Y5851066D01*
X5449797D01*
Y5849227D01*
X5451635D01*
Y5847388D01*
X5453474D01*
Y5845549D01*
X5455313D01*
Y5841872D01*
X5457152D01*
Y5840033D01*
X5458990D01*
Y5838194D01*
X5460829D01*
Y5836356D01*
X5458990D01*
Y5834517D01*
X5457152D01*
Y5832678D01*
X5455313D01*
Y5830839D01*
X5453474D01*
Y5829001D01*
X5451635D01*
Y5827162D01*
X5449797D01*
Y5825323D01*
X5447958D01*
Y5823485D01*
X5446119D01*
Y5821646D01*
X5444280D01*
Y5819807D01*
X5442442D01*
Y5817969D01*
X5438764D01*
Y5819807D01*
X5436926D01*
Y5821646D01*
X5433248D01*
Y5823485D01*
X5431410D01*
Y5825323D01*
X5429571D01*
Y5827162D01*
X5427732D01*
Y5829001D01*
X5424055D01*
Y5830839D01*
X5420377D01*
Y5832678D01*
X5418538D01*
Y5834517D01*
X5413022D01*
Y5836356D01*
X5409345D01*
Y5838194D01*
X5400151D01*
Y5840033D01*
X5378087D01*
Y5838194D01*
X5368893D01*
Y5836356D01*
X5365216D01*
Y5834517D01*
X5361538D01*
Y5832678D01*
X5357861D01*
Y5830839D01*
X5356022D01*
Y5829001D01*
X5354183D01*
Y5827162D01*
X5350506D01*
Y5825323D01*
X5348667D01*
Y5823485D01*
X5346828D01*
Y5821646D01*
X5344990D01*
Y5819807D01*
X5343151D01*
Y5816130D01*
X5341312D01*
Y5814291D01*
X5339473D01*
Y5810613D01*
X5337635D01*
Y5806936D01*
X5335796D01*
Y5801420D01*
X5333957D01*
Y5790388D01*
X5332119D01*
Y5779355D01*
X5333957D01*
Y5768323D01*
X5335796D01*
Y5762807D01*
X5337635D01*
Y5759129D01*
X5339473D01*
Y5755452D01*
X5341312D01*
Y5751775D01*
X5343151D01*
Y5749936D01*
X5344990D01*
Y5748097D01*
X5346828D01*
Y5746258D01*
X5348667D01*
Y5744420D01*
X5350506D01*
Y5742581D01*
X5352344D01*
Y5740742D01*
X5354183D01*
Y5738903D01*
X5357861D01*
Y5737065D01*
X5359699D01*
Y5735226D01*
X5363377D01*
Y5733387D01*
X5368893D01*
Y5731549D01*
X5374409D01*
Y5729710D01*
X5403829D01*
Y5731549D01*
X5411183D01*
Y5733387D01*
X5416700D01*
Y5735226D01*
X5418538D01*
Y5737065D01*
X5422216D01*
Y5738903D01*
X5425893D01*
Y5740742D01*
X5427732D01*
Y5742581D01*
X5429571D01*
Y5744420D01*
X5431410D01*
Y5746258D01*
X5435087D01*
Y5748097D01*
X5436926D01*
Y5749936D01*
X5438764D01*
Y5751775D01*
X5440603D01*
Y5749936D01*
X5442442D01*
Y5748097D01*
X5444280D01*
Y5746258D01*
X5446119D01*
Y5744420D01*
X5447958D01*
Y5742581D01*
X5449797D01*
Y5740742D01*
X5451635D01*
Y5738903D01*
X5453474D01*
Y5737065D01*
X5455313D01*
Y5735226D01*
X5457152D01*
Y5733387D01*
X5458990D01*
Y5727871D01*
X5457152D01*
Y5726032D01*
X5455313D01*
Y5724194D01*
X5453474D01*
Y5722355D01*
X5449797D01*
Y5720516D01*
X5447958D01*
Y5718678D01*
X5446119D01*
Y5716839D01*
X5444280D01*
Y5715000D01*
X5442442D01*
Y5713161D01*
X5438764D01*
Y5711323D01*
X5436926D01*
Y5709484D01*
X5431410D01*
Y5707645D01*
X5429571D01*
Y5705806D01*
X5424055D01*
Y5703968D01*
X5418538D01*
Y5702129D01*
X5411183D01*
Y5700290D01*
X5400151D01*
Y5698452D01*
X5378087D01*
Y5700290D01*
X5367054D01*
Y5702129D01*
X5359699D01*
Y5703968D01*
X5354183D01*
Y5705806D01*
X5350506D01*
Y5707645D01*
X5346828D01*
Y5709484D01*
X5343151D01*
Y5711323D01*
X5339473D01*
Y5713161D01*
X5335796D01*
Y5715000D01*
X5333957D01*
Y5716839D01*
X5332119D01*
Y5718678D01*
X5330280D01*
Y5720516D01*
X5328441D01*
Y5722355D01*
X5326602D01*
Y5724194D01*
X5324764D01*
Y5726032D01*
X5322925D01*
Y5727871D01*
X5321086D01*
Y5729710D01*
X5319247D01*
Y5731549D01*
X5317409D01*
Y5735226D01*
X5315570D01*
Y5737065D01*
X5313731D01*
Y5738903D01*
X5311893D01*
Y5742581D01*
X5310054D01*
Y5746258D01*
X5308215D01*
Y5751775D01*
X5306376D01*
Y5757291D01*
X5304538D01*
Y5764646D01*
X5302699D01*
Y5779355D01*
X5300860D01*
Y5790388D01*
X5302699D01*
Y5805097D01*
X5304538D01*
Y5810613D01*
X5306376D01*
Y5817969D01*
X5308215D01*
Y5821646D01*
X5310054D01*
Y5825323D01*
X5311893D01*
Y5829001D01*
X5313731D01*
Y5830839D01*
X5315570D01*
Y5834517D01*
X5317409D01*
Y5836356D01*
X5319247D01*
Y5838194D01*
X5321086D01*
Y5840033D01*
X5322925D01*
Y5841872D01*
X5324764D01*
Y5845549D01*
X5326602D01*
Y5847388D01*
X5328441D01*
Y5849227D01*
X5330280D01*
Y5851066D01*
X5333957D01*
Y5852904D01*
X5335796D01*
Y5854743D01*
X5337635D01*
Y5856582D01*
X5341312D01*
Y5858420D01*
X5344990D01*
Y5860259D01*
X5348667D01*
Y5862098D01*
X5352344D01*
Y5863936D01*
X5357861D01*
Y5865775D01*
X5363377D01*
Y5867614D01*
X5368893D01*
Y5869453D01*
X5387280D01*
Y5871291D01*
X5392796D01*
Y5869453D01*
D02*
G37*
G36*
X5859831Y5871291D02*
X5857993D01*
Y5863936D01*
X5856154D01*
Y5856582D01*
X5854315D01*
Y5849227D01*
X5852476D01*
Y5841872D01*
X5850638D01*
Y5834517D01*
X5848799D01*
Y5827162D01*
X5846960D01*
Y5819807D01*
X5845122D01*
Y5810613D01*
X5843283D01*
Y5805097D01*
X5841444D01*
Y5797743D01*
X5839605D01*
Y5790388D01*
X5837767D01*
Y5783033D01*
X5835928D01*
Y5773839D01*
X5834089D01*
Y5766484D01*
X5832250D01*
Y5760968D01*
X5830412D01*
Y5753613D01*
X5828573D01*
Y5748097D01*
X5826734D01*
Y5740742D01*
X5824896D01*
Y5733387D01*
X5823057D01*
Y5726032D01*
X5821218D01*
Y5718678D01*
X5819380D01*
Y5709484D01*
X5817541D01*
Y5702129D01*
X5815702D01*
Y5696613D01*
X5813863D01*
Y5694774D01*
X5764218D01*
Y5700290D01*
X5762379D01*
Y5707645D01*
X5760540D01*
Y5715000D01*
X5758702D01*
Y5722355D01*
X5756863D01*
Y5729710D01*
X5755024D01*
Y5737065D01*
X5753186D01*
Y5744420D01*
X5751347D01*
Y5751775D01*
X5749508D01*
Y5759129D01*
X5747669D01*
Y5766484D01*
X5745831D01*
Y5773839D01*
X5743992D01*
Y5779355D01*
X5742153D01*
Y5788549D01*
X5740314D01*
Y5795904D01*
X5738476D01*
Y5799581D01*
X5736637D01*
Y5803259D01*
X5734798D01*
Y5797743D01*
X5732960D01*
Y5790388D01*
X5731121D01*
Y5784872D01*
X5729282D01*
Y5775678D01*
X5727443D01*
Y5768323D01*
X5725605D01*
Y5760968D01*
X5723766D01*
Y5753613D01*
X5721927D01*
Y5746258D01*
X5720089D01*
Y5738903D01*
X5718250D01*
Y5731549D01*
X5716411D01*
Y5724194D01*
X5714573D01*
Y5716839D01*
X5712734D01*
Y5707645D01*
X5710895D01*
Y5700290D01*
X5709056D01*
Y5694774D01*
X5659411D01*
Y5696613D01*
X5657572D01*
Y5703968D01*
X5655733D01*
Y5709484D01*
X5653895D01*
Y5718678D01*
X5652056D01*
Y5726032D01*
X5650217D01*
Y5733387D01*
X5648379D01*
Y5738903D01*
X5646540D01*
Y5744420D01*
X5644701D01*
Y5751775D01*
X5642862D01*
Y5759129D01*
X5641024D01*
Y5766484D01*
X5639185D01*
Y5773839D01*
X5637346D01*
Y5781194D01*
X5635507D01*
Y5788549D01*
X5633669D01*
Y5792226D01*
Y5794065D01*
Y5795904D01*
X5631830D01*
Y5805097D01*
X5629991D01*
Y5810613D01*
X5628153D01*
Y5819807D01*
X5626314D01*
Y5827162D01*
X5624475D01*
Y5832678D01*
X5622636D01*
Y5841872D01*
X5620798D01*
Y5849227D01*
X5618959D01*
Y5856582D01*
X5617120D01*
Y5860259D01*
X5615281D01*
Y5867614D01*
X5613443D01*
Y5874969D01*
X5659411D01*
Y5873130D01*
X5661250D01*
Y5863936D01*
X5663088D01*
Y5854743D01*
X5664927D01*
Y5845549D01*
X5666766D01*
Y5836356D01*
X5668604D01*
Y5827162D01*
X5670443D01*
Y5817969D01*
X5672282D01*
Y5808775D01*
X5674120D01*
Y5799581D01*
X5675959D01*
Y5790388D01*
X5677798D01*
Y5784872D01*
X5679637D01*
Y5775678D01*
X5681476D01*
Y5766484D01*
X5683314D01*
Y5757291D01*
X5685153D01*
Y5759129D01*
X5686992D01*
Y5766484D01*
X5688830D01*
Y5773839D01*
X5690669D01*
Y5781194D01*
X5692508D01*
Y5788549D01*
X5694346D01*
Y5795904D01*
X5696185D01*
Y5803259D01*
X5698024D01*
Y5812452D01*
X5699863D01*
Y5819807D01*
X5701701D01*
Y5827162D01*
X5703540D01*
Y5834517D01*
X5705379D01*
Y5841872D01*
X5707217D01*
Y5847388D01*
X5709056D01*
Y5854743D01*
X5710895D01*
Y5860259D01*
X5712734D01*
Y5867614D01*
X5714573D01*
Y5874969D01*
X5758702D01*
Y5873130D01*
X5760540D01*
Y5865775D01*
X5762379D01*
Y5858420D01*
X5764218D01*
Y5851066D01*
X5766057D01*
Y5841872D01*
X5767895D01*
Y5836356D01*
X5769734D01*
Y5829001D01*
X5771573D01*
Y5821646D01*
X5773411D01*
Y5814291D01*
X5775250D01*
Y5805097D01*
X5777089D01*
Y5797743D01*
X5778928D01*
Y5790388D01*
X5780766D01*
Y5783033D01*
X5782605D01*
Y5773839D01*
X5784444D01*
Y5766484D01*
X5786283D01*
Y5759129D01*
X5788121D01*
Y5757291D01*
X5789960D01*
Y5766484D01*
X5791799D01*
Y5775678D01*
X5793637D01*
Y5783033D01*
X5795476D01*
Y5792226D01*
X5797315D01*
Y5801420D01*
X5799154D01*
Y5806936D01*
X5800992D01*
Y5816130D01*
X5802831D01*
Y5823485D01*
X5804670D01*
Y5832678D01*
X5806508D01*
Y5841872D01*
X5808347D01*
Y5851066D01*
X5810186D01*
Y5858420D01*
X5812025D01*
Y5867614D01*
X5813863D01*
Y5874969D01*
X5859831D01*
Y5871291D01*
D02*
G37*
G36*
X6117252Y5825323D02*
X6115413D01*
Y5819807D01*
X6113575D01*
Y5814291D01*
X6111736D01*
Y5808775D01*
X6109897D01*
Y5803259D01*
X6108059D01*
Y5799581D01*
X6106220D01*
Y5794065D01*
X6104381D01*
Y5788549D01*
X6102543D01*
Y5784872D01*
X6100704D01*
Y5779355D01*
X6098865D01*
Y5775678D01*
X6097026D01*
Y5770162D01*
X6095187D01*
Y5764646D01*
X6093349D01*
Y5759129D01*
X6091510D01*
Y5755452D01*
X6089671D01*
Y5749936D01*
X6087833D01*
Y5744420D01*
X6085994D01*
Y5738903D01*
X6084155D01*
Y5733387D01*
X6082317D01*
Y5729710D01*
X6080478D01*
Y5724194D01*
X6078639D01*
Y5718678D01*
X6076800D01*
Y5713161D01*
X6074962D01*
Y5709484D01*
X6073123D01*
Y5703968D01*
X6071284D01*
Y5700290D01*
X6069446D01*
Y5696613D01*
X6067607D01*
Y5691097D01*
X6065768D01*
Y5685581D01*
X6063929D01*
Y5680064D01*
X6062090D01*
Y5674548D01*
X6060252D01*
Y5670871D01*
X6058413D01*
Y5663516D01*
X6069446D01*
Y5661677D01*
X6084155D01*
Y5659839D01*
X6098865D01*
Y5658000D01*
X6115413D01*
Y5656161D01*
X6131962D01*
Y5654322D01*
X6130123D01*
Y5652484D01*
X6128284D01*
Y5650645D01*
X6120930D01*
Y5652484D01*
X6100704D01*
Y5654322D01*
X6085994D01*
Y5656161D01*
X6065768D01*
Y5658000D01*
X6063929D01*
Y5656161D01*
X6060252D01*
Y5658000D01*
X6054736D01*
Y5656161D01*
X6052897D01*
Y5648806D01*
X6051058D01*
Y5645129D01*
X6005090D01*
Y5648806D01*
X6006929D01*
Y5654322D01*
X6008768D01*
Y5658000D01*
X6010606D01*
Y5661677D01*
X5999574D01*
Y5663516D01*
X5975671D01*
Y5665355D01*
X5955445D01*
Y5667193D01*
X5931541D01*
Y5669032D01*
X5894767D01*
Y5670871D01*
X5837767D01*
Y5672710D01*
X5789960D01*
Y5670871D01*
X5723766D01*
Y5669032D01*
X5675959D01*
Y5667193D01*
X5648379D01*
Y5665355D01*
X5624475D01*
Y5663516D01*
X5595056D01*
Y5661677D01*
X5572991D01*
Y5659839D01*
X5554604D01*
Y5658000D01*
X5534378D01*
Y5656161D01*
X5512313D01*
Y5654322D01*
X5503120D01*
Y5652484D01*
X5488410D01*
Y5650645D01*
X5470023D01*
Y5648806D01*
X5453474D01*
Y5646967D01*
X5442442D01*
Y5645129D01*
X5425893D01*
Y5643290D01*
X5409345D01*
Y5641451D01*
X5398313D01*
Y5639613D01*
X5385441D01*
Y5637774D01*
X5370732D01*
Y5635935D01*
X5359699D01*
Y5634096D01*
X5348667D01*
Y5632258D01*
X5335796D01*
Y5630419D01*
X5322925D01*
Y5628580D01*
X5311893D01*
Y5626742D01*
X5300860D01*
Y5624903D01*
X5287989D01*
Y5623064D01*
X5276957D01*
Y5621225D01*
X5271441D01*
Y5619387D01*
X5258570D01*
Y5617548D01*
X5247537D01*
Y5615709D01*
X5238344D01*
Y5613870D01*
X5227311D01*
Y5612032D01*
X5216279D01*
Y5610193D01*
X5207086D01*
Y5608354D01*
X5199731D01*
Y5606516D01*
X5186860D01*
Y5604677D01*
X5177666D01*
Y5602838D01*
X5168473D01*
Y5600999D01*
X5155601D01*
Y5599161D01*
X5148246D01*
Y5597322D01*
X5140892D01*
Y5602838D01*
X5142730D01*
Y5612032D01*
X5144569D01*
Y5619387D01*
X5146408D01*
Y5621225D01*
X5150085D01*
Y5623064D01*
X5159279D01*
Y5624903D01*
X5168473D01*
Y5626742D01*
X5181343D01*
Y5628580D01*
X5190537D01*
Y5630419D01*
X5199731D01*
Y5632258D01*
X5212602D01*
Y5634096D01*
X5225473D01*
Y5635935D01*
X5234666D01*
Y5637774D01*
X5247537D01*
Y5639613D01*
X5260408D01*
Y5641451D01*
X5271441D01*
Y5643290D01*
X5282473D01*
Y5645129D01*
X5297183D01*
Y5646967D01*
X5310054D01*
Y5648806D01*
X5322925D01*
Y5650645D01*
X5335796D01*
Y5652484D01*
X5346828D01*
Y5654322D01*
X5359699D01*
Y5656161D01*
X5374409D01*
Y5658000D01*
X5392796D01*
Y5659839D01*
X5405667D01*
Y5661677D01*
X5407506D01*
Y5659839D01*
X5409345D01*
Y5661677D01*
X5422216D01*
Y5663516D01*
X5444280D01*
Y5665355D01*
X5462668D01*
Y5667193D01*
X5481055D01*
Y5669032D01*
X5499442D01*
Y5670871D01*
X5525184D01*
Y5672710D01*
X5549087D01*
Y5674548D01*
X5572991D01*
Y5676387D01*
X5607927D01*
Y5678226D01*
X5644701D01*
Y5680064D01*
X5699863D01*
Y5681903D01*
X5804670D01*
Y5680064D01*
X5852476D01*
Y5678226D01*
X5854315D01*
Y5680064D01*
X5857993D01*
Y5678226D01*
X5896606D01*
Y5676387D01*
X5929703D01*
Y5674548D01*
X5951767D01*
Y5672710D01*
X5971993D01*
Y5670871D01*
X5997735D01*
Y5669032D01*
X6014284D01*
Y5670871D01*
X6016123D01*
Y5676387D01*
X6017961D01*
Y5681903D01*
X6019800D01*
Y5685581D01*
X6021639D01*
Y5691097D01*
X6023477D01*
Y5694774D01*
X6025316D01*
Y5700290D01*
X6023477D01*
Y5705806D01*
X6021639D01*
Y5709484D01*
X6019800D01*
Y5715000D01*
X6017961D01*
Y5720516D01*
X6016123D01*
Y5726032D01*
X6014284D01*
Y5729710D01*
X6012445D01*
Y5735226D01*
X6010606D01*
Y5738903D01*
X6008768D01*
Y5744420D01*
X6006929D01*
Y5748097D01*
X6005090D01*
Y5753613D01*
X6003252D01*
Y5759129D01*
X6001413D01*
Y5764646D01*
X5999574D01*
Y5768323D01*
X5997735D01*
Y5773839D01*
X5995897D01*
Y5777517D01*
X5994058D01*
Y5783033D01*
X5992219D01*
Y5788549D01*
X5990380D01*
Y5794065D01*
X5988542D01*
Y5797743D01*
X5986703D01*
Y5803259D01*
X5984864D01*
Y5808775D01*
X5983026D01*
Y5814291D01*
X5981187D01*
Y5817969D01*
X5979348D01*
Y5821646D01*
X5977510D01*
Y5827162D01*
X5975671D01*
Y5830839D01*
X6019800D01*
Y5829001D01*
X6021639D01*
Y5823485D01*
X6023477D01*
Y5817969D01*
X6025316D01*
Y5810613D01*
X6027155D01*
Y5805097D01*
X6028994D01*
Y5799581D01*
X6030832D01*
Y5794065D01*
X6032671D01*
Y5788549D01*
X6034510D01*
Y5783033D01*
X6036349D01*
Y5777517D01*
X6038187D01*
Y5772000D01*
X6040026D01*
Y5766484D01*
X6041865D01*
Y5762807D01*
X6043703D01*
Y5757291D01*
X6045542D01*
Y5751775D01*
X6047381D01*
Y5748097D01*
X6049220D01*
Y5749936D01*
X6051058D01*
Y5757291D01*
X6052897D01*
Y5762807D01*
X6054736D01*
Y5768323D01*
X6056574D01*
Y5773839D01*
X6058413D01*
Y5779355D01*
X6060252D01*
Y5786710D01*
X6062090D01*
Y5792226D01*
X6063929D01*
Y5797743D01*
X6065768D01*
Y5803259D01*
X6067607D01*
Y5810613D01*
X6069446D01*
Y5816130D01*
X6071284D01*
Y5821646D01*
X6073123D01*
Y5825323D01*
X6074962D01*
Y5830839D01*
X6117252D01*
Y5825323D01*
D02*
G37*
G36*
X5926025Y5832678D02*
X5938896D01*
Y5830839D01*
X5946251D01*
Y5829001D01*
X5951767D01*
Y5827162D01*
X5955445D01*
Y5825323D01*
X5959122D01*
Y5823485D01*
X5960961D01*
Y5821646D01*
X5964638D01*
Y5819807D01*
X5966477D01*
Y5817969D01*
X5968316D01*
Y5816130D01*
X5970155D01*
Y5812452D01*
X5971993D01*
Y5808775D01*
X5973832D01*
Y5803259D01*
X5975671D01*
Y5794065D01*
X5977510D01*
Y5694774D01*
X5935219D01*
Y5698452D01*
Y5700290D01*
Y5707645D01*
X5933380D01*
Y5705806D01*
X5929703D01*
Y5703968D01*
X5927864D01*
Y5702129D01*
X5926025D01*
Y5700290D01*
X5922348D01*
Y5698452D01*
X5918670D01*
Y5696613D01*
X5914993D01*
Y5694774D01*
X5911316D01*
Y5692936D01*
X5903961D01*
Y5691097D01*
X5883735D01*
Y5692936D01*
X5876380D01*
Y5694774D01*
X5872702D01*
Y5696613D01*
X5869025D01*
Y5698452D01*
X5867186D01*
Y5700290D01*
X5865347D01*
Y5702129D01*
X5861670D01*
Y5703968D01*
X5859831D01*
Y5705806D01*
X5857993D01*
Y5709484D01*
X5856154D01*
Y5711323D01*
X5854315D01*
Y5715000D01*
X5852476D01*
Y5722355D01*
X5850638D01*
Y5746258D01*
X5852476D01*
Y5753613D01*
X5854315D01*
Y5757291D01*
X5856154D01*
Y5759129D01*
X5857993D01*
Y5762807D01*
X5861670D01*
Y5764646D01*
X5863509D01*
Y5766484D01*
X5865347D01*
Y5768323D01*
X5867186D01*
Y5770162D01*
X5870864D01*
Y5772000D01*
X5874541D01*
Y5773839D01*
X5878219D01*
Y5775678D01*
X5883735D01*
Y5777517D01*
X5891090D01*
Y5779355D01*
X5900283D01*
Y5781194D01*
X5911316D01*
Y5783033D01*
X5931541D01*
Y5784872D01*
X5935219D01*
Y5792226D01*
X5933380D01*
Y5795904D01*
X5931541D01*
Y5797743D01*
X5929703D01*
Y5799581D01*
X5927864D01*
Y5801420D01*
X5922348D01*
Y5803259D01*
X5909477D01*
Y5805097D01*
X5898444D01*
Y5803259D01*
X5887412D01*
Y5801420D01*
X5880057D01*
Y5799581D01*
X5874541D01*
Y5797743D01*
X5869025D01*
Y5795904D01*
X5865347D01*
Y5794065D01*
X5863509D01*
Y5795904D01*
X5861670D01*
Y5827162D01*
X5863509D01*
Y5829001D01*
X5870864D01*
Y5830839D01*
X5881896D01*
Y5832678D01*
X5896606D01*
Y5834517D01*
X5926025D01*
Y5832678D01*
D02*
G37*
G36*
X5541733Y5873130D02*
X5565636D01*
Y5871291D01*
X5572991D01*
Y5869453D01*
X5578507D01*
Y5867614D01*
X5582184D01*
Y5865775D01*
X5584023D01*
Y5863936D01*
X5587701D01*
Y5862098D01*
X5589539D01*
Y5860259D01*
X5591378D01*
Y5858420D01*
X5593217D01*
Y5856582D01*
X5595056D01*
Y5854743D01*
X5596894D01*
Y5851066D01*
X5598733D01*
Y5845549D01*
X5600572D01*
Y5836356D01*
X5602410D01*
Y5829001D01*
X5600572D01*
Y5819807D01*
X5598733D01*
Y5814291D01*
X5596894D01*
Y5810613D01*
X5595056D01*
Y5806936D01*
X5593217D01*
Y5805097D01*
X5591378D01*
Y5803259D01*
X5589539D01*
Y5801420D01*
X5587701D01*
Y5799581D01*
X5584023D01*
Y5797743D01*
X5582184D01*
Y5795904D01*
X5578507D01*
Y5792226D01*
X5584023D01*
Y5790388D01*
X5589539D01*
Y5788549D01*
X5593217D01*
Y5786710D01*
X5595056D01*
Y5784872D01*
X5598733D01*
Y5783033D01*
X5600572D01*
Y5781194D01*
X5602410D01*
Y5779355D01*
X5604249D01*
Y5775678D01*
X5606088D01*
Y5773839D01*
X5607927D01*
Y5768323D01*
X5609765D01*
Y5727871D01*
X5607927D01*
Y5724194D01*
X5606088D01*
Y5720516D01*
X5604249D01*
Y5718678D01*
X5602410D01*
Y5715000D01*
X5600572D01*
Y5713161D01*
X5598733D01*
Y5711323D01*
X5596894D01*
Y5709484D01*
X5595056D01*
Y5707645D01*
X5591378D01*
Y5705806D01*
X5589539D01*
Y5703968D01*
X5585862D01*
Y5702129D01*
X5582184D01*
Y5700290D01*
X5576668D01*
Y5698452D01*
X5571152D01*
Y5696613D01*
X5561959D01*
Y5694774D01*
X5470023D01*
Y5873130D01*
X5471861D01*
Y5874969D01*
X5541733D01*
Y5873130D01*
D02*
G37*
G36*
X5251215Y5869453D02*
X5260408D01*
Y5867614D01*
X5265925D01*
Y5865775D01*
X5269602D01*
Y5863936D01*
X5273280D01*
Y5862098D01*
X5275118D01*
Y5860259D01*
X5276957D01*
Y5858420D01*
X5278796D01*
Y5856582D01*
X5280634D01*
Y5854743D01*
X5282473D01*
Y5852904D01*
X5284312D01*
Y5851066D01*
X5286150D01*
Y5849227D01*
X5287989D01*
Y5845549D01*
X5289828D01*
Y5840033D01*
X5291667D01*
Y5834517D01*
X5293505D01*
Y5823485D01*
X5295344D01*
Y5810613D01*
X5293505D01*
Y5799581D01*
X5291667D01*
Y5794065D01*
X5289828D01*
Y5790388D01*
X5287989D01*
Y5786710D01*
X5286150D01*
Y5784872D01*
X5284312D01*
Y5781194D01*
X5282473D01*
Y5779355D01*
X5280634D01*
Y5777517D01*
X5278796D01*
Y5775678D01*
X5276957D01*
Y5773839D01*
X5273280D01*
Y5772000D01*
X5271441D01*
Y5770162D01*
X5267763D01*
Y5768323D01*
X5264086D01*
Y5766484D01*
X5260408D01*
Y5764646D01*
X5253054D01*
Y5762807D01*
X5229150D01*
Y5760968D01*
X5194214D01*
Y5694774D01*
X5159279D01*
Y5705806D01*
Y5707645D01*
Y5871291D01*
X5251215D01*
Y5869453D01*
D02*
G37*
G36*
X4008967Y5886168D02*
X4126512D01*
Y5884968D01*
X4194881D01*
Y5883769D01*
X4203277D01*
Y5882569D01*
X4205676D01*
Y5881370D01*
X4210473D01*
Y5880171D01*
X4212872D01*
Y5878971D01*
X4216471D01*
Y5877772D01*
X4218869D01*
Y5876572D01*
X4221268D01*
Y5875373D01*
X4223667D01*
Y5874173D01*
X4226066D01*
Y5872974D01*
X4227266D01*
Y5871774D01*
X4229664D01*
Y5870575D01*
X4230864D01*
Y5869376D01*
X4233263D01*
Y5868176D01*
X4234462D01*
Y5866977D01*
X4235662D01*
Y5865777D01*
X4236861D01*
Y5863378D01*
X4238061D01*
Y5862179D01*
X4239260D01*
Y5860979D01*
X4240459D01*
Y5858581D01*
X4241659D01*
Y5856182D01*
X4242858D01*
Y5851384D01*
X4244058D01*
Y5829794D01*
X4242858D01*
Y5818999D01*
X4241659D01*
Y5816600D01*
X4240459D01*
Y5813002D01*
X4239260D01*
Y5809403D01*
X4238061D01*
Y5808204D01*
X4236861D01*
Y5804606D01*
X4235662D01*
Y5802207D01*
X4234462D01*
Y5801007D01*
X4233263D01*
Y5798608D01*
X4232063D01*
Y5797409D01*
X4230864D01*
Y5795010D01*
X4229664D01*
Y5793811D01*
X4228465D01*
Y5792611D01*
X4227266D01*
Y5790212D01*
X4226066D01*
Y5789013D01*
X4224867D01*
Y5786614D01*
X4223667D01*
Y5785414D01*
X4222468D01*
Y5784215D01*
X4221268D01*
Y5783016D01*
X4220069D01*
Y5781816D01*
X4218869D01*
Y5780617D01*
X4217670D01*
Y5779417D01*
X4216471D01*
Y5777018D01*
X4215271D01*
Y5775819D01*
X4214072D01*
Y5774619D01*
X4212872D01*
Y5773420D01*
X4210473D01*
Y5772221D01*
X4209274D01*
Y5771021D01*
X4208074D01*
Y5769822D01*
X4206875D01*
Y5768622D01*
X4205676D01*
Y5767423D01*
X4203277D01*
Y5766223D01*
X4202077D01*
Y5765024D01*
X4200878D01*
Y5761426D01*
X4202077D01*
Y5759027D01*
X4203277D01*
Y5757827D01*
X4204476D01*
Y5754229D01*
X4205676D01*
Y5751830D01*
X4206875D01*
Y5749431D01*
X4208074D01*
Y5744633D01*
X4209274D01*
Y5742234D01*
X4210473D01*
Y5732639D01*
X4209274D01*
Y5729041D01*
X4208074D01*
Y5723043D01*
X4206875D01*
Y5720644D01*
X4205676D01*
Y5717046D01*
X4204476D01*
Y5714647D01*
X4203277D01*
Y5712248D01*
X4202077D01*
Y5709849D01*
X4200878D01*
Y5707451D01*
X4199678D01*
Y5706251D01*
X4198479D01*
Y5702653D01*
X4197279D01*
Y5701453D01*
X4196080D01*
Y5700254D01*
X4194881D01*
Y5697855D01*
X4193681D01*
Y5696656D01*
X4192482D01*
Y5694257D01*
X4191282D01*
Y5693057D01*
X4190083D01*
Y5691858D01*
X4188883D01*
Y5690658D01*
X4187684D01*
Y5689459D01*
X4186484D01*
Y5687060D01*
X4184086D01*
Y5685861D01*
X4182886D01*
Y5684661D01*
X4181687D01*
Y5683462D01*
X4180487D01*
Y5682262D01*
X4179288D01*
Y5681063D01*
X4178088D01*
Y5679863D01*
X4176889D01*
Y5678664D01*
X4175689D01*
Y5677464D01*
X4173291D01*
Y5676265D01*
X4172091D01*
Y5675066D01*
X4169692D01*
Y5673866D01*
X4168493D01*
Y5672667D01*
X4166094D01*
Y5671467D01*
X4163695D01*
Y5670268D01*
X4161296D01*
Y5669068D01*
X4160097D01*
Y5667869D01*
X4156498D01*
Y5666669D01*
X4155299D01*
Y5665470D01*
X4151701D01*
Y5664271D01*
X4148102D01*
Y5663071D01*
X4146903D01*
Y5661872D01*
X4142105D01*
Y5660672D01*
X4138507D01*
Y5659473D01*
X4134908D01*
Y5658273D01*
X4128911D01*
Y5657074D01*
X4125313D01*
Y5655874D01*
X4114518D01*
Y5654675D01*
X4086931D01*
Y5653476D01*
X4053346D01*
Y5652276D01*
X3837446D01*
Y5657074D01*
X3838646D01*
Y5661872D01*
X3839845D01*
Y5664271D01*
X3841044D01*
Y5667869D01*
X3842244D01*
Y5671467D01*
X3843443D01*
Y5673866D01*
X3844643D01*
Y5678664D01*
X3845842D01*
Y5681063D01*
X3847042D01*
Y5684661D01*
X3848241D01*
Y5688259D01*
X3849441D01*
Y5690658D01*
X3850640D01*
Y5695456D01*
X3851839D01*
Y5697855D01*
X3853039D01*
Y5701453D01*
X3854238D01*
Y5706251D01*
X3855438D01*
Y5707451D01*
X3856637D01*
Y5712248D01*
X3857837D01*
Y5715847D01*
X3859036D01*
Y5718246D01*
X3860236D01*
Y5721844D01*
X3861435D01*
Y5724243D01*
X3862634D01*
Y5727841D01*
X3863834D01*
Y5732639D01*
X3865033D01*
Y5733838D01*
X3866233D01*
Y5738636D01*
X3867432D01*
Y5742234D01*
X3868632D01*
Y5744633D01*
X3869831D01*
Y5748232D01*
X3871031D01*
Y5750631D01*
X3872230D01*
Y5754229D01*
X3873429D01*
Y5759027D01*
X3874629D01*
Y5760226D01*
X3875828D01*
Y5765024D01*
X3877028D01*
Y5768622D01*
X3878227D01*
Y5771021D01*
X3879427D01*
Y5774619D01*
X3880626D01*
Y5777018D01*
X3881826D01*
Y5780617D01*
X3883025D01*
Y5785414D01*
X3884224D01*
Y5786614D01*
X3885424D01*
Y5791412D01*
X3886623D01*
Y5793811D01*
X3887823D01*
Y5797409D01*
X3889022D01*
Y5801007D01*
X3890222D01*
Y5803406D01*
X3891421D01*
Y5807004D01*
X3892621D01*
Y5811802D01*
X3893820D01*
Y5813002D01*
X3895019D01*
Y5817799D01*
X3896219D01*
Y5821398D01*
X3897418D01*
Y5823797D01*
X3898618D01*
Y5827395D01*
X3899817D01*
Y5829794D01*
X3901017D01*
Y5833392D01*
X3902216D01*
Y5836991D01*
X3903416D01*
Y5839389D01*
X3904615D01*
Y5844187D01*
X3905814D01*
Y5846586D01*
X3907014D01*
Y5848985D01*
X3908213D01*
Y5853783D01*
X3909413D01*
Y5856182D01*
X3910612D01*
Y5859780D01*
X3911812D01*
Y5863378D01*
X3913011D01*
Y5865777D01*
X3914211D01*
Y5869376D01*
X3915410D01*
Y5872974D01*
X3916609D01*
Y5875373D01*
X3917809D01*
Y5880171D01*
X3919008D01*
Y5882569D01*
X3920208D01*
Y5886168D01*
X3921407D01*
Y5887367D01*
X4008967D01*
Y5886168D01*
D02*
G37*
G36*
X4543919Y5557520D02*
X4545118D01*
Y5555121D01*
X4547517D01*
Y5552722D01*
X4548717D01*
Y5550323D01*
X4547517D01*
Y5547924D01*
X4545118D01*
Y5545526D01*
X4542719D01*
Y5544326D01*
X4540321D01*
Y5541927D01*
X4535523D01*
Y5539528D01*
X4531924D01*
Y5538329D01*
X4524728D01*
Y5535930D01*
X4515132D01*
Y5537129D01*
X4513933D01*
Y5538329D01*
X4511534D01*
Y5539528D01*
X4509135D01*
Y5541927D01*
X4506736D01*
Y5544326D01*
X4507936D01*
Y5545526D01*
X4512733D01*
Y5547924D01*
X4519930D01*
Y5549124D01*
X4525927D01*
Y5551523D01*
X4530725D01*
Y5553922D01*
X4534323D01*
Y5555121D01*
X4535523D01*
Y5557520D01*
X4537922D01*
Y5558719D01*
X4543919D01*
Y5557520D01*
D02*
G37*
G36*
X4007767Y5563517D02*
X4014964D01*
Y5561118D01*
X4020961D01*
Y5558719D01*
X4018562D01*
Y5557520D01*
X4017363D01*
Y5555121D01*
X4013764D01*
Y5553922D01*
X4011366D01*
Y5551523D01*
X4008967D01*
Y5549124D01*
X4006568D01*
Y5547924D01*
X4004169D01*
Y5546725D01*
X4002969D01*
Y5545526D01*
X4001770D01*
Y5539528D01*
X4013764D01*
Y5540728D01*
X4014964D01*
Y5541927D01*
X4026958D01*
Y5544326D01*
X4037753D01*
Y5545526D01*
X4095327D01*
Y5544326D01*
X4104922D01*
Y5541927D01*
X4110919D01*
Y5540728D01*
X4112119D01*
Y5539528D01*
X4115717D01*
Y5538329D01*
X4119316D01*
Y5535930D01*
X4122914D01*
Y5534731D01*
X4124113D01*
Y5532332D01*
X4126512D01*
Y5531132D01*
X4127712D01*
Y5529933D01*
X4128911D01*
Y5528733D01*
X4130111D01*
Y5526334D01*
X4132509D01*
Y5520337D01*
X4133709D01*
Y5513141D01*
X4132509D01*
Y5507143D01*
X4130111D01*
Y5503545D01*
X4128911D01*
Y5499947D01*
X4126512D01*
Y5497548D01*
X4125313D01*
Y5496348D01*
X4124113D01*
Y5493949D01*
X4122914D01*
Y5491551D01*
X4120515D01*
Y5490351D01*
X4119316D01*
Y5486753D01*
X4116917D01*
Y5484354D01*
X4114518D01*
Y5481955D01*
X4113318D01*
Y5480756D01*
X4110919D01*
Y5478357D01*
X4109720D01*
Y5477157D01*
X4107321D01*
Y5474758D01*
X4104922D01*
Y5472359D01*
X4101324D01*
Y5471160D01*
X4100124D01*
Y5468761D01*
X4097726D01*
Y5467562D01*
X4096526D01*
Y5466362D01*
X4095327D01*
Y5465163D01*
X4091728D01*
Y5462764D01*
X4090529D01*
Y5461564D01*
X4085731D01*
Y5459166D01*
X4084532D01*
Y5457966D01*
X4080933D01*
Y5455567D01*
X4076136D01*
Y5453168D01*
X4072537D01*
Y5451969D01*
X4068939D01*
Y5449570D01*
X4064141D01*
Y5448371D01*
X4062942D01*
Y5447171D01*
X4059343D01*
Y5445972D01*
X4055745D01*
Y5443573D01*
X4049748D01*
Y5442373D01*
X4043751D01*
Y5439974D01*
X4037753D01*
Y5437576D01*
X4031756D01*
Y5436376D01*
X4025759D01*
Y5435177D01*
X4024559D01*
Y5433977D01*
X4018562D01*
Y5432778D01*
X4011366D01*
Y5430379D01*
X4001770D01*
Y5427980D01*
X3992174D01*
Y5426781D01*
X3981379D01*
Y5425581D01*
X3980180D01*
Y5424382D01*
X3969385D01*
Y5423182D01*
X3953792D01*
Y5420783D01*
X3940598D01*
Y5418384D01*
X3932202D01*
Y5413587D01*
X3935801D01*
Y5411188D01*
X3940598D01*
Y5409988D01*
X3941798D01*
Y5408789D01*
X3945396D01*
Y5407589D01*
X3951393D01*
Y5405191D01*
X3957391D01*
Y5403991D01*
X3964587D01*
Y5401592D01*
X3970584D01*
Y5400393D01*
X3971784D01*
Y5399193D01*
X3978981D01*
Y5397994D01*
X3986177D01*
Y5395595D01*
X3995773D01*
Y5394396D01*
X4040152D01*
Y5395595D01*
X4050947D01*
Y5397994D01*
X4059343D01*
Y5399193D01*
X4066540D01*
Y5401592D01*
X4072537D01*
Y5403991D01*
X4078534D01*
Y5405191D01*
X4084532D01*
Y5407589D01*
X4089329D01*
Y5408789D01*
X4092928D01*
Y5409988D01*
X4094127D01*
Y5411188D01*
X4098925D01*
Y5412387D01*
X4100124D01*
Y5413587D01*
X4103723D01*
Y5414786D01*
X4107321D01*
Y5415986D01*
X4108521D01*
Y5417185D01*
X4113318D01*
Y5418384D01*
X4115717D01*
Y5419584D01*
X4116917D01*
Y5420783D01*
X4120515D01*
Y5423182D01*
X4124113D01*
Y5424382D01*
X4126512D01*
Y5425581D01*
X4127712D01*
Y5426781D01*
X4130111D01*
Y5427980D01*
X4132509D01*
Y5429179D01*
X4133709D01*
Y5430379D01*
X4136108D01*
Y5432778D01*
X4139706D01*
Y5433977D01*
X4142105D01*
Y5436376D01*
X4143304D01*
Y5437576D01*
X4144504D01*
Y5438775D01*
X4146903D01*
Y5439974D01*
X4149302D01*
Y5442373D01*
X4151701D01*
Y5443573D01*
X4155299D01*
Y5445972D01*
X4157698D01*
Y5448371D01*
X4161296D01*
Y5449570D01*
X4164894D01*
Y5451969D01*
X4168493D01*
Y5453168D01*
X4170892D01*
Y5454368D01*
X4172091D01*
Y5455567D01*
X4175689D01*
Y5456767D01*
X4176889D01*
Y5457966D01*
X4180487D01*
Y5459166D01*
X4184086D01*
Y5461564D01*
X4190083D01*
Y5462764D01*
X4193681D01*
Y5465163D01*
X4199678D01*
Y5467562D01*
X4205676D01*
Y5468761D01*
X4210473D01*
Y5471160D01*
X4216471D01*
Y5472359D01*
X4222468D01*
Y5473559D01*
X4224867D01*
Y5474758D01*
X4229664D01*
Y5475958D01*
X4230864D01*
Y5477157D01*
X4238061D01*
Y5478357D01*
X4245257D01*
Y5480756D01*
X4263249D01*
Y5478357D01*
X4264448D01*
Y5473559D01*
X4263249D01*
Y5468761D01*
X4260850D01*
Y5465163D01*
X4259651D01*
Y5461564D01*
X4257252D01*
Y5457966D01*
X4256052D01*
Y5456767D01*
X4254853D01*
Y5453168D01*
X4253653D01*
Y5449570D01*
X4251254D01*
Y5443573D01*
X4250055D01*
Y5439974D01*
X4247656D01*
Y5433977D01*
X4245257D01*
Y5427980D01*
X4244058D01*
Y5420783D01*
X4241659D01*
Y5405191D01*
X4247656D01*
Y5407589D01*
X4250055D01*
Y5409988D01*
X4251254D01*
Y5411188D01*
X4252454D01*
Y5412387D01*
X4253653D01*
Y5414786D01*
X4254853D01*
Y5417185D01*
X4257252D01*
Y5418384D01*
X4258451D01*
Y5419584D01*
X4259651D01*
Y5420783D01*
X4260850D01*
Y5423182D01*
X4262049D01*
Y5424382D01*
X4263249D01*
Y5426781D01*
X4264448D01*
Y5427980D01*
X4265648D01*
Y5429179D01*
X4266847D01*
Y5430379D01*
X4268047D01*
Y5431578D01*
X4269246D01*
Y5433977D01*
X4270446D01*
Y5436376D01*
X4272844D01*
Y5438775D01*
X4274044D01*
Y5439974D01*
X4276443D01*
Y5442373D01*
X4278842D01*
Y5444772D01*
X4280041D01*
Y5448371D01*
X4282440D01*
Y5449570D01*
X4283639D01*
Y5451969D01*
X4286038D01*
Y5453168D01*
X4288437D01*
Y5455567D01*
X4289637D01*
Y5457966D01*
X4292036D01*
Y5459166D01*
X4293235D01*
Y5461564D01*
X4295634D01*
Y5462764D01*
X4298033D01*
Y5465163D01*
X4301631D01*
Y5467562D01*
X4302831D01*
Y5468761D01*
X4305229D01*
Y5471160D01*
X4308828D01*
Y5472359D01*
X4311227D01*
Y5473559D01*
X4312426D01*
Y5474758D01*
X4314825D01*
Y5477157D01*
X4318423D01*
Y5478357D01*
X4322022D01*
Y5480756D01*
X4326819D01*
Y5481955D01*
X4330418D01*
Y5484354D01*
X4334016D01*
Y5486753D01*
X4340013D01*
Y5487952D01*
X4343612D01*
Y5490351D01*
X4349609D01*
Y5491551D01*
X4354407D01*
Y5492750D01*
X4355606D01*
Y5493949D01*
X4360404D01*
Y5496348D01*
X4366401D01*
Y5497548D01*
X4372398D01*
Y5499947D01*
X4379595D01*
Y5501146D01*
X4395188D01*
Y5499947D01*
X4403584D01*
Y5497548D01*
X4409581D01*
Y5496348D01*
X4414379D01*
Y5495149D01*
X4415578D01*
Y5493949D01*
X4419177D01*
Y5491551D01*
X4420376D01*
Y5490351D01*
X4419177D01*
Y5487952D01*
X4410781D01*
Y5486753D01*
X4377196D01*
Y5485553D01*
X4375997D01*
Y5484354D01*
X4367601D01*
Y5483154D01*
X4366401D01*
Y5481955D01*
X4361603D01*
Y5480756D01*
X4356806D01*
Y5478357D01*
X4353207D01*
Y5477157D01*
X4349609D01*
Y5474758D01*
X4346011D01*
Y5472359D01*
X4343612D01*
Y5471160D01*
X4342412D01*
Y5468761D01*
X4338814D01*
Y5467562D01*
X4337614D01*
Y5466362D01*
X4336415D01*
Y5465163D01*
X4335216D01*
Y5463963D01*
X4334016D01*
Y5461564D01*
X4332817D01*
Y5460365D01*
X4331617D01*
Y5459166D01*
X4330418D01*
Y5456767D01*
X4328019D01*
Y5453168D01*
X4326819D01*
Y5451969D01*
X4324421D01*
Y5447171D01*
X4322022D01*
Y5443573D01*
X4320822D01*
Y5439974D01*
X4318423D01*
Y5433977D01*
X4317224D01*
Y5420783D01*
X4316024D01*
Y5419584D01*
X4314825D01*
Y5409988D01*
X4317224D01*
Y5399193D01*
X4318423D01*
Y5397994D01*
X4335216D01*
Y5399193D01*
X4338814D01*
Y5400393D01*
X4340013D01*
Y5401592D01*
X4343612D01*
Y5403991D01*
X4347210D01*
Y5405191D01*
X4350808D01*
Y5407589D01*
X4355606D01*
Y5408789D01*
X4358005D01*
Y5409988D01*
X4359204D01*
Y5411188D01*
X4362803D01*
Y5413587D01*
X4366401D01*
Y5414786D01*
X4368800D01*
Y5417185D01*
X4372398D01*
Y5418384D01*
X4374797D01*
Y5419584D01*
X4375997D01*
Y5420783D01*
X4378396D01*
Y5423182D01*
X4381994D01*
Y5424382D01*
X4384393D01*
Y5425581D01*
X4385592D01*
Y5426781D01*
X4387991D01*
Y5427980D01*
X4389191D01*
Y5429179D01*
X4391589D01*
Y5430379D01*
X4393988D01*
Y5432778D01*
X4396387D01*
Y5433977D01*
X4398786D01*
Y5435177D01*
X4399986D01*
Y5436376D01*
X4401185D01*
Y5437576D01*
X4402384D01*
Y5438775D01*
X4404783D01*
Y5439974D01*
X4407182D01*
Y5442373D01*
X4409581D01*
Y5443573D01*
X4413179D01*
Y5445972D01*
X4414379D01*
Y5448371D01*
X4416778D01*
Y5449570D01*
X4420376D01*
Y5451969D01*
X4422775D01*
Y5453168D01*
X4423974D01*
Y5455567D01*
X4427573D01*
Y5457966D01*
X4429972D01*
Y5459166D01*
X4432371D01*
Y5461564D01*
X4433570D01*
Y5462764D01*
X4435969D01*
Y5463963D01*
X4437168D01*
Y5465163D01*
X4439567D01*
Y5467562D01*
X4441966D01*
Y5468761D01*
X4443166D01*
Y5471160D01*
X4445564D01*
Y5472359D01*
X4447963D01*
Y5474758D01*
X4450362D01*
Y5477157D01*
X4452761D01*
Y5478357D01*
X4455160D01*
Y5480756D01*
X4457559D01*
Y5481955D01*
X4458758D01*
Y5484354D01*
X4462357D01*
Y5486753D01*
X4464756D01*
Y5487952D01*
X4468354D01*
Y5490351D01*
X4480348D01*
Y5487952D01*
X4486346D01*
Y5485553D01*
X4483947D01*
Y5481955D01*
X4482747D01*
Y5480756D01*
X4480348D01*
Y5478357D01*
X4477949D01*
Y5475958D01*
X4476750D01*
Y5473559D01*
X4475551D01*
Y5472359D01*
X4474351D01*
Y5471160D01*
X4473152D01*
Y5469961D01*
X4471952D01*
Y5468761D01*
X4470753D01*
Y5467562D01*
X4469553D01*
Y5466362D01*
X4468354D01*
Y5465163D01*
X4467154D01*
Y5462764D01*
X4464756D01*
Y5459166D01*
X4462357D01*
Y5457966D01*
X4461157D01*
Y5455567D01*
X4458758D01*
Y5453168D01*
X4457559D01*
Y5451969D01*
X4456359D01*
Y5450769D01*
X4455160D01*
Y5447171D01*
X4452761D01*
Y5445972D01*
X4451562D01*
Y5443573D01*
X4450362D01*
Y5442373D01*
X4449163D01*
Y5439974D01*
X4447963D01*
Y5436376D01*
X4445564D01*
Y5431578D01*
X4444365D01*
Y5430379D01*
X4443166D01*
Y5411188D01*
X4452761D01*
Y5413587D01*
X4457559D01*
Y5414786D01*
X4461157D01*
Y5417185D01*
X4462357D01*
Y5418384D01*
X4464756D01*
Y5419584D01*
X4467154D01*
Y5420783D01*
X4468354D01*
Y5423182D01*
X4471952D01*
Y5424382D01*
X4474351D01*
Y5426781D01*
X4476750D01*
Y5427980D01*
X4479149D01*
Y5429179D01*
X4480348D01*
Y5430379D01*
X4481548D01*
Y5432778D01*
X4486346D01*
Y5433977D01*
X4487545D01*
Y5436376D01*
X4489944D01*
Y5437576D01*
X4491143D01*
Y5438775D01*
X4493542D01*
Y5439974D01*
X4495941D01*
Y5442373D01*
X4499539D01*
Y5443573D01*
X4500739D01*
Y5444772D01*
X4501938D01*
Y5445972D01*
X4503138D01*
Y5448371D01*
X4506736D01*
Y5449570D01*
X4509135D01*
Y5451969D01*
X4511534D01*
Y5453168D01*
X4513933D01*
Y5454368D01*
X4515132D01*
Y5455567D01*
X4516332D01*
Y5457966D01*
X4518731D01*
Y5459166D01*
X4522329D01*
Y5461564D01*
X4524728D01*
Y5462764D01*
X4525927D01*
Y5465163D01*
X4529526D01*
Y5466362D01*
X4530725D01*
Y5467562D01*
X4531924D01*
Y5468761D01*
X4534323D01*
Y5471160D01*
X4537922D01*
Y5472359D01*
X4539121D01*
Y5473559D01*
X4540321D01*
Y5474758D01*
X4541520D01*
Y5477157D01*
X4545118D01*
Y5478357D01*
X4547517D01*
Y5480756D01*
X4549916D01*
Y5481955D01*
X4552315D01*
Y5483154D01*
X4553514D01*
Y5484354D01*
X4554714D01*
Y5486753D01*
X4558312D01*
Y5487952D01*
X4560711D01*
Y5490351D01*
X4563110D01*
Y5491551D01*
X4565509D01*
Y5492750D01*
X4566708D01*
Y5493949D01*
X4569107D01*
Y5496348D01*
X4570307D01*
Y5497548D01*
X4573905D01*
Y5499947D01*
X4576304D01*
Y5501146D01*
X4578703D01*
Y5502346D01*
X4579902D01*
Y5503545D01*
X4582301D01*
Y5505944D01*
X4583501D01*
Y5507143D01*
X4588298D01*
Y5509542D01*
X4589498D01*
Y5510742D01*
X4593096D01*
Y5513141D01*
X4597894D01*
Y5515539D01*
X4601492D01*
Y5516739D01*
X4611088D01*
Y5515539D01*
X4614686D01*
Y5513141D01*
X4617085D01*
Y5509542D01*
X4614686D01*
Y5505944D01*
X4613487D01*
Y5503545D01*
X4612287D01*
Y5501146D01*
X4611088D01*
Y5497548D01*
X4608689D01*
Y5495149D01*
X4607489D01*
Y5491551D01*
X4605091D01*
Y5487952D01*
X4602692D01*
Y5484354D01*
X4601492D01*
Y5481955D01*
X4600293D01*
Y5480756D01*
X4599093D01*
Y5478357D01*
X4597894D01*
Y5471160D01*
X4602692D01*
Y5472359D01*
X4606290D01*
Y5473559D01*
X4607489D01*
Y5474758D01*
X4608689D01*
Y5477157D01*
X4611088D01*
Y5478357D01*
X4614686D01*
Y5480756D01*
X4617085D01*
Y5481955D01*
X4619484D01*
Y5483154D01*
X4620683D01*
Y5484354D01*
X4621883D01*
Y5486753D01*
X4626681D01*
Y5487952D01*
X4630279D01*
Y5490351D01*
X4633877D01*
Y5491551D01*
X4637476D01*
Y5493949D01*
X4643473D01*
Y5496348D01*
X4650669D01*
Y5497548D01*
X4666262D01*
Y5496348D01*
X4671060D01*
Y5493949D01*
X4672259D01*
Y5490351D01*
X4671060D01*
Y5487952D01*
X4668661D01*
Y5486753D01*
X4667462D01*
Y5485553D01*
X4666262D01*
Y5484354D01*
X4665063D01*
Y5481955D01*
X4662664D01*
Y5478357D01*
X4661464D01*
Y5477157D01*
X4660265D01*
Y5475958D01*
X4659066D01*
Y5474758D01*
X4657866D01*
Y5472359D01*
X4656667D01*
Y5471160D01*
X4655467D01*
Y5468761D01*
X4654268D01*
Y5467562D01*
X4653068D01*
Y5465163D01*
X4651869D01*
Y5461564D01*
X4649470D01*
Y5457966D01*
X4648271D01*
Y5456767D01*
X4647071D01*
Y5448371D01*
X4653068D01*
Y5449570D01*
X4656667D01*
Y5451969D01*
X4659066D01*
Y5453168D01*
X4662664D01*
Y5455567D01*
X4665063D01*
Y5457966D01*
X4668661D01*
Y5459166D01*
X4671060D01*
Y5460365D01*
X4672259D01*
Y5461564D01*
X4674658D01*
Y5462764D01*
X4678257D01*
Y5465163D01*
X4680656D01*
Y5467562D01*
X4684254D01*
Y5468761D01*
X4686653D01*
Y5469961D01*
X4687852D01*
Y5471160D01*
X4690251D01*
Y5472359D01*
X4693849D01*
Y5474758D01*
X4697448D01*
Y5477157D01*
X4699847D01*
Y5478357D01*
X4703445D01*
Y5480756D01*
X4707043D01*
Y5481955D01*
X4709442D01*
Y5484354D01*
X4713041D01*
Y5486753D01*
X4716639D01*
Y5487952D01*
X4719038D01*
Y5489152D01*
X4720237D01*
Y5490351D01*
X4722636D01*
Y5491551D01*
X4726234D01*
Y5493949D01*
X4729833D01*
Y5496348D01*
X4733431D01*
Y5497548D01*
X4737029D01*
Y5498747D01*
X4738229D01*
Y5499947D01*
X4741827D01*
Y5501146D01*
X4745426D01*
Y5503545D01*
X4751423D01*
Y5505944D01*
X4756221D01*
Y5507143D01*
X4762218D01*
Y5509542D01*
X4768215D01*
Y5510742D01*
X4775412D01*
Y5511941D01*
X4776611D01*
Y5513141D01*
X4785007D01*
Y5514340D01*
X4786207D01*
Y5515539D01*
X4795802D01*
Y5516739D01*
X4807797D01*
Y5517938D01*
X4808996D01*
Y5519138D01*
X4850977D01*
Y5516739D01*
X4856974D01*
Y5515539D01*
X4862971D01*
Y5513141D01*
X4868968D01*
Y5510742D01*
X4872567D01*
Y5509542D01*
X4874966D01*
Y5508343D01*
X4876165D01*
Y5507143D01*
X4878564D01*
Y5505944D01*
X4879763D01*
Y5503545D01*
X4882162D01*
Y5502346D01*
X4883362D01*
Y5499947D01*
X4882162D01*
Y5497548D01*
X4878564D01*
Y5496348D01*
X4870168D01*
Y5497548D01*
X4864171D01*
Y5498747D01*
X4862971D01*
Y5499947D01*
X4856974D01*
Y5501146D01*
X4850977D01*
Y5503545D01*
X4841381D01*
Y5505944D01*
X4798201D01*
Y5504744D01*
X4797002D01*
Y5503545D01*
X4787406D01*
Y5501146D01*
X4782608D01*
Y5499947D01*
X4776611D01*
Y5497548D01*
X4770614D01*
Y5496348D01*
X4767016D01*
Y5493949D01*
X4761018D01*
Y5491551D01*
X4757420D01*
Y5490351D01*
X4753822D01*
Y5489152D01*
X4751423D01*
Y5487952D01*
X4747824D01*
Y5486753D01*
X4744226D01*
Y5484354D01*
X4739428D01*
Y5481955D01*
X4735830D01*
Y5480756D01*
X4732232D01*
Y5478357D01*
X4729833D01*
Y5477157D01*
X4726234D01*
Y5474758D01*
X4722636D01*
Y5472359D01*
X4720237D01*
Y5471160D01*
X4716639D01*
Y5468761D01*
X4714240D01*
Y5467562D01*
X4713041D01*
Y5465163D01*
X4709442D01*
Y5462764D01*
X4707043D01*
Y5461564D01*
X4705844D01*
Y5460365D01*
X4704644D01*
Y5459166D01*
X4703445D01*
Y5456767D01*
X4701046D01*
Y5455567D01*
X4699847D01*
Y5453168D01*
X4697448D01*
Y5451969D01*
X4696248D01*
Y5450769D01*
X4695049D01*
Y5449570D01*
X4693849D01*
Y5447171D01*
X4691451D01*
Y5443573D01*
X4690251D01*
Y5442373D01*
X4687852D01*
Y5439974D01*
X4685453D01*
Y5436376D01*
X4684254D01*
Y5433977D01*
X4681855D01*
Y5420783D01*
X4698647D01*
Y5423182D01*
X4704644D01*
Y5424382D01*
X4710642D01*
Y5426781D01*
X4716639D01*
Y5427980D01*
X4720237D01*
Y5429179D01*
X4722636D01*
Y5430379D01*
X4727434D01*
Y5432778D01*
X4732232D01*
Y5433977D01*
X4738229D01*
Y5436376D01*
X4743027D01*
Y5437576D01*
X4744226D01*
Y5438775D01*
X4747824D01*
Y5439974D01*
X4752622D01*
Y5442373D01*
X4757420D01*
Y5443573D01*
X4762218D01*
Y5445972D01*
X4768215D01*
Y5448371D01*
X4771813D01*
Y5449570D01*
X4776611D01*
Y5450769D01*
X4777811D01*
Y5451969D01*
X4781409D01*
Y5453168D01*
X4786207D01*
Y5455567D01*
X4791004D01*
Y5457966D01*
X4795802D01*
Y5459166D01*
X4799401D01*
Y5460365D01*
X4800600D01*
Y5461564D01*
X4805398D01*
Y5462764D01*
X4808996D01*
Y5465163D01*
X4812594D01*
Y5467562D01*
X4818592D01*
Y5468761D01*
X4822190D01*
Y5471160D01*
X4825788D01*
Y5472359D01*
X4829387D01*
Y5473559D01*
X4830586D01*
Y5474758D01*
X4834184D01*
Y5477157D01*
X4838982D01*
Y5478357D01*
X4843780D01*
Y5480756D01*
X4848578D01*
Y5481955D01*
X4862971D01*
Y5480756D01*
X4866569D01*
Y5478357D01*
X4865370D01*
Y5475958D01*
X4864171D01*
Y5474758D01*
X4862971D01*
Y5472359D01*
X4860572D01*
Y5471160D01*
X4859373D01*
Y5468761D01*
X4856974D01*
Y5466362D01*
X4855774D01*
Y5465163D01*
X4854575D01*
Y5462764D01*
X4853376D01*
Y5461564D01*
X4850977D01*
Y5459166D01*
X4849777D01*
Y5453168D01*
X4859373D01*
Y5454368D01*
X4860572D01*
Y5455567D01*
X4870168D01*
Y5457966D01*
X4878564D01*
Y5459166D01*
X4886960D01*
Y5460365D01*
X4888159D01*
Y5461564D01*
X4896556D01*
Y5462764D01*
X4904952D01*
Y5465163D01*
X4914547D01*
Y5467562D01*
X4924143D01*
Y5468761D01*
X4934938D01*
Y5469961D01*
X4936137D01*
Y5471160D01*
X4945733D01*
Y5472359D01*
X4956528D01*
Y5474758D01*
X4968522D01*
Y5477157D01*
X4981716D01*
Y5478357D01*
X4994910D01*
Y5480756D01*
X5010503D01*
Y5481955D01*
X5028494D01*
Y5483154D01*
X5029694D01*
Y5484354D01*
X5053683D01*
Y5474758D01*
X5038090D01*
Y5472359D01*
X5018899D01*
Y5471160D01*
X5003306D01*
Y5468761D01*
X4987713D01*
Y5467562D01*
X4975719D01*
Y5466362D01*
X4974519D01*
Y5465163D01*
X4962525D01*
Y5462764D01*
X4950531D01*
Y5461564D01*
X4939736D01*
Y5459166D01*
X4930140D01*
Y5457966D01*
X4922943D01*
Y5456767D01*
X4920544D01*
Y5455567D01*
X4910949D01*
Y5453168D01*
X4902553D01*
Y5451969D01*
X4894157D01*
Y5449570D01*
X4885761D01*
Y5448371D01*
X4882162D01*
Y5447171D01*
X4878564D01*
Y5445972D01*
X4870168D01*
Y5443573D01*
X4862971D01*
Y5442373D01*
X4855774D01*
Y5441174D01*
X4854575D01*
Y5439974D01*
X4847378D01*
Y5437576D01*
X4841381D01*
Y5436376D01*
X4835384D01*
Y5433977D01*
X4830586D01*
Y5432778D01*
X4826988D01*
Y5431578D01*
X4825788D01*
Y5430379D01*
X4822190D01*
Y5427980D01*
X4820991D01*
Y5426781D01*
X4818592D01*
Y5424382D01*
X4816193D01*
Y5423182D01*
X4814993D01*
Y5420783D01*
X4812594D01*
Y5418384D01*
X4811395D01*
Y5417185D01*
X4808996D01*
Y5414786D01*
X4806597D01*
Y5413587D01*
X4805398D01*
Y5411188D01*
X4802999D01*
Y5408789D01*
X4801799D01*
Y5407589D01*
X4799401D01*
Y5405191D01*
X4797002D01*
Y5403991D01*
X4795802D01*
Y5401592D01*
X4793403D01*
Y5399193D01*
X4792204D01*
Y5397994D01*
X4789805D01*
Y5395595D01*
X4787406D01*
Y5394396D01*
X4786207D01*
Y5391997D01*
X4783808D01*
Y5389598D01*
X4782608D01*
Y5388398D01*
X4780209D01*
Y5385999D01*
X4777811D01*
Y5384800D01*
X4776611D01*
Y5382401D01*
X4774212D01*
Y5380002D01*
X4773013D01*
Y5378803D01*
X4770614D01*
Y5376404D01*
X4768215D01*
Y5375204D01*
X4767016D01*
Y5372806D01*
X4764617D01*
Y5370407D01*
X4763417D01*
Y5369207D01*
X4759819D01*
Y5366808D01*
X4757420D01*
Y5365609D01*
X4756221D01*
Y5364409D01*
X4755021D01*
Y5363210D01*
X4753822D01*
Y5360811D01*
X4751423D01*
Y5359612D01*
X4749024D01*
Y5357213D01*
X4747824D01*
Y5356013D01*
X4745426D01*
Y5353614D01*
X4743027D01*
Y5351216D01*
X4741827D01*
Y5350016D01*
X4739428D01*
Y5347617D01*
X4735830D01*
Y5345218D01*
X4734631D01*
Y5344019D01*
X4732232D01*
Y5341620D01*
X4729833D01*
Y5340421D01*
X4728633D01*
Y5338022D01*
X4726234D01*
Y5336822D01*
X4725035D01*
Y5335623D01*
X4723836D01*
Y5334423D01*
X4722636D01*
Y5332024D01*
X4719038D01*
Y5330825D01*
X4716639D01*
Y5328426D01*
X4714240D01*
Y5327227D01*
X4713041D01*
Y5324828D01*
X4710642D01*
Y5322429D01*
X4709442D01*
Y5321229D01*
X4707043D01*
Y5320030D01*
X4705844D01*
Y5318831D01*
X4703445D01*
Y5316432D01*
X4701046D01*
Y5315232D01*
X4699847D01*
Y5312833D01*
X4697448D01*
Y5311634D01*
X4695049D01*
Y5310434D01*
X4693849D01*
Y5309235D01*
X4691451D01*
Y5306836D01*
X4690251D01*
Y5305637D01*
X4687852D01*
Y5303238D01*
X4685453D01*
Y5302038D01*
X4683054D01*
Y5300839D01*
X4681855D01*
Y5299639D01*
X4680656D01*
Y5297241D01*
X4678257D01*
Y5296041D01*
X4675858D01*
Y5293642D01*
X4672259D01*
Y5292443D01*
X4671060D01*
Y5290044D01*
X4668661D01*
Y5287645D01*
X4665063D01*
Y5286446D01*
X4662664D01*
Y5284047D01*
X4661464D01*
Y5282847D01*
X4657866D01*
Y5281648D01*
X4656667D01*
Y5280448D01*
X4655467D01*
Y5278049D01*
X4651869D01*
Y5276850D01*
X4649470D01*
Y5274451D01*
X4645872D01*
Y5273252D01*
X4643473D01*
Y5272052D01*
X4642273D01*
Y5270853D01*
X4639874D01*
Y5268454D01*
X4636276D01*
Y5267254D01*
X4632678D01*
Y5264856D01*
X4629079D01*
Y5263656D01*
X4626681D01*
Y5262457D01*
X4624282D01*
Y5261257D01*
X4620683D01*
Y5258858D01*
X4617085D01*
Y5257659D01*
X4613487D01*
Y5255260D01*
X4608689D01*
Y5254061D01*
X4603891D01*
Y5252861D01*
X4602692D01*
Y5251662D01*
X4597894D01*
Y5249263D01*
X4591897D01*
Y5248063D01*
X4583501D01*
Y5246864D01*
X4582301D01*
Y5245664D01*
X4559512D01*
Y5246864D01*
X4558312D01*
Y5248063D01*
X4553514D01*
Y5249263D01*
X4548717D01*
Y5251662D01*
X4545118D01*
Y5254061D01*
X4543919D01*
Y5255260D01*
X4541520D01*
Y5256459D01*
X4540321D01*
Y5258858D01*
X4537922D01*
Y5261257D01*
X4535523D01*
Y5268454D01*
X4534323D01*
Y5274451D01*
X4535523D01*
Y5282847D01*
X4537922D01*
Y5286446D01*
X4539121D01*
Y5287645D01*
X4540321D01*
Y5290044D01*
X4541520D01*
Y5292443D01*
X4542719D01*
Y5293642D01*
X4543919D01*
Y5296041D01*
X4545118D01*
Y5297241D01*
X4546318D01*
Y5298440D01*
X4547517D01*
Y5299639D01*
X4549916D01*
Y5302038D01*
X4551116D01*
Y5303238D01*
X4553514D01*
Y5305637D01*
X4554714D01*
Y5308036D01*
X4557113D01*
Y5309235D01*
X4559512D01*
Y5311634D01*
X4560711D01*
Y5312833D01*
X4564309D01*
Y5315232D01*
X4566708D01*
Y5317631D01*
X4569107D01*
Y5318831D01*
X4570307D01*
Y5321229D01*
X4573905D01*
Y5322429D01*
X4576304D01*
Y5324828D01*
X4578703D01*
Y5327227D01*
X4582301D01*
Y5328426D01*
X4583501D01*
Y5330825D01*
X4587099D01*
Y5332024D01*
X4589498D01*
Y5334423D01*
X4591897D01*
Y5336822D01*
X4595495D01*
Y5338022D01*
X4597894D01*
Y5340421D01*
X4601492D01*
Y5341620D01*
X4602692D01*
Y5342819D01*
X4605091D01*
Y5344019D01*
X4607489D01*
Y5346418D01*
X4611088D01*
Y5347617D01*
X4612287D01*
Y5350016D01*
X4617085D01*
Y5351216D01*
X4618284D01*
Y5352415D01*
X4619484D01*
Y5353614D01*
X4621883D01*
Y5356013D01*
X4626681D01*
Y5357213D01*
X4629079D01*
Y5358412D01*
X4630279D01*
Y5359612D01*
X4631478D01*
Y5360811D01*
X4635077D01*
Y5362011D01*
X4636276D01*
Y5363210D01*
X4639874D01*
Y5365609D01*
X4642273D01*
Y5366808D01*
X4645872D01*
Y5369207D01*
X4649470D01*
Y5370407D01*
X4653068D01*
Y5372806D01*
X4656667D01*
Y5375204D01*
X4660265D01*
Y5376404D01*
X4662664D01*
Y5378803D01*
X4666262D01*
Y5380002D01*
X4669861D01*
Y5381202D01*
X4671060D01*
Y5382401D01*
X4674658D01*
Y5384800D01*
X4678257D01*
Y5385999D01*
X4681855D01*
Y5388398D01*
X4685453D01*
Y5389598D01*
X4689052D01*
Y5390797D01*
X4690251D01*
Y5391997D01*
X4693849D01*
Y5394396D01*
X4697448D01*
Y5395595D01*
X4701046D01*
Y5397994D01*
X4707043D01*
Y5399193D01*
X4709442D01*
Y5400393D01*
X4710642D01*
Y5401592D01*
X4714240D01*
Y5403991D01*
X4719038D01*
Y5405191D01*
X4722636D01*
Y5407589D01*
X4727434D01*
Y5408789D01*
X4731032D01*
Y5409988D01*
X4732232D01*
Y5411188D01*
X4735830D01*
Y5413587D01*
X4741827D01*
Y5414786D01*
X4745426D01*
Y5417185D01*
X4750223D01*
Y5418384D01*
X4753822D01*
Y5419584D01*
X4755021D01*
Y5420783D01*
X4759819D01*
Y5421983D01*
X4761018D01*
Y5423182D01*
X4764617D01*
Y5424382D01*
X4770614D01*
Y5426781D01*
X4775412D01*
Y5427980D01*
X4779010D01*
Y5429179D01*
X4780209D01*
Y5430379D01*
X4786207D01*
Y5432778D01*
X4792204D01*
Y5433977D01*
X4797002D01*
Y5436376D01*
X4801799D01*
Y5437576D01*
X4802999D01*
Y5438775D01*
X4805398D01*
Y5439974D01*
X4808996D01*
Y5442373D01*
X4810196D01*
Y5443573D01*
X4812594D01*
Y5449570D01*
X4806597D01*
Y5448371D01*
X4804198D01*
Y5447171D01*
X4800600D01*
Y5445972D01*
X4795802D01*
Y5443573D01*
X4789805D01*
Y5442373D01*
X4785007D01*
Y5441174D01*
X4783808D01*
Y5439974D01*
X4780209D01*
Y5437576D01*
X4774212D01*
Y5436376D01*
X4769414D01*
Y5433977D01*
X4764617D01*
Y5432778D01*
X4759819D01*
Y5431578D01*
X4758619D01*
Y5430379D01*
X4755021D01*
Y5427980D01*
X4749024D01*
Y5426781D01*
X4745426D01*
Y5425581D01*
X4744226D01*
Y5424382D01*
X4739428D01*
Y5423182D01*
X4734631D01*
Y5420783D01*
X4728633D01*
Y5418384D01*
X4723836D01*
Y5417185D01*
X4719038D01*
Y5415986D01*
X4717838D01*
Y5414786D01*
X4710642D01*
Y5413587D01*
X4705844D01*
Y5412387D01*
X4704644D01*
Y5411188D01*
X4697448D01*
Y5408789D01*
X4672259D01*
Y5411188D01*
X4666262D01*
Y5413587D01*
X4662664D01*
Y5414786D01*
X4659066D01*
Y5417185D01*
X4656667D01*
Y5421983D01*
X4655467D01*
Y5426781D01*
X4645872D01*
Y5424382D01*
X4642273D01*
Y5423182D01*
X4639874D01*
Y5420783D01*
X4636276D01*
Y5418384D01*
X4633877D01*
Y5417185D01*
X4629079D01*
Y5415986D01*
X4627880D01*
Y5414786D01*
X4611088D01*
Y5426781D01*
X4612287D01*
Y5432778D01*
X4614686D01*
Y5438775D01*
X4617085D01*
Y5443573D01*
X4618284D01*
Y5449570D01*
X4619484D01*
Y5450769D01*
X4620683D01*
Y5456767D01*
X4617085D01*
Y5455567D01*
X4613487D01*
Y5453168D01*
X4611088D01*
Y5451969D01*
X4608689D01*
Y5449570D01*
X4607489D01*
Y5447171D01*
X4605091D01*
Y5445972D01*
X4603891D01*
Y5444772D01*
X4602692D01*
Y5443573D01*
X4601492D01*
Y5442373D01*
X4599093D01*
Y5439974D01*
X4597894D01*
Y5437576D01*
X4595495D01*
Y5436376D01*
X4591897D01*
Y5433977D01*
X4589498D01*
Y5432778D01*
X4588298D01*
Y5430379D01*
X4584700D01*
Y5427980D01*
X4582301D01*
Y5426781D01*
X4578703D01*
Y5424382D01*
X4576304D01*
Y5423182D01*
X4572706D01*
Y5420783D01*
X4569107D01*
Y5418384D01*
X4564309D01*
Y5417185D01*
X4543919D01*
Y5418384D01*
X4541520D01*
Y5420783D01*
X4543919D01*
Y5424382D01*
X4545118D01*
Y5427980D01*
X4546318D01*
Y5429179D01*
X4547517D01*
Y5432778D01*
X4549916D01*
Y5436376D01*
X4551116D01*
Y5438775D01*
X4553514D01*
Y5442373D01*
X4554714D01*
Y5445972D01*
X4557113D01*
Y5449570D01*
X4559512D01*
Y5453168D01*
X4560711D01*
Y5455567D01*
X4561911D01*
Y5456767D01*
X4563110D01*
Y5459166D01*
X4564309D01*
Y5463963D01*
X4566708D01*
Y5471160D01*
X4560711D01*
Y5468761D01*
X4557113D01*
Y5467562D01*
X4555913D01*
Y5466362D01*
X4554714D01*
Y5465163D01*
X4552315D01*
Y5463963D01*
X4551116D01*
Y5462764D01*
X4549916D01*
Y5461564D01*
X4547517D01*
Y5459166D01*
X4543919D01*
Y5457966D01*
X4542719D01*
Y5456767D01*
X4541520D01*
Y5455567D01*
X4540321D01*
Y5454368D01*
X4537922D01*
Y5453168D01*
X4535523D01*
Y5451969D01*
X4534323D01*
Y5449570D01*
X4531924D01*
Y5447171D01*
X4528326D01*
Y5445972D01*
X4525927D01*
Y5443573D01*
X4524728D01*
Y5442373D01*
X4521129D01*
Y5439974D01*
X4518731D01*
Y5437576D01*
X4515132D01*
Y5436376D01*
X4512733D01*
Y5433977D01*
X4511534D01*
Y5432778D01*
X4507936D01*
Y5431578D01*
X4506736D01*
Y5430379D01*
X4505537D01*
Y5427980D01*
X4503138D01*
Y5426781D01*
X4499539D01*
Y5424382D01*
X4497141D01*
Y5423182D01*
X4495941D01*
Y5421983D01*
X4493542D01*
Y5420783D01*
X4492343D01*
Y5418384D01*
X4489944D01*
Y5417185D01*
X4486346D01*
Y5414786D01*
X4483947D01*
Y5413587D01*
X4480348D01*
Y5411188D01*
X4477949D01*
Y5408789D01*
X4474351D01*
Y5407589D01*
X4473152D01*
Y5406390D01*
X4471952D01*
Y5405191D01*
X4468354D01*
Y5403991D01*
X4467154D01*
Y5402792D01*
X4465955D01*
Y5401592D01*
X4462357D01*
Y5399193D01*
X4457559D01*
Y5397994D01*
X4451562D01*
Y5395595D01*
X4429972D01*
Y5397994D01*
X4427573D01*
Y5399193D01*
X4423974D01*
Y5401592D01*
X4422775D01*
Y5405191D01*
X4420376D01*
Y5408789D01*
X4419177D01*
Y5415986D01*
X4417977D01*
Y5418384D01*
X4416778D01*
Y5424382D01*
X4409581D01*
Y5423182D01*
X4405983D01*
Y5421983D01*
X4404783D01*
Y5420783D01*
X4403584D01*
Y5418384D01*
X4399986D01*
Y5417185D01*
X4397587D01*
Y5415986D01*
X4396387D01*
Y5414786D01*
X4393988D01*
Y5413587D01*
X4390390D01*
Y5411188D01*
X4387991D01*
Y5408789D01*
X4384393D01*
Y5407589D01*
X4380794D01*
Y5405191D01*
X4375997D01*
Y5403991D01*
X4372398D01*
Y5401592D01*
X4368800D01*
Y5399193D01*
X4365202D01*
Y5397994D01*
X4361603D01*
Y5395595D01*
X4356806D01*
Y5394396D01*
X4353207D01*
Y5391997D01*
X4348409D01*
Y5389598D01*
X4343612D01*
Y5388398D01*
X4338814D01*
Y5387199D01*
X4337614D01*
Y5385999D01*
X4332817D01*
Y5384800D01*
X4312426D01*
Y5385999D01*
X4307628D01*
Y5388398D01*
X4305229D01*
Y5389598D01*
X4301631D01*
Y5391997D01*
X4299232D01*
Y5394396D01*
X4298033D01*
Y5395595D01*
X4296833D01*
Y5397994D01*
X4295634D01*
Y5399193D01*
X4293235D01*
Y5403991D01*
X4292036D01*
Y5412387D01*
X4290836D01*
Y5413587D01*
X4289637D01*
Y5423182D01*
X4284839D01*
Y5421983D01*
X4283639D01*
Y5420783D01*
X4282440D01*
Y5418384D01*
X4280041D01*
Y5417185D01*
X4278842D01*
Y5414786D01*
X4276443D01*
Y5411188D01*
X4274044D01*
Y5408789D01*
X4272844D01*
Y5407589D01*
X4270446D01*
Y5403991D01*
X4269246D01*
Y5401592D01*
X4266847D01*
Y5399193D01*
X4264448D01*
Y5397994D01*
X4263249D01*
Y5395595D01*
X4260850D01*
Y5394396D01*
X4259651D01*
Y5391997D01*
X4257252D01*
Y5389598D01*
X4253653D01*
Y5388398D01*
X4251254D01*
Y5387199D01*
X4250055D01*
Y5385999D01*
X4246457D01*
Y5384800D01*
X4241659D01*
Y5383601D01*
X4240459D01*
Y5382401D01*
X4223667D01*
Y5383601D01*
X4222468D01*
Y5384800D01*
X4220069D01*
Y5385999D01*
X4218869D01*
Y5388398D01*
X4216471D01*
Y5397994D01*
X4215271D01*
Y5408789D01*
X4206875D01*
Y5407589D01*
X4203277D01*
Y5405191D01*
X4202077D01*
Y5403991D01*
X4198479D01*
Y5402792D01*
X4197279D01*
Y5401592D01*
X4196080D01*
Y5399193D01*
X4192482D01*
Y5397994D01*
X4190083D01*
Y5395595D01*
X4186484D01*
Y5394396D01*
X4182886D01*
Y5391997D01*
X4178088D01*
Y5389598D01*
X4174490D01*
Y5388398D01*
X4170892D01*
Y5385999D01*
X4167293D01*
Y5384800D01*
X4163695D01*
Y5383601D01*
X4162496D01*
Y5382401D01*
X4156498D01*
Y5381202D01*
X4155299D01*
Y5380002D01*
X4128911D01*
Y5381202D01*
X4127712D01*
Y5382401D01*
X4124113D01*
Y5383601D01*
X4122914D01*
Y5384800D01*
X4120515D01*
Y5385999D01*
X4119316D01*
Y5389598D01*
X4116917D01*
Y5395595D01*
X4114518D01*
Y5403991D01*
X4107321D01*
Y5402792D01*
X4106122D01*
Y5401592D01*
X4101324D01*
Y5399193D01*
X4095327D01*
Y5397994D01*
X4090529D01*
Y5395595D01*
X4084532D01*
Y5394396D01*
X4078534D01*
Y5391997D01*
X4072537D01*
Y5389598D01*
X4065341D01*
Y5388398D01*
X4056944D01*
Y5385999D01*
X4047349D01*
Y5384800D01*
X4030557D01*
Y5383601D01*
X4028158D01*
Y5382401D01*
X4018562D01*
Y5376404D01*
X4022161D01*
Y5375204D01*
X4024559D01*
Y5372806D01*
X4028158D01*
Y5370407D01*
X4031756D01*
Y5369207D01*
X4034155D01*
Y5366808D01*
X4037753D01*
Y5365609D01*
X4041352D01*
Y5363210D01*
X4044950D01*
Y5362011D01*
X4046149D01*
Y5360811D01*
X4047349D01*
Y5359612D01*
X4050947D01*
Y5358412D01*
X4052147D01*
Y5357213D01*
X4055745D01*
Y5356013D01*
X4056944D01*
Y5353614D01*
X4061742D01*
Y5351216D01*
X4065341D01*
Y5350016D01*
X4066540D01*
Y5347617D01*
X4071338D01*
Y5346418D01*
X4072537D01*
Y5344019D01*
X4076136D01*
Y5341620D01*
X4080933D01*
Y5340421D01*
X4082133D01*
Y5338022D01*
X4085731D01*
Y5336822D01*
X4088130D01*
Y5334423D01*
X4091728D01*
Y5332024D01*
X4094127D01*
Y5330825D01*
X4097726D01*
Y5328426D01*
X4100124D01*
Y5327227D01*
X4103723D01*
Y5324828D01*
X4106122D01*
Y5323628D01*
X4107321D01*
Y5322429D01*
X4109720D01*
Y5321229D01*
X4110919D01*
Y5320030D01*
X4112119D01*
Y5318831D01*
X4114518D01*
Y5317631D01*
X4116917D01*
Y5315232D01*
X4120515D01*
Y5312833D01*
X4122914D01*
Y5311634D01*
X4126512D01*
Y5309235D01*
X4128911D01*
Y5308036D01*
X4132509D01*
Y5305637D01*
X4133709D01*
Y5304437D01*
X4134908D01*
Y5303238D01*
X4138507D01*
Y5302038D01*
X4139706D01*
Y5299639D01*
X4143304D01*
Y5298440D01*
X4144504D01*
Y5297241D01*
X4145703D01*
Y5296041D01*
X4148102D01*
Y5293642D01*
X4151701D01*
Y5292443D01*
X4152900D01*
Y5290044D01*
X4155299D01*
Y5288844D01*
X4157698D01*
Y5287645D01*
X4158897D01*
Y5286446D01*
X4161296D01*
Y5284047D01*
X4163695D01*
Y5282847D01*
X4164894D01*
Y5281648D01*
X4167293D01*
Y5280448D01*
X4168493D01*
Y5278049D01*
X4167293D01*
Y5274451D01*
X4164894D01*
Y5273252D01*
X4161296D01*
Y5270853D01*
X4157698D01*
Y5268454D01*
X4152900D01*
Y5267254D01*
X4142105D01*
Y5268454D01*
X4136108D01*
Y5270853D01*
X4132509D01*
Y5273252D01*
X4130111D01*
Y5274451D01*
X4126512D01*
Y5276850D01*
X4122914D01*
Y5278049D01*
X4120515D01*
Y5280448D01*
X4116917D01*
Y5282847D01*
X4114518D01*
Y5284047D01*
X4110919D01*
Y5286446D01*
X4109720D01*
Y5287645D01*
X4104922D01*
Y5290044D01*
X4103723D01*
Y5292443D01*
X4100124D01*
Y5293642D01*
X4097726D01*
Y5296041D01*
X4095327D01*
Y5297241D01*
X4091728D01*
Y5299639D01*
X4089329D01*
Y5300839D01*
X4088130D01*
Y5302038D01*
X4085731D01*
Y5303238D01*
X4084532D01*
Y5304437D01*
X4083332D01*
Y5305637D01*
X4079734D01*
Y5306836D01*
X4078534D01*
Y5308036D01*
X4077335D01*
Y5309235D01*
X4074936D01*
Y5311634D01*
X4071338D01*
Y5312833D01*
X4068939D01*
Y5315232D01*
X4065341D01*
Y5316432D01*
X4064141D01*
Y5317631D01*
X4062942D01*
Y5318831D01*
X4059343D01*
Y5321229D01*
X4056944D01*
Y5322429D01*
X4053346D01*
Y5324828D01*
X4050947D01*
Y5326027D01*
X4049748D01*
Y5327227D01*
X4047349D01*
Y5328426D01*
X4043751D01*
Y5330825D01*
X4041352D01*
Y5332024D01*
X4037753D01*
Y5334423D01*
X4036554D01*
Y5335623D01*
X4034155D01*
Y5336822D01*
X4031756D01*
Y5338022D01*
X4028158D01*
Y5340421D01*
X4026958D01*
Y5341620D01*
X4022161D01*
Y5344019D01*
X4018562D01*
Y5346418D01*
X4016163D01*
Y5347617D01*
X4012565D01*
Y5350016D01*
X4008967D01*
Y5351216D01*
X4005368D01*
Y5353614D01*
X4002969D01*
Y5354814D01*
X4001770D01*
Y5356013D01*
X3999371D01*
Y5357213D01*
X3995773D01*
Y5359612D01*
X3992174D01*
Y5360811D01*
X3988576D01*
Y5363210D01*
X3983778D01*
Y5365609D01*
X3980180D01*
Y5366808D01*
X3976582D01*
Y5369207D01*
X3972983D01*
Y5370407D01*
X3969385D01*
Y5372806D01*
X3964587D01*
Y5375204D01*
X3960989D01*
Y5376404D01*
X3957391D01*
Y5378803D01*
X3952593D01*
Y5380002D01*
X3947795D01*
Y5382401D01*
X3944197D01*
Y5383601D01*
X3941798D01*
Y5384800D01*
X3938199D01*
Y5385999D01*
X3932202D01*
Y5388398D01*
X3928604D01*
Y5389598D01*
X3922607D01*
Y5391997D01*
X3916609D01*
Y5394396D01*
X3910612D01*
Y5395595D01*
X3904615D01*
Y5397994D01*
X3897418D01*
Y5399193D01*
X3891421D01*
Y5401592D01*
X3884224D01*
Y5403991D01*
X3878227D01*
Y5405191D01*
X3869831D01*
Y5406390D01*
X3868632D01*
Y5407589D01*
X3860236D01*
Y5408789D01*
X3838646D01*
Y5407589D01*
X3836247D01*
Y5405191D01*
X3832648D01*
Y5403991D01*
X3830249D01*
Y5401592D01*
X3829050D01*
Y5399193D01*
X3826651D01*
Y5397994D01*
X3824252D01*
Y5395595D01*
X3823053D01*
Y5394396D01*
X3820654D01*
Y5393196D01*
X3819454D01*
Y5391997D01*
X3817056D01*
Y5389598D01*
X3814657D01*
Y5388398D01*
X3813457D01*
Y5385999D01*
X3811058D01*
Y5384800D01*
X3809859D01*
Y5382401D01*
X3807460D01*
Y5380002D01*
X3805061D01*
Y5378803D01*
X3803862D01*
Y5376404D01*
X3801463D01*
Y5375204D01*
X3800263D01*
Y5372806D01*
X3797864D01*
Y5370407D01*
X3794266D01*
Y5369207D01*
X3791867D01*
Y5366808D01*
X3790668D01*
Y5365609D01*
X3788269D01*
Y5363210D01*
X3783471D01*
Y5360811D01*
X3763081D01*
Y5362011D01*
X3761881D01*
Y5363210D01*
X3758283D01*
Y5375204D01*
X3759482D01*
Y5376404D01*
X3760682D01*
Y5378803D01*
X3763081D01*
Y5380002D01*
X3765479D01*
Y5382401D01*
X3766679D01*
Y5384800D01*
X3769078D01*
Y5385999D01*
X3770277D01*
Y5388398D01*
X3772676D01*
Y5389598D01*
X3775075D01*
Y5391997D01*
X3776274D01*
Y5394396D01*
X3778673D01*
Y5395595D01*
X3779873D01*
Y5396794D01*
X3782272D01*
Y5397994D01*
X3783471D01*
Y5399193D01*
X3784671D01*
Y5400393D01*
X3785870D01*
Y5401592D01*
X3788269D01*
Y5403991D01*
X3789468D01*
Y5405191D01*
X3791867D01*
Y5407589D01*
X3794266D01*
Y5408789D01*
X3795466D01*
Y5411188D01*
X3797864D01*
Y5413587D01*
X3799064D01*
Y5414786D01*
X3801463D01*
Y5417185D01*
X3803862D01*
Y5418384D01*
X3805061D01*
Y5419584D01*
X3806261D01*
Y5420783D01*
X3808659D01*
Y5423182D01*
X3811058D01*
Y5424382D01*
X3813457D01*
Y5426781D01*
X3814657D01*
Y5427980D01*
X3815856D01*
Y5429179D01*
X3817056D01*
Y5430379D01*
X3819454D01*
Y5432778D01*
X3820654D01*
Y5433977D01*
X3823053D01*
Y5436376D01*
X3826651D01*
Y5438775D01*
X3827851D01*
Y5439974D01*
X3830249D01*
Y5442373D01*
X3832648D01*
Y5443573D01*
X3833848D01*
Y5445972D01*
X3836247D01*
Y5448371D01*
X3838646D01*
Y5449570D01*
X3841044D01*
Y5450769D01*
X3842244D01*
Y5451969D01*
X3843443D01*
Y5453168D01*
X3845842D01*
Y5455567D01*
X3848241D01*
Y5457966D01*
X3849441D01*
Y5459166D01*
X3851839D01*
Y5461564D01*
X3855438D01*
Y5462764D01*
X3856637D01*
Y5463963D01*
X3857837D01*
Y5465163D01*
X3859036D01*
Y5467562D01*
X3861435D01*
Y5468761D01*
X3862634D01*
Y5471160D01*
X3865033D01*
Y5472359D01*
X3867432D01*
Y5473559D01*
X3868632D01*
Y5474758D01*
X3871031D01*
Y5477157D01*
X3872230D01*
Y5478357D01*
X3874629D01*
Y5480756D01*
X3877028D01*
Y5481955D01*
X3879427D01*
Y5483154D01*
X3880626D01*
Y5484354D01*
X3881826D01*
Y5486753D01*
X3884224D01*
Y5487952D01*
X3886623D01*
Y5490351D01*
X3889022D01*
Y5491551D01*
X3891421D01*
Y5493949D01*
X3893820D01*
Y5496348D01*
X3896219D01*
Y5497548D01*
X3898618D01*
Y5498747D01*
X3899817D01*
Y5499947D01*
X3901017D01*
Y5501146D01*
X3903416D01*
Y5503545D01*
X3905814D01*
Y5505944D01*
X3909413D01*
Y5507143D01*
X3910612D01*
Y5509542D01*
X3913011D01*
Y5510742D01*
X3915410D01*
Y5511941D01*
X3916609D01*
Y5513141D01*
X3919008D01*
Y5515539D01*
X3920208D01*
Y5516739D01*
X3922607D01*
Y5519138D01*
X3926205D01*
Y5520337D01*
X3928604D01*
Y5522736D01*
X3929803D01*
Y5525135D01*
X3933402D01*
Y5526334D01*
X3935801D01*
Y5528733D01*
X3938199D01*
Y5529933D01*
X3939399D01*
Y5531132D01*
X3941798D01*
Y5532332D01*
X3944197D01*
Y5534731D01*
X3945396D01*
Y5535930D01*
X3947795D01*
Y5538329D01*
X3951393D01*
Y5539528D01*
X3952593D01*
Y5540728D01*
X3953792D01*
Y5541927D01*
X3954992D01*
Y5544326D01*
X3958590D01*
Y5545526D01*
X3960989D01*
Y5547924D01*
X3963388D01*
Y5549124D01*
X3964587D01*
Y5550323D01*
X3966986D01*
Y5551523D01*
X3969385D01*
Y5553922D01*
X3970584D01*
Y5555121D01*
X3974183D01*
Y5557520D01*
X3976582D01*
Y5558719D01*
X3977781D01*
Y5559919D01*
X3980180D01*
Y5561118D01*
X3982579D01*
Y5563517D01*
X3988576D01*
Y5564717D01*
X4007767D01*
Y5563517D01*
D02*
G37*
%LPC*%
G36*
X5935219Y5759129D02*
X5931541D01*
Y5757291D01*
X5914993D01*
Y5755452D01*
X5907638D01*
Y5753613D01*
X5902122D01*
Y5751775D01*
X5900283D01*
Y5749936D01*
X5898444D01*
Y5748097D01*
X5896606D01*
Y5746258D01*
X5894767D01*
Y5742581D01*
X5892928D01*
Y5731549D01*
X5894767D01*
Y5727871D01*
X5896606D01*
Y5724194D01*
X5900283D01*
Y5722355D01*
X5905799D01*
Y5720516D01*
X5918670D01*
Y5722355D01*
X5926025D01*
Y5724194D01*
X5927864D01*
Y5726032D01*
X5931541D01*
Y5727871D01*
X5933380D01*
Y5729710D01*
X5935219D01*
Y5759129D01*
D02*
G37*
G36*
X5538055Y5841872D02*
X5515990D01*
Y5840033D01*
X5514152D01*
Y5803259D01*
X5541733D01*
Y5805097D01*
X5547249D01*
Y5806936D01*
X5549087D01*
Y5808775D01*
X5550926D01*
Y5810613D01*
X5552765D01*
Y5814291D01*
X5554604D01*
Y5821646D01*
X5556443D01*
Y5825323D01*
X5554604D01*
Y5830839D01*
X5552765D01*
Y5834517D01*
X5550926D01*
Y5836356D01*
X5549087D01*
Y5838194D01*
X5545410D01*
Y5840033D01*
X5538055D01*
Y5841872D01*
D02*
G37*
G36*
X5550926Y5772000D02*
X5514152D01*
Y5727871D01*
X5549087D01*
Y5729710D01*
X5554604D01*
Y5731549D01*
X5558281D01*
Y5733387D01*
X5561959D01*
Y5735226D01*
X5563797D01*
Y5738903D01*
X5565636D01*
Y5744420D01*
X5567475D01*
Y5757291D01*
X5565636D01*
Y5762807D01*
X5563797D01*
Y5764646D01*
X5561959D01*
Y5766484D01*
X5560120D01*
Y5768323D01*
X5556443D01*
Y5770162D01*
X5550926D01*
Y5772000D01*
D02*
G37*
G36*
X5236505Y5841872D02*
X5194214D01*
Y5792226D01*
X5236505D01*
Y5794065D01*
X5243860D01*
Y5795904D01*
X5247537D01*
Y5797743D01*
X5249376D01*
Y5799581D01*
X5251215D01*
Y5801420D01*
X5253054D01*
Y5803259D01*
X5254892D01*
Y5806936D01*
X5256731D01*
Y5812452D01*
X5258570D01*
Y5814291D01*
Y5821646D01*
X5256731D01*
Y5827162D01*
X5254892D01*
Y5830839D01*
X5253054D01*
Y5832678D01*
X5251215D01*
Y5834517D01*
X5249376D01*
Y5836356D01*
X5245699D01*
Y5838194D01*
X5242021D01*
Y5840033D01*
X5236505D01*
Y5841872D01*
D02*
G37*
G36*
X4102523Y5836991D02*
X4065341D01*
Y5835791D01*
X4064141D01*
Y5833392D01*
X4062942D01*
Y5830993D01*
X4061742D01*
Y5828594D01*
X4060543D01*
Y5824996D01*
X4059343D01*
Y5823797D01*
X4058144D01*
Y5820198D01*
X4056944D01*
Y5816600D01*
X4055745D01*
Y5814201D01*
X4054546D01*
Y5810603D01*
X4053346D01*
Y5809403D01*
X4052147D01*
Y5804606D01*
X4050947D01*
Y5801007D01*
X4049748D01*
Y5799808D01*
X4048548D01*
Y5795010D01*
X4085731D01*
Y5796209D01*
X4088130D01*
Y5797409D01*
X4089329D01*
Y5798608D01*
X4090529D01*
Y5799808D01*
X4091728D01*
Y5801007D01*
X4092928D01*
Y5804606D01*
X4094127D01*
Y5805805D01*
X4095327D01*
Y5809403D01*
X4096526D01*
Y5813002D01*
X4097726D01*
Y5814201D01*
X4098925D01*
Y5818999D01*
X4100124D01*
Y5824996D01*
X4101324D01*
Y5826196D01*
X4102523D01*
Y5836991D01*
D02*
G37*
G36*
X4068939Y5743434D02*
X4030557D01*
Y5742234D01*
X4029357D01*
Y5741035D01*
X4028158D01*
Y5738636D01*
X4026958D01*
Y5735038D01*
X4025759D01*
Y5731439D01*
X4024559D01*
Y5730240D01*
X4023360D01*
Y5726642D01*
X4022161D01*
Y5723043D01*
X4020961D01*
Y5720644D01*
X4019762D01*
Y5717046D01*
X4018562D01*
Y5714647D01*
X4017363D01*
Y5711049D01*
X4016163D01*
Y5706251D01*
X4056944D01*
Y5707451D01*
X4058144D01*
Y5711049D01*
X4059343D01*
Y5712248D01*
X4060543D01*
Y5715847D01*
X4061742D01*
Y5718246D01*
X4062942D01*
Y5719445D01*
X4064141D01*
Y5723043D01*
X4065341D01*
Y5726642D01*
X4066540D01*
Y5727841D01*
Y5729041D01*
X4067739D01*
Y5733838D01*
X4068939D01*
Y5736237D01*
X4070138D01*
Y5742234D01*
X4068939D01*
Y5743434D01*
D02*
G37*
G36*
X4085731Y5525135D02*
X4044950D01*
Y5523936D01*
X4043751D01*
Y5522736D01*
X4034155D01*
Y5520337D01*
X4026958D01*
Y5519138D01*
X4020961D01*
Y5516739D01*
X4013764D01*
Y5515539D01*
X4008967D01*
Y5513141D01*
X4002969D01*
Y5510742D01*
X3998172D01*
Y5509542D01*
X3993374D01*
Y5507143D01*
X3989776D01*
Y5505944D01*
X3986177D01*
Y5504744D01*
X3984978D01*
Y5503545D01*
X3980180D01*
Y5501146D01*
X3976582D01*
Y5499947D01*
X3972983D01*
Y5497548D01*
X3969385D01*
Y5496348D01*
X3965787D01*
Y5495149D01*
X3964587D01*
Y5493949D01*
X3960989D01*
Y5491551D01*
X3957391D01*
Y5490351D01*
X3953792D01*
Y5487952D01*
X3950194D01*
Y5486753D01*
X3946596D01*
Y5485553D01*
X3945396D01*
Y5484354D01*
X3942997D01*
Y5483154D01*
X3941798D01*
Y5481955D01*
X3940598D01*
Y5480756D01*
X3935801D01*
Y5478357D01*
X3932202D01*
Y5477157D01*
X3929803D01*
Y5475958D01*
X3928604D01*
Y5474758D01*
X3926205D01*
Y5473559D01*
X3925006D01*
Y5472359D01*
X3922607D01*
Y5471160D01*
X3919008D01*
Y5468761D01*
X3915410D01*
Y5467562D01*
X3913011D01*
Y5465163D01*
X3909413D01*
Y5462764D01*
X3905814D01*
Y5461564D01*
X3903416D01*
Y5459166D01*
X3899817D01*
Y5457966D01*
X3898618D01*
Y5456767D01*
X3896219D01*
Y5455567D01*
X3893820D01*
Y5453168D01*
X3890222D01*
Y5451969D01*
X3887823D01*
Y5450769D01*
X3886623D01*
Y5449570D01*
X3884224D01*
Y5447171D01*
X3880626D01*
Y5445972D01*
X3878227D01*
Y5444772D01*
X3877028D01*
Y5443573D01*
X3874629D01*
Y5436376D01*
X3895019D01*
Y5437576D01*
X3905814D01*
Y5438775D01*
X3913011D01*
Y5439974D01*
X3928604D01*
Y5442373D01*
X3944197D01*
Y5443573D01*
X3957391D01*
Y5445972D01*
X3970584D01*
Y5448371D01*
X3980180D01*
Y5449570D01*
X3990975D01*
Y5450769D01*
X3992174D01*
Y5451969D01*
X3999371D01*
Y5453168D01*
X4006568D01*
Y5454368D01*
X4007767D01*
Y5455567D01*
X4014964D01*
Y5457966D01*
X4020961D01*
Y5459166D01*
X4026958D01*
Y5461564D01*
X4031756D01*
Y5462764D01*
X4037753D01*
Y5465163D01*
X4041352D01*
Y5467562D01*
X4046149D01*
Y5468761D01*
X4049748D01*
Y5471160D01*
X4053346D01*
Y5472359D01*
X4055745D01*
Y5473559D01*
X4056944D01*
Y5474758D01*
X4059343D01*
Y5477157D01*
X4062942D01*
Y5478357D01*
X4065341D01*
Y5480756D01*
X4066540D01*
Y5481955D01*
X4068939D01*
Y5484354D01*
X4071338D01*
Y5485553D01*
X4072537D01*
Y5486753D01*
X4073737D01*
Y5487952D01*
X4074936D01*
Y5490351D01*
X4076136D01*
Y5491551D01*
X4078534D01*
Y5493949D01*
X4079734D01*
Y5496348D01*
X4080933D01*
Y5497548D01*
X4082133D01*
Y5499947D01*
X4084532D01*
Y5503545D01*
X4085731D01*
Y5507143D01*
X4088130D01*
Y5522736D01*
X4085731D01*
Y5525135D01*
D02*
G37*
G36*
X4226066Y5457966D02*
X4217670D01*
Y5456767D01*
X4216471D01*
Y5455567D01*
X4212872D01*
Y5453168D01*
X4208074D01*
Y5451969D01*
X4203277D01*
Y5449570D01*
X4199678D01*
Y5448371D01*
X4198479D01*
Y5447171D01*
X4196080D01*
Y5445972D01*
X4192482D01*
Y5444772D01*
X4191282D01*
Y5443573D01*
X4187684D01*
Y5442373D01*
X4184086D01*
Y5439974D01*
X4180487D01*
Y5437576D01*
X4176889D01*
Y5436376D01*
X4173291D01*
Y5435177D01*
X4172091D01*
Y5433977D01*
X4168493D01*
Y5432778D01*
X4166094D01*
Y5431578D01*
X4164894D01*
Y5430379D01*
X4162496D01*
Y5427980D01*
X4158897D01*
Y5426781D01*
X4155299D01*
Y5424382D01*
X4152900D01*
Y5423182D01*
X4151701D01*
Y5420783D01*
X4149302D01*
Y5418384D01*
X4148102D01*
Y5414786D01*
X4145703D01*
Y5411188D01*
X4143304D01*
Y5407589D01*
X4142105D01*
Y5389598D01*
X4150501D01*
Y5390797D01*
X4151701D01*
Y5391997D01*
X4155299D01*
Y5394396D01*
X4158897D01*
Y5395595D01*
X4162496D01*
Y5397994D01*
X4167293D01*
Y5399193D01*
X4168493D01*
Y5401592D01*
X4172091D01*
Y5403991D01*
X4174490D01*
Y5405191D01*
X4178088D01*
Y5407589D01*
X4180487D01*
Y5408789D01*
X4181687D01*
Y5411188D01*
X4186484D01*
Y5413587D01*
X4187684D01*
Y5414786D01*
X4190083D01*
Y5417185D01*
X4191282D01*
Y5418384D01*
X4193681D01*
Y5419584D01*
X4196080D01*
Y5420783D01*
X4197279D01*
Y5423182D01*
X4199678D01*
Y5424382D01*
X4200878D01*
Y5426781D01*
X4203277D01*
Y5427980D01*
X4204476D01*
Y5429179D01*
X4205676D01*
Y5430379D01*
X4206875D01*
Y5432778D01*
X4209274D01*
Y5433977D01*
X4210473D01*
Y5436376D01*
X4212872D01*
Y5438775D01*
X4215271D01*
Y5439974D01*
X4216471D01*
Y5442373D01*
X4218869D01*
Y5443573D01*
X4220069D01*
Y5445972D01*
X4222468D01*
Y5448371D01*
X4223667D01*
Y5449570D01*
X4224867D01*
Y5451969D01*
X4226066D01*
Y5457966D01*
D02*
G37*
G36*
X4774212Y5411188D02*
X4763417D01*
Y5408789D01*
X4757420D01*
Y5407589D01*
X4753822D01*
Y5405191D01*
X4749024D01*
Y5403991D01*
X4744226D01*
Y5401592D01*
X4739428D01*
Y5399193D01*
X4735830D01*
Y5397994D01*
X4731032D01*
Y5396794D01*
X4729833D01*
Y5395595D01*
X4726234D01*
Y5394396D01*
X4722636D01*
Y5391997D01*
X4719038D01*
Y5389598D01*
X4714240D01*
Y5388398D01*
X4710642D01*
Y5385999D01*
X4707043D01*
Y5384800D01*
X4703445D01*
Y5382401D01*
X4699847D01*
Y5380002D01*
X4695049D01*
Y5378803D01*
X4691451D01*
Y5376404D01*
X4687852D01*
Y5375204D01*
X4684254D01*
Y5372806D01*
X4680656D01*
Y5370407D01*
X4675858D01*
Y5369207D01*
X4673459D01*
Y5368008D01*
X4672259D01*
Y5366808D01*
X4671060D01*
Y5365609D01*
X4667462D01*
Y5364409D01*
X4666262D01*
Y5363210D01*
X4662664D01*
Y5360811D01*
X4659066D01*
Y5359612D01*
X4656667D01*
Y5357213D01*
X4653068D01*
Y5356013D01*
X4650669D01*
Y5354814D01*
X4649470D01*
Y5353614D01*
X4647071D01*
Y5351216D01*
X4643473D01*
Y5350016D01*
X4639874D01*
Y5347617D01*
X4637476D01*
Y5346418D01*
X4635077D01*
Y5345218D01*
X4633877D01*
Y5344019D01*
X4631478D01*
Y5342819D01*
X4630279D01*
Y5341620D01*
X4627880D01*
Y5340421D01*
X4624282D01*
Y5338022D01*
X4623082D01*
Y5336822D01*
X4620683D01*
Y5335623D01*
X4618284D01*
Y5334423D01*
X4617085D01*
Y5332024D01*
X4613487D01*
Y5330825D01*
X4611088D01*
Y5328426D01*
X4607489D01*
Y5327227D01*
X4606290D01*
Y5326027D01*
X4605091D01*
Y5324828D01*
X4601492D01*
Y5322429D01*
X4599093D01*
Y5321229D01*
X4597894D01*
Y5318831D01*
X4594296D01*
Y5317631D01*
X4593096D01*
Y5316432D01*
X4591897D01*
Y5315232D01*
X4589498D01*
Y5312833D01*
X4585899D01*
Y5311634D01*
X4584700D01*
Y5310434D01*
X4583501D01*
Y5309235D01*
X4582301D01*
Y5306836D01*
X4579902D01*
Y5305637D01*
X4578703D01*
Y5304437D01*
X4576304D01*
Y5303238D01*
X4575104D01*
Y5302038D01*
X4572706D01*
Y5299639D01*
X4570307D01*
Y5297241D01*
X4569107D01*
Y5294842D01*
X4566708D01*
Y5292443D01*
X4564309D01*
Y5290044D01*
X4563110D01*
Y5287645D01*
X4561911D01*
Y5286446D01*
X4560711D01*
Y5284047D01*
X4559512D01*
Y5276850D01*
X4557113D01*
Y5269653D01*
X4558312D01*
Y5268454D01*
X4559512D01*
Y5263656D01*
X4560711D01*
Y5260058D01*
X4561911D01*
Y5258858D01*
X4563110D01*
Y5257659D01*
X4570307D01*
Y5256459D01*
X4571506D01*
Y5255260D01*
X4572706D01*
Y5256459D01*
X4573905D01*
Y5257659D01*
X4585899D01*
Y5258858D01*
X4590697D01*
Y5260058D01*
X4591897D01*
Y5261257D01*
X4595495D01*
Y5263656D01*
X4599093D01*
Y5264856D01*
X4603891D01*
Y5266055D01*
X4605091D01*
Y5267254D01*
X4607489D01*
Y5268454D01*
X4611088D01*
Y5270853D01*
X4614686D01*
Y5273252D01*
X4618284D01*
Y5274451D01*
X4621883D01*
Y5276850D01*
X4625481D01*
Y5278049D01*
X4627880D01*
Y5280448D01*
X4631478D01*
Y5282847D01*
X4633877D01*
Y5284047D01*
X4637476D01*
Y5286446D01*
X4639874D01*
Y5287645D01*
X4641074D01*
Y5288844D01*
X4643473D01*
Y5290044D01*
X4645872D01*
Y5292443D01*
X4647071D01*
Y5293642D01*
X4650669D01*
Y5296041D01*
X4653068D01*
Y5297241D01*
X4654268D01*
Y5298440D01*
X4655467D01*
Y5299639D01*
X4657866D01*
Y5300839D01*
X4659066D01*
Y5302038D01*
X4661464D01*
Y5303238D01*
X4662664D01*
Y5305637D01*
X4665063D01*
Y5308036D01*
X4667462D01*
Y5309235D01*
X4669861D01*
Y5310434D01*
X4671060D01*
Y5311634D01*
X4672259D01*
Y5312833D01*
X4674658D01*
Y5315232D01*
X4675858D01*
Y5317631D01*
X4678257D01*
Y5318831D01*
X4681855D01*
Y5321229D01*
X4684254D01*
Y5322429D01*
X4685453D01*
Y5324828D01*
X4687852D01*
Y5327227D01*
X4690251D01*
Y5328426D01*
X4691451D01*
Y5330825D01*
X4693849D01*
Y5332024D01*
X4696248D01*
Y5333224D01*
X4697448D01*
Y5334423D01*
X4698647D01*
Y5335623D01*
X4699847D01*
Y5336822D01*
X4701046D01*
Y5338022D01*
X4703445D01*
Y5340421D01*
X4704644D01*
Y5341620D01*
X4707043D01*
Y5344019D01*
X4709442D01*
Y5346418D01*
X4710642D01*
Y5347617D01*
X4713041D01*
Y5350016D01*
X4716639D01*
Y5351216D01*
X4717838D01*
Y5352415D01*
X4719038D01*
Y5353614D01*
X4720237D01*
Y5356013D01*
X4722636D01*
Y5357213D01*
X4723836D01*
Y5359612D01*
X4726234D01*
Y5360811D01*
X4728633D01*
Y5363210D01*
X4729833D01*
Y5365609D01*
X4732232D01*
Y5366808D01*
X4733431D01*
Y5369207D01*
X4735830D01*
Y5370407D01*
X4738229D01*
Y5371606D01*
X4739428D01*
Y5372806D01*
X4741827D01*
Y5375204D01*
X4743027D01*
Y5376404D01*
X4745426D01*
Y5378803D01*
X4747824D01*
Y5380002D01*
X4749024D01*
Y5382401D01*
X4751423D01*
Y5384800D01*
X4752622D01*
Y5385999D01*
X4755021D01*
Y5388398D01*
X4757420D01*
Y5389598D01*
X4758619D01*
Y5391997D01*
X4761018D01*
Y5394396D01*
X4762218D01*
Y5395595D01*
X4764617D01*
Y5397994D01*
X4767016D01*
Y5399193D01*
X4768215D01*
Y5401592D01*
X4770614D01*
Y5405191D01*
X4771813D01*
Y5406390D01*
X4773013D01*
Y5407589D01*
X4774212D01*
Y5411188D01*
D02*
G37*
%LPD*%
D28*
X5887100Y4214000D02*
G03*
X5887100Y4214000I-12500J0D01*
G01*
X4853295Y1752600D02*
G03*
X4853295Y1752600I-12500J0D01*
G01*
X1398898Y1778000D02*
G03*
X1398898Y1778000I-12500J0D01*
G01*
X6041700Y3181500D02*
G03*
X6041700Y3181500I-12500J0D01*
G01*
X3176900Y1752600D02*
G03*
X3176900Y1752600I-12500J0D01*
G01*
D29*
X1849440Y5174000D02*
G03*
X1849440Y5174000I-85440J0D01*
G01*
X3398840D02*
G03*
X3398840Y5174000I-85440J0D01*
G01*
X300040D02*
G03*
X300040Y5174000I-85440J0D01*
G01*
X2942000Y3414000D02*
Y4968000D01*
X1884000D02*
X2942000D01*
X1884000Y3414000D02*
Y4968000D01*
Y3414000D02*
X2942000D01*
X4491400D02*
Y4968000D01*
X3433400D02*
X4491400D01*
X3433400Y3414000D02*
Y4968000D01*
Y3414000D02*
X4491400D01*
X1392600D02*
Y4968000D01*
X334600D02*
X1392600D01*
X334600Y3414000D02*
Y4968000D01*
Y3414000D02*
X1392600D01*
X2072681Y5509235D02*
Y5356885D01*
X2148857D01*
X2174248Y5382277D01*
Y5483843D01*
X2148857Y5509235D01*
X2072681D01*
X2326599Y5356885D02*
X2225032D01*
X2326599Y5458452D01*
Y5483843D01*
X2301207Y5509235D01*
X2250424D01*
X2225032Y5483843D01*
X5397751Y4876767D02*
Y4724417D01*
X5473926D01*
X5499318Y4749808D01*
Y4775200D01*
X5473926Y4800592D01*
X5397751D01*
X5473926D01*
X5499318Y4825984D01*
Y4851375D01*
X5473926Y4876767D01*
X5397751D01*
X5550101Y4724417D02*
X5600885D01*
X5575493D01*
Y4825984D01*
X5550101D01*
X5727844Y4673633D02*
X5753236D01*
X5778628Y4699025D01*
Y4825984D01*
X5702452D01*
X5677060Y4800592D01*
Y4749808D01*
X5702452Y4724417D01*
X5778628D01*
X6083329Y4851375D02*
X6057937Y4876767D01*
X6007154D01*
X5981762Y4851375D01*
Y4749808D01*
X6007154Y4724417D01*
X6057937D01*
X6083329Y4749808D01*
X6134112Y4825984D02*
Y4749808D01*
X6159504Y4724417D01*
X6235680D01*
Y4825984D01*
X6286463D02*
Y4724417D01*
Y4775200D01*
X6311855Y4800592D01*
X6337247Y4825984D01*
X6362639D01*
X6438814D02*
Y4724417D01*
Y4775200D01*
X6464206Y4800592D01*
X6489597Y4825984D01*
X6514989D01*
X6667340Y4724417D02*
X6616556D01*
X6591165Y4749808D01*
Y4800592D01*
X6616556Y4825984D01*
X6667340D01*
X6692732Y4800592D01*
Y4775200D01*
X6591165D01*
X6743515Y4724417D02*
Y4825984D01*
X6819691D01*
X6845083Y4800592D01*
Y4724417D01*
X6921258Y4851375D02*
Y4825984D01*
X6895866D01*
X6946650D01*
X6921258D01*
Y4749808D01*
X6946650Y4724417D01*
X5461000Y1928768D02*
Y1828800D01*
X5510984D01*
X5527645Y1845461D01*
Y1862123D01*
X5510984Y1878784D01*
X5461000D01*
X5510984D01*
X5527645Y1895445D01*
Y1912106D01*
X5510984Y1928768D01*
X5461000D01*
X5627613Y1912106D02*
X5610952Y1928768D01*
X5577629D01*
X5560968Y1912106D01*
Y1895445D01*
X5577629Y1878784D01*
X5610952D01*
X5627613Y1862123D01*
Y1845461D01*
X5610952Y1828800D01*
X5577629D01*
X5560968Y1845461D01*
X5660936Y1828800D02*
Y1928768D01*
X5710919D01*
X5727581Y1912106D01*
Y1878784D01*
X5710919Y1862123D01*
X5660936D01*
X5760903Y1928768D02*
Y1828800D01*
X5810887D01*
X5827548Y1845461D01*
Y1912106D01*
X5810887Y1928768D01*
X5760903D01*
X5562600Y1623968D02*
X5595923D01*
X5579261D01*
Y1524000D01*
X5562600D01*
X5595923D01*
X5645906D02*
Y1623968D01*
X5679229Y1590645D01*
X5712551Y1623968D01*
Y1524000D01*
X5745874Y1623968D02*
Y1524000D01*
X5795858D01*
X5812519Y1540661D01*
Y1607306D01*
X5795858Y1623968D01*
X5745874D01*
X5537200Y1344568D02*
Y1244600D01*
X5587184D01*
X5603845Y1261261D01*
Y1277923D01*
X5587184Y1294584D01*
X5537200D01*
X5587184D01*
X5603845Y1311245D01*
Y1327906D01*
X5587184Y1344568D01*
X5537200D01*
X5637168Y1244600D02*
Y1344568D01*
X5687152D01*
X5703813Y1327906D01*
Y1294584D01*
X5687152Y1277923D01*
X5637168D01*
X5803781Y1327906D02*
X5787119Y1344568D01*
X5753797D01*
X5737136Y1327906D01*
Y1311245D01*
X5753797Y1294584D01*
X5787119D01*
X5803781Y1277923D01*
Y1261261D01*
X5787119Y1244600D01*
X5753797D01*
X5737136Y1261261D01*
X4953041Y2235225D02*
Y2387575D01*
X5029217D01*
X5054608Y2362183D01*
Y2311400D01*
X5029217Y2286008D01*
X4953041D01*
X5003825D02*
X5054608Y2235225D01*
X5105392Y2362183D02*
X5130784Y2387575D01*
X5181567D01*
X5206959Y2362183D01*
Y2336792D01*
X5181567Y2311400D01*
X5156175D01*
X5181567D01*
X5206959Y2286008D01*
Y2260617D01*
X5181567Y2235225D01*
X5130784D01*
X5105392Y2260617D01*
X1777983Y3797436D02*
X1625633D01*
Y3873611D01*
X1651025Y3899003D01*
X1701808D01*
X1727200Y3873611D01*
Y3797436D01*
Y3848219D02*
X1777983Y3899003D01*
Y4025962D02*
Y3975178D01*
X1752592Y3949786D01*
X1701808D01*
X1676416Y3975178D01*
Y4025962D01*
X1701808Y4051354D01*
X1727200D01*
Y3949786D01*
X1777983Y4102137D02*
Y4152921D01*
Y4127529D01*
X1625633D01*
Y4102137D01*
X1676416Y4254488D02*
Y4305271D01*
X1701808Y4330663D01*
X1777983D01*
Y4254488D01*
X1752592Y4229096D01*
X1727200Y4254488D01*
Y4330663D01*
X1676416Y4381447D02*
X1752592D01*
X1777983Y4406839D01*
Y4483014D01*
X1803375D01*
X1828767Y4457622D01*
Y4432230D01*
X1777983Y4483014D02*
X1676416D01*
X1777983Y4635365D02*
Y4533797D01*
X1676416Y4635365D01*
X1651025D01*
X1625633Y4609973D01*
Y4559189D01*
X1651025Y4533797D01*
X3251241Y2235225D02*
Y2387575D01*
X3327417D01*
X3352808Y2362183D01*
Y2311400D01*
X3327417Y2286008D01*
X3251241D01*
X3302025D02*
X3352808Y2235225D01*
X3505159D02*
X3403592D01*
X3505159Y2336792D01*
Y2362183D01*
X3479767Y2387575D01*
X3428984D01*
X3403592Y2362183D01*
X1498633Y2235225D02*
Y2387575D01*
X1574808D01*
X1600200Y2362183D01*
Y2311400D01*
X1574808Y2286008D01*
X1498633D01*
X1549417D02*
X1600200Y2235225D01*
X1650984D02*
X1701767D01*
X1676376D01*
Y2387575D01*
X1650984Y2362183D01*
X2019299Y1772871D02*
X2070082D01*
X2044691D01*
Y1620520D01*
X2019299D01*
X2070082D01*
X2146258D02*
Y1772871D01*
X2197041Y1722087D01*
X2247825Y1772871D01*
Y1620520D01*
X2298609Y1772871D02*
Y1620520D01*
X2374784D01*
X2400176Y1645912D01*
Y1747479D01*
X2374784Y1772871D01*
X2298609D01*
X3562820Y1987488D02*
Y1835138D01*
X3664388D01*
X3816738Y1987488D02*
X3715171D01*
Y1835138D01*
X3816738D01*
X3715171Y1911313D02*
X3765955D01*
X3867522Y1987488D02*
Y1835138D01*
X3943697D01*
X3969089Y1860529D01*
Y1962096D01*
X3943697Y1987488D01*
X3867522D01*
X4019873Y1962096D02*
X4045264Y1987488D01*
X4096048D01*
X4121440Y1962096D01*
Y1936705D01*
X4096048Y1911313D01*
X4070656D01*
X4096048D01*
X4121440Y1885921D01*
Y1860529D01*
X4096048Y1835138D01*
X4045264D01*
X4019873Y1860529D01*
X3699419Y1732231D02*
Y1579880D01*
X3775594D01*
X3800986Y1605272D01*
Y1630663D01*
X3775594Y1656055D01*
X3699419D01*
X3775594D01*
X3800986Y1681447D01*
Y1706839D01*
X3775594Y1732231D01*
X3699419D01*
X3851769Y1579880D02*
Y1732231D01*
X3927945D01*
X3953337Y1706839D01*
Y1656055D01*
X3927945Y1630663D01*
X3851769D01*
X4105687Y1706839D02*
X4080295Y1732231D01*
X4029512D01*
X4004120Y1706839D01*
Y1681447D01*
X4029512Y1656055D01*
X4080295D01*
X4105687Y1630663D01*
Y1605272D01*
X4080295Y1579880D01*
X4029512D01*
X4004120Y1605272D01*
X142251Y2009115D02*
Y1856765D01*
X243818D01*
X396169Y2009115D02*
X294602D01*
Y1856765D01*
X396169D01*
X294602Y1932940D02*
X345385D01*
X446953Y2009115D02*
Y1856765D01*
X523128D01*
X548520Y1882157D01*
Y1983723D01*
X523128Y2009115D01*
X446953D01*
X599303Y1856765D02*
X650087D01*
X624695D01*
Y2009115D01*
X599303Y1983723D01*
X99057Y1750011D02*
Y1597660D01*
X175233D01*
X200625Y1623052D01*
Y1648443D01*
X175233Y1673835D01*
X99057D01*
X175233D01*
X200625Y1699227D01*
Y1724619D01*
X175233Y1750011D01*
X99057D01*
X352975Y1724619D02*
X327584Y1750011D01*
X276800D01*
X251408Y1724619D01*
Y1699227D01*
X276800Y1673835D01*
X327584D01*
X352975Y1648443D01*
Y1623052D01*
X327584Y1597660D01*
X276800D01*
X251408Y1623052D01*
X403759Y1597660D02*
Y1750011D01*
X479934D01*
X505326Y1724619D01*
Y1673835D01*
X479934Y1648443D01*
X403759D01*
X556110Y1750011D02*
Y1597660D01*
X632285D01*
X657677Y1623052D01*
Y1724619D01*
X632285Y1750011D01*
X556110D01*
X3073375Y812841D02*
X2921025D01*
Y889017D01*
X2946417Y914408D01*
X2997200D01*
X3022592Y889017D01*
Y812841D01*
Y863625D02*
X3073375Y914408D01*
X2921025Y1066759D02*
Y965192D01*
X2997200D01*
X2971808Y1015975D01*
Y1041367D01*
X2997200Y1066759D01*
X3047983D01*
X3073375Y1041367D01*
Y990584D01*
X3047983Y965192D01*
X6134203Y3428967D02*
X6184986D01*
X6159595D01*
Y3276617D01*
X6134203D01*
X6184986D01*
X6261162D02*
Y3378184D01*
X6337337D01*
X6362729Y3352792D01*
Y3276617D01*
X6413512Y3225833D02*
Y3378184D01*
X6489688D01*
X6515080Y3352792D01*
Y3302008D01*
X6489688Y3276617D01*
X6413512D01*
X6565863Y3378184D02*
Y3302008D01*
X6591255Y3276617D01*
X6667430D01*
Y3378184D01*
X6743606Y3403575D02*
Y3378184D01*
X6718214D01*
X6768997D01*
X6743606D01*
Y3302008D01*
X6768997Y3276617D01*
X4749775Y762041D02*
X4597425D01*
Y838217D01*
X4622817Y863608D01*
X4673600D01*
X4698992Y838217D01*
Y762041D01*
Y812825D02*
X4749775Y863608D01*
Y990567D02*
X4597425D01*
X4673600Y914392D01*
Y1015959D01*
X5603845Y2216906D02*
X5587184Y2233568D01*
X5553861D01*
X5537200Y2216906D01*
Y2150261D01*
X5553861Y2133600D01*
X5587184D01*
X5603845Y2150261D01*
Y2183584D01*
X5570523D01*
X5637168Y2133600D02*
Y2233568D01*
X5703813Y2133600D01*
Y2233568D01*
X5737136D02*
Y2133600D01*
X5787119D01*
X5803781Y2150261D01*
Y2216906D01*
X5787119Y2233568D01*
X5737136D01*
X5384800Y2438400D02*
Y2538368D01*
X5434784D01*
X5451445Y2521706D01*
Y2488384D01*
X5434784Y2471723D01*
X5384800D01*
X5418123D02*
X5451445Y2438400D01*
X5534752D02*
X5501429D01*
X5484768Y2455061D01*
Y2488384D01*
X5501429Y2505045D01*
X5534752D01*
X5551413Y2488384D01*
Y2471723D01*
X5484768D01*
X5584736Y2438400D02*
X5634719D01*
X5651381Y2455061D01*
X5634719Y2471723D01*
X5601397D01*
X5584736Y2488384D01*
X5601397Y2505045D01*
X5651381D01*
X5734687Y2438400D02*
X5701365D01*
X5684703Y2455061D01*
Y2488384D01*
X5701365Y2505045D01*
X5734687D01*
X5751348Y2488384D01*
Y2471723D01*
X5684703D01*
X5801333Y2521706D02*
Y2505045D01*
X5784671D01*
X5817994D01*
X5801333D01*
Y2455061D01*
X5817994Y2438400D01*
X5537200Y2843168D02*
Y2776523D01*
X5570523Y2743200D01*
X5603845Y2776523D01*
Y2843168D01*
X5703813Y2826506D02*
X5687152Y2843168D01*
X5653829D01*
X5637168Y2826506D01*
Y2759861D01*
X5653829Y2743200D01*
X5687152D01*
X5703813Y2759861D01*
X5803781Y2826506D02*
X5787119Y2843168D01*
X5753797D01*
X5737136Y2826506D01*
Y2759861D01*
X5753797Y2743200D01*
X5787119D01*
X5803781Y2759861D01*
X3708375Y279515D02*
X3556024D01*
Y355690D01*
X3581416Y381082D01*
X3632200D01*
X3657592Y355690D01*
Y279515D01*
X3708375Y431866D02*
X3556024D01*
X3606808Y482649D01*
X3556024Y533433D01*
X3708375D01*
X3556024Y660392D02*
Y609608D01*
X3581416Y584216D01*
X3682983D01*
X3708375Y609608D01*
Y660392D01*
X3682983Y685783D01*
X3581416D01*
X3556024Y660392D01*
X3581416Y838134D02*
X3556024Y812742D01*
Y761959D01*
X3581416Y736567D01*
X3606808D01*
X3632200Y761959D01*
Y812742D01*
X3657592Y838134D01*
X3682983D01*
X3708375Y812742D01*
Y761959D01*
X3682983Y736567D01*
X3708375Y965093D02*
X3556024D01*
X3632200Y888918D01*
Y990485D01*
X1419893Y5877535D02*
Y5725185D01*
X1496068D01*
X1521460Y5750577D01*
Y5852143D01*
X1496068Y5877535D01*
X1419893D01*
X1572244Y5725185D02*
X1623027D01*
X1597636D01*
Y5877535D01*
X1572244Y5852143D01*
X2829601Y5867375D02*
Y5715025D01*
X2905777D01*
X2931168Y5740417D01*
Y5841983D01*
X2905777Y5867375D01*
X2829601D01*
X2981952Y5841983D02*
X3007344Y5867375D01*
X3058127D01*
X3083519Y5841983D01*
Y5816592D01*
X3058127Y5791200D01*
X3032735D01*
X3058127D01*
X3083519Y5765808D01*
Y5740417D01*
X3058127Y5715025D01*
X3007344D01*
X2981952Y5740417D01*
X228583Y3797428D02*
X76233D01*
Y3873603D01*
X101625Y3898995D01*
X152408D01*
X177800Y3873603D01*
Y3797428D01*
Y3848211D02*
X228583Y3898995D01*
Y4025954D02*
Y3975170D01*
X203192Y3949778D01*
X152408D01*
X127016Y3975170D01*
Y4025954D01*
X152408Y4051345D01*
X177800D01*
Y3949778D01*
X228583Y4102129D02*
Y4152912D01*
Y4127521D01*
X76233D01*
Y4102129D01*
X127016Y4254480D02*
Y4305263D01*
X152408Y4330655D01*
X228583D01*
Y4254480D01*
X203192Y4229088D01*
X177800Y4254480D01*
Y4330655D01*
X127016Y4381439D02*
X203192D01*
X228583Y4406830D01*
Y4483006D01*
X253975D01*
X279367Y4457614D01*
Y4432222D01*
X228583Y4483006D02*
X127016D01*
X228583Y4533789D02*
Y4584573D01*
Y4559181D01*
X76233D01*
X101625Y4533789D01*
X3632315Y2540025D02*
Y2692375D01*
X3708490D01*
X3733882Y2666983D01*
Y2616200D01*
X3708490Y2590808D01*
X3632315D01*
X3784666Y2540025D02*
Y2692375D01*
X3835449Y2641592D01*
X3886233Y2692375D01*
Y2540025D01*
X4013192Y2692375D02*
X3962408D01*
X3937017Y2666983D01*
Y2565417D01*
X3962408Y2540025D01*
X4013192D01*
X4038584Y2565417D01*
Y2666983D01*
X4013192Y2692375D01*
X4190934Y2666983D02*
X4165543Y2692375D01*
X4114759D01*
X4089367Y2666983D01*
Y2641592D01*
X4114759Y2616200D01*
X4165543D01*
X4190934Y2590808D01*
Y2565417D01*
X4165543Y2540025D01*
X4114759D01*
X4089367Y2565417D01*
X4241718Y2666983D02*
X4267110Y2692375D01*
X4317893D01*
X4343285Y2666983D01*
Y2641592D01*
X4317893Y2616200D01*
X4292501D01*
X4317893D01*
X4343285Y2590808D01*
Y2565417D01*
X4317893Y2540025D01*
X4267110D01*
X4241718Y2565417D01*
X558907Y2540025D02*
Y2692375D01*
X635082D01*
X660474Y2666983D01*
Y2616200D01*
X635082Y2590808D01*
X558907D01*
X711258Y2540025D02*
Y2692375D01*
X762041Y2641592D01*
X812825Y2692375D01*
Y2540025D01*
X939784Y2692375D02*
X889000D01*
X863608Y2666983D01*
Y2565417D01*
X889000Y2540025D01*
X939784D01*
X965176Y2565417D01*
Y2666983D01*
X939784Y2692375D01*
X1117526Y2666983D02*
X1092134Y2692375D01*
X1041351D01*
X1015959Y2666983D01*
Y2641592D01*
X1041351Y2616200D01*
X1092134D01*
X1117526Y2590808D01*
Y2565417D01*
X1092134Y2540025D01*
X1041351D01*
X1015959Y2565417D01*
X1168310Y2540025D02*
X1219093D01*
X1193702D01*
Y2692375D01*
X1168310Y2666983D01*
X2082915Y2540025D02*
Y2692375D01*
X2159090D01*
X2184482Y2666983D01*
Y2616200D01*
X2159090Y2590808D01*
X2082915D01*
X2235266Y2540025D02*
Y2692375D01*
X2286049Y2641592D01*
X2336833Y2692375D01*
Y2540025D01*
X2463792Y2692375D02*
X2413008D01*
X2387617Y2666983D01*
Y2565417D01*
X2413008Y2540025D01*
X2463792D01*
X2489184Y2565417D01*
Y2666983D01*
X2463792Y2692375D01*
X2641534Y2666983D02*
X2616143Y2692375D01*
X2565359D01*
X2539967Y2666983D01*
Y2641592D01*
X2565359Y2616200D01*
X2616143D01*
X2641534Y2590808D01*
Y2565417D01*
X2616143Y2540025D01*
X2565359D01*
X2539967Y2565417D01*
X2793885Y2540025D02*
X2692318D01*
X2793885Y2641592D01*
Y2666983D01*
X2768493Y2692375D01*
X2717710D01*
X2692318Y2666983D01*
X1879303Y1992295D02*
Y1839944D01*
X1980870D01*
X2133221Y1992295D02*
X2031654D01*
Y1839944D01*
X2133221D01*
X2031654Y1916120D02*
X2082437D01*
X2184004Y1992295D02*
Y1839944D01*
X2260180D01*
X2285572Y1865336D01*
Y1966903D01*
X2260180Y1992295D01*
X2184004D01*
X2437922Y1839944D02*
X2336355D01*
X2437922Y1941511D01*
Y1966903D01*
X2412530Y1992295D01*
X2361747D01*
X2336355Y1966903D01*
X3327383Y3822836D02*
X3175033D01*
Y3899011D01*
X3200425Y3924403D01*
X3251208D01*
X3276600Y3899011D01*
Y3822836D01*
Y3873619D02*
X3327383Y3924403D01*
Y4051362D02*
Y4000578D01*
X3301992Y3975186D01*
X3251208D01*
X3225816Y4000578D01*
Y4051362D01*
X3251208Y4076754D01*
X3276600D01*
Y3975186D01*
X3327383Y4127537D02*
Y4178321D01*
Y4152929D01*
X3175033D01*
Y4127537D01*
X3225816Y4279888D02*
Y4330671D01*
X3251208Y4356063D01*
X3327383D01*
Y4279888D01*
X3301992Y4254496D01*
X3276600Y4279888D01*
Y4356063D01*
X3225816Y4406847D02*
X3301992D01*
X3327383Y4432239D01*
Y4508414D01*
X3352775D01*
X3378167Y4483022D01*
Y4457630D01*
X3327383Y4508414D02*
X3225816D01*
X3200425Y4559197D02*
X3175033Y4584589D01*
Y4635373D01*
X3200425Y4660765D01*
X3225816D01*
X3251208Y4635373D01*
Y4609981D01*
Y4635373D01*
X3276600Y4660765D01*
X3301992D01*
X3327383Y4635373D01*
Y4584589D01*
X3301992Y4559197D01*
X817880Y1353771D02*
Y1201420D01*
X919447D01*
X995623Y1302987D02*
X1046406D01*
X1071798Y1277595D01*
Y1201420D01*
X995623D01*
X970231Y1226812D01*
X995623Y1252203D01*
X1071798D01*
X1147973Y1328379D02*
Y1302987D01*
X1122581D01*
X1173365D01*
X1147973D01*
Y1226812D01*
X1173365Y1201420D01*
X1351108Y1302987D02*
X1274932D01*
X1249540Y1277595D01*
Y1226812D01*
X1274932Y1201420D01*
X1351108D01*
X1401891Y1353771D02*
Y1201420D01*
Y1277595D01*
X1427283Y1302987D01*
X1478066D01*
X1503458Y1277595D01*
Y1201420D01*
D30*
X4793294Y1752600D02*
G03*
X4793294Y1752600I-297500J0D01*
G01*
X1338898Y1778000D02*
G03*
X1338898Y1778000I-297500J0D01*
G01*
X3116900Y1752600D02*
G03*
X3116900Y1752600I-297500J0D01*
G01*
D31*
X4124800Y90400D02*
G03*
X4124800Y90400I-10000J0D01*
G01*
X4567800Y3048000D02*
G03*
X4567800Y3048000I-10000J0D01*
G01*
X1469000D02*
G03*
X1469000Y3048000I-10000J0D01*
G01*
X3018400D02*
G03*
X3018400Y3048000I-10000J0D01*
G01*
X924400Y140901D02*
G03*
X924400Y140901I-10000J0D01*
G01*
X2003598Y5307599D02*
Y5563601D01*
X2393599Y5435600D02*
X2570602D01*
X1696598D02*
X1873601D01*
Y5300599D02*
Y5570601D01*
Y5300599D02*
X2393599D01*
Y5570601D01*
X1873601D02*
X2393599D01*
X5944100Y3569000D02*
X6266100D01*
X6707100D02*
X6959100D01*
Y4559000D01*
X5944100D02*
X6266100D01*
X6707100D02*
X6959100D01*
X5944100Y4330000D02*
Y4559000D01*
Y3569000D02*
Y3798000D01*
X3860800Y2186402D02*
X4622800D01*
X3860800D02*
Y2436398D01*
X4622800D01*
Y2186402D02*
Y2436398D01*
Y2311400D02*
X4684298D01*
X3799302D02*
X3860800D01*
X2159002Y2186402D02*
X2921002D01*
X2159002D02*
Y2436398D01*
X2921002D01*
Y2186402D02*
Y2436398D01*
Y2311400D02*
X2982500D01*
X2097498D02*
X2159002D01*
X344902D02*
X406400D01*
X1168400D02*
X1229898D01*
X1168400Y2186402D02*
Y2436398D01*
X406400D02*
X1168400D01*
X406400Y2186402D02*
Y2436398D01*
Y2186402D02*
X1168400D01*
X3131200Y624800D02*
X3371200D01*
X3131200D02*
Y1254800D01*
X3371200Y624800D02*
Y1254800D01*
X3131200D02*
X3371200D01*
X5918700Y937500D02*
X6240700D01*
X6681700D02*
X6933700D01*
Y3126500D01*
X5918700D02*
X6240700D01*
X6681700D02*
X6933700D01*
X5918700Y2898000D02*
Y3126500D01*
Y937500D02*
Y1166000D01*
X4833000Y1178600D02*
X5073000D01*
Y548600D02*
Y1178600D01*
X4833000Y548600D02*
Y1178600D01*
Y548600D02*
X5073000D01*
X1213201Y5926201D02*
X1733199D01*
Y5656199D02*
Y5926201D01*
X1213201Y5656199D02*
X1733199D01*
X1213201D02*
Y5926201D01*
X1036198Y5791200D02*
X1213201D01*
X1733199D02*
X1910202D01*
X1343198Y5663199D02*
Y5919201D01*
X2635601Y5926201D02*
X3155599D01*
Y5656199D02*
Y5926201D01*
X2635601Y5656199D02*
X3155599D01*
X2635601D02*
Y5926201D01*
X2458598Y5791200D02*
X2635601D01*
X3155599D02*
X3332602D01*
X2765598Y5663199D02*
Y5919201D01*
D32*
X3824051Y148402D02*
X4268551D01*
Y1172398D01*
X3824051D02*
X4268551D01*
X3824051Y148402D02*
Y1172398D01*
X4499798Y2757251D02*
Y3201751D01*
X3475802D02*
X4499798D01*
X3475802Y2757251D02*
Y3201751D01*
Y2757251D02*
X4499798D01*
X1400998D02*
Y3201751D01*
X377002D02*
X1400998D01*
X377002Y2757251D02*
Y3201751D01*
Y2757251D02*
X1400998D01*
X2950398D02*
Y3201751D01*
X1926402D02*
X2950398D01*
X1926402Y2757251D02*
Y3201751D01*
Y2757251D02*
X2950398D01*
X2780899Y326903D02*
Y961903D01*
X825901Y326903D02*
Y961903D01*
%TF.MD5,f07d753743aef4595e28378d2d3f3c4b*%
M02*
